<svg xmlns="http://www.w3.org/2000/svg" xmlns:xlink="http://www.w3.org/1999/xlink" width="1080" zoomAndPan="magnify" viewBox="0 0 810 809.999993" height="1080" preserveAspectRatio="xMidYMid meet" version="1.0"><defs><g/></defs><g fill="#000000" fill-opacity="1"><g transform="translate(30.936757, 515.952345)"><g><path d="M 10.4375 0 L 7 -6.546875 L 5.34375 -6.546875 L 5.34375 0 L 1.921875 0 L 1.921875 -17.125 L 8.671875 -17.125 C 9.691406 -17.125 10.554688 -16.910156 11.265625 -16.484375 C 11.972656 -16.066406 12.523438 -15.519531 12.921875 -14.84375 C 13.328125 -14.164062 13.578125 -13.429688 13.671875 -12.640625 C 13.773438 -11.847656 13.71875 -11.070312 13.5 -10.3125 C 13.28125 -9.550781 12.910156 -8.878906 12.390625 -8.296875 C 11.878906 -7.710938 11.195312 -7.300781 10.34375 -7.0625 L 14.328125 0 Z M 5.34375 -9.875 L 8.359375 -9.875 C 8.816406 -9.875 9.1875 -10 9.46875 -10.25 C 9.75 -10.507812 9.9375 -10.828125 10.03125 -11.203125 C 10.132812 -11.585938 10.132812 -11.972656 10.03125 -12.359375 C 9.9375 -12.742188 9.75 -13.0625 9.46875 -13.3125 C 9.1875 -13.570312 8.816406 -13.703125 8.359375 -13.703125 L 5.34375 -13.703125 Z M 5.34375 -9.875 "/></g></g></g><g fill="#000000" fill-opacity="1"><g transform="translate(51.576445, 515.952345)"><g><path d="M 10.15625 0.234375 C 8.6875 0.234375 7.394531 -0.0078125 6.28125 -0.5 C 5.175781 -1 4.253906 -1.664062 3.515625 -2.5 C 2.785156 -3.34375 2.234375 -4.289062 1.859375 -5.34375 C 1.492188 -6.394531 1.3125 -7.472656 1.3125 -8.578125 C 1.3125 -9.691406 1.492188 -10.773438 1.859375 -11.828125 C 2.234375 -12.878906 2.785156 -13.820312 3.515625 -14.65625 C 4.253906 -15.5 5.175781 -16.164062 6.28125 -16.65625 C 7.394531 -17.15625 8.6875 -17.40625 10.15625 -17.40625 C 11.625 -17.40625 12.910156 -17.15625 14.015625 -16.65625 C 15.128906 -16.164062 16.050781 -15.5 16.78125 -14.65625 C 17.519531 -13.820312 18.070312 -12.878906 18.4375 -11.828125 C 18.8125 -10.773438 19 -9.691406 19 -8.578125 C 19 -7.472656 18.8125 -6.394531 18.4375 -5.34375 C 18.070312 -4.289062 17.519531 -3.34375 16.78125 -2.5 C 16.050781 -1.664062 15.128906 -1 14.015625 -0.5 C 12.910156 -0.0078125 11.625 0.234375 10.15625 0.234375 Z M 10.15625 -3.3125 C 11.132812 -3.3125 11.972656 -3.5 12.671875 -3.875 C 13.367188 -4.257812 13.925781 -4.765625 14.34375 -5.390625 C 14.757812 -6.023438 15.039062 -6.71875 15.1875 -7.46875 C 15.332031 -8.21875 15.332031 -8.96875 15.1875 -9.71875 C 15.039062 -10.46875 14.757812 -11.160156 14.34375 -11.796875 C 13.925781 -12.429688 13.367188 -12.9375 12.671875 -13.3125 C 11.972656 -13.695312 11.132812 -13.890625 10.15625 -13.890625 C 9.175781 -13.890625 8.335938 -13.695312 7.640625 -13.3125 C 6.941406 -12.9375 6.382812 -12.429688 5.96875 -11.796875 C 5.550781 -11.160156 5.269531 -10.46875 5.125 -9.71875 C 4.976562 -8.96875 4.976562 -8.21875 5.125 -7.46875 C 5.269531 -6.71875 5.550781 -6.023438 5.96875 -5.390625 C 6.382812 -4.765625 6.941406 -4.257812 7.640625 -3.875 C 8.335938 -3.5 9.175781 -3.3125 10.15625 -3.3125 Z M 10.15625 -3.3125 "/></g></g></g><g fill="#000000" fill-opacity="1"><g transform="translate(77.818766, 515.952345)"><g><path d="M 10.15625 0.234375 C 8.6875 0.234375 7.394531 -0.0078125 6.28125 -0.5 C 5.175781 -1 4.253906 -1.664062 3.515625 -2.5 C 2.785156 -3.34375 2.234375 -4.289062 1.859375 -5.34375 C 1.492188 -6.394531 1.3125 -7.472656 1.3125 -8.578125 C 1.3125 -9.691406 1.492188 -10.773438 1.859375 -11.828125 C 2.234375 -12.878906 2.785156 -13.820312 3.515625 -14.65625 C 4.253906 -15.5 5.175781 -16.164062 6.28125 -16.65625 C 7.394531 -17.15625 8.6875 -17.40625 10.15625 -17.40625 C 11.625 -17.40625 12.910156 -17.15625 14.015625 -16.65625 C 15.128906 -16.164062 16.050781 -15.5 16.78125 -14.65625 C 17.519531 -13.820312 18.070312 -12.878906 18.4375 -11.828125 C 18.8125 -10.773438 19 -9.691406 19 -8.578125 C 19 -7.472656 18.8125 -6.394531 18.4375 -5.34375 C 18.070312 -4.289062 17.519531 -3.34375 16.78125 -2.5 C 16.050781 -1.664062 15.128906 -1 14.015625 -0.5 C 12.910156 -0.0078125 11.625 0.234375 10.15625 0.234375 Z M 10.15625 -3.3125 C 11.132812 -3.3125 11.972656 -3.5 12.671875 -3.875 C 13.367188 -4.257812 13.925781 -4.765625 14.34375 -5.390625 C 14.757812 -6.023438 15.039062 -6.71875 15.1875 -7.46875 C 15.332031 -8.21875 15.332031 -8.96875 15.1875 -9.71875 C 15.039062 -10.46875 14.757812 -11.160156 14.34375 -11.796875 C 13.925781 -12.429688 13.367188 -12.9375 12.671875 -13.3125 C 11.972656 -13.695312 11.132812 -13.890625 10.15625 -13.890625 C 9.175781 -13.890625 8.335938 -13.695312 7.640625 -13.3125 C 6.941406 -12.9375 6.382812 -12.429688 5.96875 -11.796875 C 5.550781 -11.160156 5.269531 -10.46875 5.125 -9.71875 C 4.976562 -8.96875 4.976562 -8.21875 5.125 -7.46875 C 5.269531 -6.71875 5.550781 -6.023438 5.96875 -5.390625 C 6.382812 -4.765625 6.941406 -4.257812 7.640625 -3.875 C 8.335938 -3.5 9.175781 -3.3125 10.15625 -3.3125 Z M 10.15625 -3.3125 "/></g></g></g><g fill="#000000" fill-opacity="1"><g transform="translate(104.061086, 515.952345)"><g><path d="M 8.171875 0 L 4.75 0 L 4.75 -13.703125 L 0.484375 -13.703125 L 0.484375 -17.109375 L 12.4375 -17.109375 L 12.4375 -13.703125 L 8.171875 -13.703125 Z M 8.171875 0 "/></g></g></g><g fill="#000000" fill-opacity="1"><g transform="translate(123.120535, 515.952345)"><g><path d="M 1.125 -1.109375 L 1.5625 -4.6875 C 2.207031 -4.226562 2.851562 -3.898438 3.5 -3.703125 C 4.15625 -3.503906 4.742188 -3.390625 5.265625 -3.359375 C 5.796875 -3.328125 6.1875 -3.316406 6.4375 -3.328125 C 6.945312 -3.359375 7.378906 -3.535156 7.734375 -3.859375 C 8.097656 -4.191406 8.257812 -4.585938 8.21875 -5.046875 C 8.1875 -5.546875 8 -5.921875 7.65625 -6.171875 C 7.320312 -6.429688 6.914062 -6.640625 6.4375 -6.796875 C 5.550781 -7.140625 4.71875 -7.53125 3.9375 -7.96875 C 3.164062 -8.40625 2.539062 -8.953125 2.0625 -9.609375 C 1.59375 -10.265625 1.359375 -11.070312 1.359375 -12.03125 C 1.359375 -12.988281 1.5625 -13.851562 1.96875 -14.625 C 2.382812 -15.394531 2.957031 -16.007812 3.6875 -16.46875 C 4.425781 -16.9375 5.265625 -17.195312 6.203125 -17.25 C 6.648438 -17.28125 7.195312 -17.265625 7.84375 -17.203125 C 8.488281 -17.140625 9.363281 -16.914062 10.46875 -16.53125 L 10.03125 -13.21875 C 9.09375 -13.601562 8.34375 -13.820312 7.78125 -13.875 C 7.226562 -13.9375 6.816406 -13.957031 6.546875 -13.9375 C 5.929688 -13.90625 5.484375 -13.695312 5.203125 -13.3125 C 4.929688 -12.9375 4.8125 -12.507812 4.84375 -12.03125 C 4.882812 -11.550781 5.085938 -11.1875 5.453125 -10.9375 C 5.828125 -10.6875 6.257812 -10.472656 6.75 -10.296875 C 7.644531 -9.984375 8.46875 -9.585938 9.21875 -9.109375 C 9.96875 -8.640625 10.570312 -8.070312 11.03125 -7.40625 C 11.488281 -6.75 11.71875 -5.960938 11.71875 -5.046875 C 11.71875 -4.109375 11.507812 -3.253906 11.09375 -2.484375 C 10.675781 -1.722656 10.078125 -1.109375 9.296875 -0.640625 C 8.523438 -0.179688 7.609375 0.078125 6.546875 0.140625 C 6.222656 0.160156 5.785156 0.148438 5.234375 0.109375 C 4.679688 0.0664062 4.050781 -0.0390625 3.34375 -0.21875 C 2.644531 -0.40625 1.90625 -0.703125 1.125 -1.109375 Z M 1.125 -1.109375 "/></g></g></g><g fill="#000000" fill-opacity="1"><g transform="translate(141.749018, 515.952345)"><g/></g></g><g fill="#000000" fill-opacity="1"><g transform="translate(154.511484, 515.952345)"><g><path d="M 10.15625 0.234375 C 8.6875 0.234375 7.394531 -0.0078125 6.28125 -0.5 C 5.175781 -1 4.253906 -1.664062 3.515625 -2.5 C 2.785156 -3.34375 2.234375 -4.289062 1.859375 -5.34375 C 1.492188 -6.394531 1.3125 -7.472656 1.3125 -8.578125 C 1.3125 -9.691406 1.492188 -10.773438 1.859375 -11.828125 C 2.234375 -12.878906 2.785156 -13.820312 3.515625 -14.65625 C 4.253906 -15.5 5.175781 -16.164062 6.28125 -16.65625 C 7.394531 -17.15625 8.6875 -17.40625 10.15625 -17.40625 C 11.625 -17.40625 12.910156 -17.15625 14.015625 -16.65625 C 15.128906 -16.164062 16.050781 -15.5 16.78125 -14.65625 C 17.519531 -13.820312 18.070312 -12.878906 18.4375 -11.828125 C 18.8125 -10.773438 19 -9.691406 19 -8.578125 C 19 -7.472656 18.8125 -6.394531 18.4375 -5.34375 C 18.070312 -4.289062 17.519531 -3.34375 16.78125 -2.5 C 16.050781 -1.664062 15.128906 -1 14.015625 -0.5 C 12.910156 -0.0078125 11.625 0.234375 10.15625 0.234375 Z M 10.15625 -3.3125 C 11.132812 -3.3125 11.972656 -3.5 12.671875 -3.875 C 13.367188 -4.257812 13.925781 -4.765625 14.34375 -5.390625 C 14.757812 -6.023438 15.039062 -6.71875 15.1875 -7.46875 C 15.332031 -8.21875 15.332031 -8.96875 15.1875 -9.71875 C 15.039062 -10.46875 14.757812 -11.160156 14.34375 -11.796875 C 13.925781 -12.429688 13.367188 -12.9375 12.671875 -13.3125 C 11.972656 -13.695312 11.132812 -13.890625 10.15625 -13.890625 C 9.175781 -13.890625 8.335938 -13.695312 7.640625 -13.3125 C 6.941406 -12.9375 6.382812 -12.429688 5.96875 -11.796875 C 5.550781 -11.160156 5.269531 -10.46875 5.125 -9.71875 C 4.976562 -8.96875 4.976562 -8.21875 5.125 -7.46875 C 5.269531 -6.71875 5.550781 -6.023438 5.96875 -5.390625 C 6.382812 -4.765625 6.941406 -4.257812 7.640625 -3.875 C 8.335938 -3.5 9.175781 -3.3125 10.15625 -3.3125 Z M 10.15625 -3.3125 "/></g></g></g><g fill="#000000" fill-opacity="1"><g transform="translate(180.753804, 515.952345)"><g><path d="M 10.46875 -13.703125 L 5.34375 -13.703125 L 5.34375 -10.28125 L 9.703125 -10.28125 L 9.703125 -6.84375 L 5.34375 -6.84375 L 5.34375 0 L 1.921875 0 L 1.921875 -17.125 L 10.46875 -17.125 Z M 10.46875 -13.703125 "/></g></g></g><g fill="#000000" fill-opacity="1"><g transform="translate(198.089371, 515.952345)"><g/></g></g><g fill="#000000" fill-opacity="1"><g transform="translate(210.851837, 515.952345)"><g><path d="M 12.8125 -13.15625 C 12.488281 -13.320312 12.097656 -13.484375 11.640625 -13.640625 C 11.191406 -13.804688 10.59375 -13.890625 9.84375 -13.890625 C 8.875 -13.890625 8.046875 -13.703125 7.359375 -13.328125 C 6.671875 -12.953125 6.117188 -12.453125 5.703125 -11.828125 C 5.285156 -11.210938 5.003906 -10.53125 4.859375 -9.78125 C 4.710938 -9.039062 4.710938 -8.296875 4.859375 -7.546875 C 5.003906 -6.804688 5.285156 -6.125 5.703125 -5.5 C 6.117188 -4.882812 6.671875 -4.390625 7.359375 -4.015625 C 8.046875 -3.640625 8.875 -3.453125 9.84375 -3.453125 C 10.59375 -3.453125 11.25 -3.535156 11.8125 -3.703125 C 12.382812 -3.878906 12.832031 -4.050781 13.15625 -4.21875 L 13.609375 -0.671875 C 13.078125 -0.460938 12.46875 -0.289062 11.78125 -0.15625 C 11.09375 -0.0195312 10.445312 0.046875 9.84375 0.046875 C 8.394531 0.046875 7.125 -0.191406 6.03125 -0.671875 C 4.945312 -1.160156 4.039062 -1.820312 3.3125 -2.65625 C 2.59375 -3.488281 2.050781 -4.421875 1.6875 -5.453125 C 1.332031 -6.484375 1.15625 -7.546875 1.15625 -8.640625 C 1.15625 -9.742188 1.332031 -10.8125 1.6875 -11.84375 C 2.050781 -12.875 2.59375 -13.800781 3.3125 -14.625 C 4.039062 -15.457031 4.945312 -16.117188 6.03125 -16.609375 C 7.125 -17.097656 8.394531 -17.34375 9.84375 -17.34375 C 11.09375 -17.34375 12.21875 -17.117188 13.21875 -16.671875 Z M 12.8125 -13.15625 "/></g></g></g><g fill="#000000" fill-opacity="1"><g transform="translate(231.228159, 515.952345)"><g><path d="M 14.203125 -5.96875 C 14.203125 -4.800781 13.976562 -3.800781 13.53125 -2.96875 C 13.082031 -2.132812 12.488281 -1.46875 11.75 -0.96875 C 11.019531 -0.476562 10.21875 -0.148438 9.34375 0.015625 C 8.46875 0.179688 7.582031 0.179688 6.6875 0.015625 C 5.800781 -0.148438 4.988281 -0.476562 4.25 -0.96875 C 3.519531 -1.46875 2.929688 -2.132812 2.484375 -2.96875 C 2.046875 -3.800781 1.828125 -4.800781 1.828125 -5.96875 L 1.828125 -17.125 L 5.25 -17.125 L 5.25 -5.984375 C 5.25 -5.265625 5.4375 -4.6875 5.8125 -4.25 C 6.1875 -3.820312 6.648438 -3.535156 7.203125 -3.390625 C 7.753906 -3.253906 8.300781 -3.253906 8.84375 -3.390625 C 9.394531 -3.535156 9.859375 -3.820312 10.234375 -4.25 C 10.609375 -4.6875 10.796875 -5.265625 10.796875 -5.984375 L 10.796875 -17.125 L 14.203125 -17.125 Z M 14.203125 -5.96875 "/></g></g></g><g fill="#000000" fill-opacity="1"><g transform="translate(253.256532, 515.952345)"><g><path d="M 1.921875 -17.125 L 5.34375 -17.125 L 5.34375 -3.421875 L 10.78125 -3.421875 L 10.78125 0 L 1.921875 0 Z M 1.921875 -17.125 "/></g></g></g><g fill="#000000" fill-opacity="1"><g transform="translate(271.023065, 515.952345)"><g><path d="M 8.171875 0 L 4.75 0 L 4.75 -13.703125 L 0.484375 -13.703125 L 0.484375 -17.109375 L 12.4375 -17.109375 L 12.4375 -13.703125 L 8.171875 -13.703125 Z M 8.171875 0 "/></g></g></g><g fill="#000000" fill-opacity="1"><g transform="translate(290.082514, 515.952345)"><g><path d="M 14.203125 -5.96875 C 14.203125 -4.800781 13.976562 -3.800781 13.53125 -2.96875 C 13.082031 -2.132812 12.488281 -1.46875 11.75 -0.96875 C 11.019531 -0.476562 10.21875 -0.148438 9.34375 0.015625 C 8.46875 0.179688 7.582031 0.179688 6.6875 0.015625 C 5.800781 -0.148438 4.988281 -0.476562 4.25 -0.96875 C 3.519531 -1.46875 2.929688 -2.132812 2.484375 -2.96875 C 2.046875 -3.800781 1.828125 -4.800781 1.828125 -5.96875 L 1.828125 -17.125 L 5.25 -17.125 L 5.25 -5.984375 C 5.25 -5.265625 5.4375 -4.6875 5.8125 -4.25 C 6.1875 -3.820312 6.648438 -3.535156 7.203125 -3.390625 C 7.753906 -3.253906 8.300781 -3.253906 8.84375 -3.390625 C 9.394531 -3.535156 9.859375 -3.820312 10.234375 -4.25 C 10.609375 -4.6875 10.796875 -5.265625 10.796875 -5.984375 L 10.796875 -17.125 L 14.203125 -17.125 Z M 14.203125 -5.96875 "/></g></g></g><g fill="#000000" fill-opacity="1"><g transform="translate(312.110888, 515.952345)"><g><path d="M 10.4375 0 L 7 -6.546875 L 5.34375 -6.546875 L 5.34375 0 L 1.921875 0 L 1.921875 -17.125 L 8.671875 -17.125 C 9.691406 -17.125 10.554688 -16.910156 11.265625 -16.484375 C 11.972656 -16.066406 12.523438 -15.519531 12.921875 -14.84375 C 13.328125 -14.164062 13.578125 -13.429688 13.671875 -12.640625 C 13.773438 -11.847656 13.71875 -11.070312 13.5 -10.3125 C 13.28125 -9.550781 12.910156 -8.878906 12.390625 -8.296875 C 11.878906 -7.710938 11.195312 -7.300781 10.34375 -7.0625 L 14.328125 0 Z M 5.34375 -9.875 L 8.359375 -9.875 C 8.816406 -9.875 9.1875 -10 9.46875 -10.25 C 9.75 -10.507812 9.9375 -10.828125 10.03125 -11.203125 C 10.132812 -11.585938 10.132812 -11.972656 10.03125 -12.359375 C 9.9375 -12.742188 9.75 -13.0625 9.46875 -13.3125 C 9.1875 -13.570312 8.816406 -13.703125 8.359375 -13.703125 L 5.34375 -13.703125 Z M 5.34375 -9.875 "/></g></g></g><g fill="#000000" fill-opacity="1"><g transform="translate(332.750576, 515.952345)"><g><path d="M 10.78125 0 L 1.921875 0 L 1.921875 -17.125 L 10.484375 -17.125 L 10.484375 -13.703125 L 5.34375 -13.703125 L 5.34375 -10.28125 L 9.84375 -10.28125 L 9.84375 -6.84375 L 5.34375 -6.84375 L 5.34375 -3.421875 L 10.78125 -3.421875 Z M 10.78125 0 "/></g></g></g><g fill="#000000" fill-opacity="1"><g transform="translate(350.780495, 515.952345)"><g/></g></g><g fill="#000000" fill-opacity="1"><g transform="translate(363.542979, 515.952345)"><g><path d="M 5.71875 -18.203125 L 7.46875 -18.203125 L 7.46875 5.765625 L 5.71875 5.765625 Z M 5.71875 -18.203125 "/></g></g></g><g fill="#000000" fill-opacity="1"><g transform="translate(382.698193, 515.952345)"><g/></g></g><g fill="#000000" fill-opacity="1"><g transform="translate(395.460678, 515.952345)"><g><path d="M 7.15625 0.359375 L 0.140625 -17.125 L 4 -17.125 L 7.453125 -8.390625 L 10.796875 -16.953125 L 10.96875 -16.953125 L 14.328125 -8.390625 L 17.765625 -17.125 L 21.625 -17.125 L 14.640625 0.28125 L 14.015625 0.28125 L 10.875 -7.3125 L 7.765625 0.359375 Z M 7.15625 0.359375 "/></g></g></g><g fill="#000000" fill-opacity="1"><g transform="translate(423.211388, 515.952345)"><g><path d="M 5.34375 0 L 1.921875 0 L 1.921875 -17.125 L 5.34375 -17.125 Z M 5.34375 0 "/></g></g></g><g fill="#000000" fill-opacity="1"><g transform="translate(436.452694, 515.952345)"><g><path d="M 5.34375 -9.3125 L 5.34375 0 L 1.921875 0 L 1.921875 -17.484375 L 2.828125 -17.484375 L 11.46875 -7.421875 L 11.46875 -17.109375 L 14.921875 -17.109375 L 14.921875 0.359375 L 14.015625 0.359375 Z M 5.34375 -9.3125 "/></g></g></g><g fill="#000000" fill-opacity="1"><g transform="translate(459.271188, 515.952345)"><g><path d="M 14.28125 -1.046875 C 13.625 -0.679688 12.921875 -0.398438 12.171875 -0.203125 C 11.429688 -0.00390625 10.65625 0.09375 9.84375 0.09375 C 8.4375 0.09375 7.191406 -0.144531 6.109375 -0.625 C 5.035156 -1.101562 4.128906 -1.742188 3.390625 -2.546875 C 2.660156 -3.359375 2.109375 -4.269531 1.734375 -5.28125 C 1.359375 -6.289062 1.160156 -7.335938 1.140625 -8.421875 C 1.128906 -9.515625 1.296875 -10.570312 1.640625 -11.59375 C 1.984375 -12.613281 2.515625 -13.539062 3.234375 -14.375 C 3.953125 -15.21875 4.859375 -15.898438 5.953125 -16.421875 C 7.054688 -16.941406 8.351562 -17.222656 9.84375 -17.265625 C 10.53125 -17.296875 11.15625 -17.265625 11.71875 -17.171875 C 12.289062 -17.078125 12.765625 -16.972656 13.140625 -16.859375 C 13.515625 -16.753906 13.75 -16.679688 13.84375 -16.640625 L 13.4375 -13.171875 C 13.101562 -13.316406 12.644531 -13.460938 12.0625 -13.609375 C 11.488281 -13.765625 10.75 -13.828125 9.84375 -13.796875 C 8.851562 -13.765625 8.007812 -13.546875 7.3125 -13.140625 C 6.625 -12.742188 6.070312 -12.234375 5.65625 -11.609375 C 5.25 -10.992188 4.984375 -10.316406 4.859375 -9.578125 C 4.734375 -8.847656 4.742188 -8.113281 4.890625 -7.375 C 5.035156 -6.644531 5.316406 -5.972656 5.734375 -5.359375 C 6.160156 -4.742188 6.71875 -4.25 7.40625 -3.875 C 8.09375 -3.507812 8.90625 -3.328125 9.84375 -3.328125 C 10 -3.328125 10.15625 -3.335938 10.3125 -3.359375 C 10.476562 -3.390625 10.640625 -3.410156 10.796875 -3.421875 L 10.796875 -8.578125 L 14.28125 -8.578125 Z M 14.28125 -1.046875 "/></g></g></g><g fill="#000000" fill-opacity="1"><g transform="translate(481.347436, 515.952345)"><g><path d="M 1.125 -1.109375 L 1.5625 -4.6875 C 2.207031 -4.226562 2.851562 -3.898438 3.5 -3.703125 C 4.15625 -3.503906 4.742188 -3.390625 5.265625 -3.359375 C 5.796875 -3.328125 6.1875 -3.316406 6.4375 -3.328125 C 6.945312 -3.359375 7.378906 -3.535156 7.734375 -3.859375 C 8.097656 -4.191406 8.257812 -4.585938 8.21875 -5.046875 C 8.1875 -5.546875 8 -5.921875 7.65625 -6.171875 C 7.320312 -6.429688 6.914062 -6.640625 6.4375 -6.796875 C 5.550781 -7.140625 4.71875 -7.53125 3.9375 -7.96875 C 3.164062 -8.40625 2.539062 -8.953125 2.0625 -9.609375 C 1.59375 -10.265625 1.359375 -11.070312 1.359375 -12.03125 C 1.359375 -12.988281 1.5625 -13.851562 1.96875 -14.625 C 2.382812 -15.394531 2.957031 -16.007812 3.6875 -16.46875 C 4.425781 -16.9375 5.265625 -17.195312 6.203125 -17.25 C 6.648438 -17.28125 7.195312 -17.265625 7.84375 -17.203125 C 8.488281 -17.140625 9.363281 -16.914062 10.46875 -16.53125 L 10.03125 -13.21875 C 9.09375 -13.601562 8.34375 -13.820312 7.78125 -13.875 C 7.226562 -13.9375 6.816406 -13.957031 6.546875 -13.9375 C 5.929688 -13.90625 5.484375 -13.695312 5.203125 -13.3125 C 4.929688 -12.9375 4.8125 -12.507812 4.84375 -12.03125 C 4.882812 -11.550781 5.085938 -11.1875 5.453125 -10.9375 C 5.828125 -10.6875 6.257812 -10.472656 6.75 -10.296875 C 7.644531 -9.984375 8.46875 -9.585938 9.21875 -9.109375 C 9.96875 -8.640625 10.570312 -8.070312 11.03125 -7.40625 C 11.488281 -6.75 11.71875 -5.960938 11.71875 -5.046875 C 11.71875 -4.109375 11.507812 -3.253906 11.09375 -2.484375 C 10.675781 -1.722656 10.078125 -1.109375 9.296875 -0.640625 C 8.523438 -0.179688 7.609375 0.078125 6.546875 0.140625 C 6.222656 0.160156 5.785156 0.148438 5.234375 0.109375 C 4.679688 0.0664062 4.050781 -0.0390625 3.34375 -0.21875 C 2.644531 -0.40625 1.90625 -0.703125 1.125 -1.109375 Z M 1.125 -1.109375 "/></g></g></g><g fill="#000000" fill-opacity="1"><g transform="translate(499.975919, 515.952345)"><g/></g></g><g fill="#000000" fill-opacity="1"><g transform="translate(512.738366, 515.952345)"><g><path d="M 10.15625 0.234375 C 8.6875 0.234375 7.394531 -0.0078125 6.28125 -0.5 C 5.175781 -1 4.253906 -1.664062 3.515625 -2.5 C 2.785156 -3.34375 2.234375 -4.289062 1.859375 -5.34375 C 1.492188 -6.394531 1.3125 -7.472656 1.3125 -8.578125 C 1.3125 -9.691406 1.492188 -10.773438 1.859375 -11.828125 C 2.234375 -12.878906 2.785156 -13.820312 3.515625 -14.65625 C 4.253906 -15.5 5.175781 -16.164062 6.28125 -16.65625 C 7.394531 -17.15625 8.6875 -17.40625 10.15625 -17.40625 C 11.625 -17.40625 12.910156 -17.15625 14.015625 -16.65625 C 15.128906 -16.164062 16.050781 -15.5 16.78125 -14.65625 C 17.519531 -13.820312 18.070312 -12.878906 18.4375 -11.828125 C 18.8125 -10.773438 19 -9.691406 19 -8.578125 C 19 -7.472656 18.8125 -6.394531 18.4375 -5.34375 C 18.070312 -4.289062 17.519531 -3.34375 16.78125 -2.5 C 16.050781 -1.664062 15.128906 -1 14.015625 -0.5 C 12.910156 -0.0078125 11.625 0.234375 10.15625 0.234375 Z M 10.15625 -3.3125 C 11.132812 -3.3125 11.972656 -3.5 12.671875 -3.875 C 13.367188 -4.257812 13.925781 -4.765625 14.34375 -5.390625 C 14.757812 -6.023438 15.039062 -6.71875 15.1875 -7.46875 C 15.332031 -8.21875 15.332031 -8.96875 15.1875 -9.71875 C 15.039062 -10.46875 14.757812 -11.160156 14.34375 -11.796875 C 13.925781 -12.429688 13.367188 -12.9375 12.671875 -13.3125 C 11.972656 -13.695312 11.132812 -13.890625 10.15625 -13.890625 C 9.175781 -13.890625 8.335938 -13.695312 7.640625 -13.3125 C 6.941406 -12.9375 6.382812 -12.429688 5.96875 -11.796875 C 5.550781 -11.160156 5.269531 -10.46875 5.125 -9.71875 C 4.976562 -8.96875 4.976562 -8.21875 5.125 -7.46875 C 5.269531 -6.71875 5.550781 -6.023438 5.96875 -5.390625 C 6.382812 -4.765625 6.941406 -4.257812 7.640625 -3.875 C 8.335938 -3.5 9.175781 -3.3125 10.15625 -3.3125 Z M 10.15625 -3.3125 "/></g></g></g><g fill="#000000" fill-opacity="1"><g transform="translate(538.980686, 515.952345)"><g><path d="M 10.46875 -13.703125 L 5.34375 -13.703125 L 5.34375 -10.28125 L 9.703125 -10.28125 L 9.703125 -6.84375 L 5.34375 -6.84375 L 5.34375 0 L 1.921875 0 L 1.921875 -17.125 L 10.46875 -17.125 Z M 10.46875 -13.703125 "/></g></g></g><g fill="#000000" fill-opacity="1"><g transform="translate(556.316253, 515.952345)"><g/></g></g><g fill="#000000" fill-opacity="1"><g transform="translate(569.078699, 515.952345)"><g><path d="M 8.171875 0 L 4.75 0 L 4.75 -13.703125 L 0.484375 -13.703125 L 0.484375 -17.109375 L 12.4375 -17.109375 L 12.4375 -13.703125 L 8.171875 -13.703125 Z M 8.171875 0 "/></g></g></g><g fill="#000000" fill-opacity="1"><g transform="translate(588.138168, 515.952345)"><g><path d="M 10.78125 0 L 1.921875 0 L 1.921875 -17.125 L 10.484375 -17.125 L 10.484375 -13.703125 L 5.34375 -13.703125 L 5.34375 -10.28125 L 9.84375 -10.28125 L 9.84375 -6.84375 L 5.34375 -6.84375 L 5.34375 -3.421875 L 10.78125 -3.421875 Z M 10.78125 0 "/></g></g></g><g fill="#000000" fill-opacity="1"><g transform="translate(606.168067, 515.952345)"><g><path d="M 12.8125 -13.15625 C 12.488281 -13.320312 12.097656 -13.484375 11.640625 -13.640625 C 11.191406 -13.804688 10.59375 -13.890625 9.84375 -13.890625 C 8.875 -13.890625 8.046875 -13.703125 7.359375 -13.328125 C 6.671875 -12.953125 6.117188 -12.453125 5.703125 -11.828125 C 5.285156 -11.210938 5.003906 -10.53125 4.859375 -9.78125 C 4.710938 -9.039062 4.710938 -8.296875 4.859375 -7.546875 C 5.003906 -6.804688 5.285156 -6.125 5.703125 -5.5 C 6.117188 -4.882812 6.671875 -4.390625 7.359375 -4.015625 C 8.046875 -3.640625 8.875 -3.453125 9.84375 -3.453125 C 10.59375 -3.453125 11.25 -3.535156 11.8125 -3.703125 C 12.382812 -3.878906 12.832031 -4.050781 13.15625 -4.21875 L 13.609375 -0.671875 C 13.078125 -0.460938 12.46875 -0.289062 11.78125 -0.15625 C 11.09375 -0.0195312 10.445312 0.046875 9.84375 0.046875 C 8.394531 0.046875 7.125 -0.191406 6.03125 -0.671875 C 4.945312 -1.160156 4.039062 -1.820312 3.3125 -2.65625 C 2.59375 -3.488281 2.050781 -4.421875 1.6875 -5.453125 C 1.332031 -6.484375 1.15625 -7.546875 1.15625 -8.640625 C 1.15625 -9.742188 1.332031 -10.8125 1.6875 -11.84375 C 2.050781 -12.875 2.59375 -13.800781 3.3125 -14.625 C 4.039062 -15.457031 4.945312 -16.117188 6.03125 -16.609375 C 7.125 -17.097656 8.394531 -17.34375 9.84375 -17.34375 C 11.09375 -17.34375 12.21875 -17.117188 13.21875 -16.671875 Z M 12.8125 -13.15625 "/></g></g></g><g fill="#000000" fill-opacity="1"><g transform="translate(626.544389, 515.952345)"><g><path d="M 13.890625 0 L 10.46875 0 L 10.46875 -6.84375 L 5.34375 -6.84375 L 5.34375 0 L 1.921875 0 L 1.921875 -17.125 L 5.34375 -17.125 L 5.34375 -10.28125 L 10.46875 -10.28125 L 10.46875 -17.125 L 13.890625 -17.125 Z M 13.890625 0 "/></g></g></g><g fill="#000000" fill-opacity="1"><g transform="translate(648.333352, 515.952345)"><g><path d="M 5.34375 -9.3125 L 5.34375 0 L 1.921875 0 L 1.921875 -17.484375 L 2.828125 -17.484375 L 11.46875 -7.421875 L 11.46875 -17.109375 L 14.921875 -17.109375 L 14.921875 0.359375 L 14.015625 0.359375 Z M 5.34375 -9.3125 "/></g></g></g><g fill="#000000" fill-opacity="1"><g transform="translate(671.151846, 515.952345)"><g><path d="M 10.15625 0.234375 C 8.6875 0.234375 7.394531 -0.0078125 6.28125 -0.5 C 5.175781 -1 4.253906 -1.664062 3.515625 -2.5 C 2.785156 -3.34375 2.234375 -4.289062 1.859375 -5.34375 C 1.492188 -6.394531 1.3125 -7.472656 1.3125 -8.578125 C 1.3125 -9.691406 1.492188 -10.773438 1.859375 -11.828125 C 2.234375 -12.878906 2.785156 -13.820312 3.515625 -14.65625 C 4.253906 -15.5 5.175781 -16.164062 6.28125 -16.65625 C 7.394531 -17.15625 8.6875 -17.40625 10.15625 -17.40625 C 11.625 -17.40625 12.910156 -17.15625 14.015625 -16.65625 C 15.128906 -16.164062 16.050781 -15.5 16.78125 -14.65625 C 17.519531 -13.820312 18.070312 -12.878906 18.4375 -11.828125 C 18.8125 -10.773438 19 -9.691406 19 -8.578125 C 19 -7.472656 18.8125 -6.394531 18.4375 -5.34375 C 18.070312 -4.289062 17.519531 -3.34375 16.78125 -2.5 C 16.050781 -1.664062 15.128906 -1 14.015625 -0.5 C 12.910156 -0.0078125 11.625 0.234375 10.15625 0.234375 Z M 10.15625 -3.3125 C 11.132812 -3.3125 11.972656 -3.5 12.671875 -3.875 C 13.367188 -4.257812 13.925781 -4.765625 14.34375 -5.390625 C 14.757812 -6.023438 15.039062 -6.71875 15.1875 -7.46875 C 15.332031 -8.21875 15.332031 -8.96875 15.1875 -9.71875 C 15.039062 -10.46875 14.757812 -11.160156 14.34375 -11.796875 C 13.925781 -12.429688 13.367188 -12.9375 12.671875 -13.3125 C 11.972656 -13.695312 11.132812 -13.890625 10.15625 -13.890625 C 9.175781 -13.890625 8.335938 -13.695312 7.640625 -13.3125 C 6.941406 -12.9375 6.382812 -12.429688 5.96875 -11.796875 C 5.550781 -11.160156 5.269531 -10.46875 5.125 -9.71875 C 4.976562 -8.96875 4.976562 -8.21875 5.125 -7.46875 C 5.269531 -6.71875 5.550781 -6.023438 5.96875 -5.390625 C 6.382812 -4.765625 6.941406 -4.257812 7.640625 -3.875 C 8.335938 -3.5 9.175781 -3.3125 10.15625 -3.3125 Z M 10.15625 -3.3125 "/></g></g></g><g fill="#000000" fill-opacity="1"><g transform="translate(697.394166, 515.952345)"><g><path d="M 1.921875 -17.125 L 5.34375 -17.125 L 5.34375 -3.421875 L 10.78125 -3.421875 L 10.78125 0 L 1.921875 0 Z M 1.921875 -17.125 "/></g></g></g><g fill="#000000" fill-opacity="1"><g transform="translate(715.160718, 515.952345)"><g><path d="M 10.15625 0.234375 C 8.6875 0.234375 7.394531 -0.0078125 6.28125 -0.5 C 5.175781 -1 4.253906 -1.664062 3.515625 -2.5 C 2.785156 -3.34375 2.234375 -4.289062 1.859375 -5.34375 C 1.492188 -6.394531 1.3125 -7.472656 1.3125 -8.578125 C 1.3125 -9.691406 1.492188 -10.773438 1.859375 -11.828125 C 2.234375 -12.878906 2.785156 -13.820312 3.515625 -14.65625 C 4.253906 -15.5 5.175781 -16.164062 6.28125 -16.65625 C 7.394531 -17.15625 8.6875 -17.40625 10.15625 -17.40625 C 11.625 -17.40625 12.910156 -17.15625 14.015625 -16.65625 C 15.128906 -16.164062 16.050781 -15.5 16.78125 -14.65625 C 17.519531 -13.820312 18.070312 -12.878906 18.4375 -11.828125 C 18.8125 -10.773438 19 -9.691406 19 -8.578125 C 19 -7.472656 18.8125 -6.394531 18.4375 -5.34375 C 18.070312 -4.289062 17.519531 -3.34375 16.78125 -2.5 C 16.050781 -1.664062 15.128906 -1 14.015625 -0.5 C 12.910156 -0.0078125 11.625 0.234375 10.15625 0.234375 Z M 10.15625 -3.3125 C 11.132812 -3.3125 11.972656 -3.5 12.671875 -3.875 C 13.367188 -4.257812 13.925781 -4.765625 14.34375 -5.390625 C 14.757812 -6.023438 15.039062 -6.71875 15.1875 -7.46875 C 15.332031 -8.21875 15.332031 -8.96875 15.1875 -9.71875 C 15.039062 -10.46875 14.757812 -11.160156 14.34375 -11.796875 C 13.925781 -12.429688 13.367188 -12.9375 12.671875 -13.3125 C 11.972656 -13.695312 11.132812 -13.890625 10.15625 -13.890625 C 9.175781 -13.890625 8.335938 -13.695312 7.640625 -13.3125 C 6.941406 -12.9375 6.382812 -12.429688 5.96875 -11.796875 C 5.550781 -11.160156 5.269531 -10.46875 5.125 -9.71875 C 4.976562 -8.96875 4.976562 -8.21875 5.125 -7.46875 C 5.269531 -6.71875 5.550781 -6.023438 5.96875 -5.390625 C 6.382812 -4.765625 6.941406 -4.257812 7.640625 -3.875 C 8.335938 -3.5 9.175781 -3.3125 10.15625 -3.3125 Z M 10.15625 -3.3125 "/></g></g></g><g fill="#000000" fill-opacity="1"><g transform="translate(741.403038, 515.952345)"><g><path d="M 14.28125 -1.046875 C 13.625 -0.679688 12.921875 -0.398438 12.171875 -0.203125 C 11.429688 -0.00390625 10.65625 0.09375 9.84375 0.09375 C 8.4375 0.09375 7.191406 -0.144531 6.109375 -0.625 C 5.035156 -1.101562 4.128906 -1.742188 3.390625 -2.546875 C 2.660156 -3.359375 2.109375 -4.269531 1.734375 -5.28125 C 1.359375 -6.289062 1.160156 -7.335938 1.140625 -8.421875 C 1.128906 -9.515625 1.296875 -10.570312 1.640625 -11.59375 C 1.984375 -12.613281 2.515625 -13.539062 3.234375 -14.375 C 3.953125 -15.21875 4.859375 -15.898438 5.953125 -16.421875 C 7.054688 -16.941406 8.351562 -17.222656 9.84375 -17.265625 C 10.53125 -17.296875 11.15625 -17.265625 11.71875 -17.171875 C 12.289062 -17.078125 12.765625 -16.972656 13.140625 -16.859375 C 13.515625 -16.753906 13.75 -16.679688 13.84375 -16.640625 L 13.4375 -13.171875 C 13.101562 -13.316406 12.644531 -13.460938 12.0625 -13.609375 C 11.488281 -13.765625 10.75 -13.828125 9.84375 -13.796875 C 8.851562 -13.765625 8.007812 -13.546875 7.3125 -13.140625 C 6.625 -12.742188 6.070312 -12.234375 5.65625 -11.609375 C 5.25 -10.992188 4.984375 -10.316406 4.859375 -9.578125 C 4.734375 -8.847656 4.742188 -8.113281 4.890625 -7.375 C 5.035156 -6.644531 5.316406 -5.972656 5.734375 -5.359375 C 6.160156 -4.742188 6.71875 -4.25 7.40625 -3.875 C 8.09375 -3.507812 8.90625 -3.328125 9.84375 -3.328125 C 10 -3.328125 10.15625 -3.335938 10.3125 -3.359375 C 10.476562 -3.390625 10.640625 -3.410156 10.796875 -3.421875 L 10.796875 -8.578125 L 14.28125 -8.578125 Z M 14.28125 -1.046875 "/></g></g></g><g fill="#000000" fill-opacity="1"><g transform="translate(763.479286, 515.952345)"><g><path d="M 6.109375 0 L 6.109375 -7.71875 L 0.140625 -17.125 L 4.3125 -17.125 L 7.8125 -11.234375 L 11.3125 -17.125 L 15.5 -17.125 L 9.515625 -7.71875 L 9.515625 0 Z M 6.109375 0 "/></g></g></g><g fill="#000000" fill-opacity="1"><g transform="translate(20.511926, 432.064814)"><g><path d="M 92.78125 -91.640625 L 29.53125 -91.640625 L 29.53125 -76.4375 C 29.78125 -76.4375 30.03125 -76.3125 30.28125 -76.0625 C 30.539062 -75.8125 30.765625 -75.6875 30.953125 -75.6875 C 30.453125 -75.6875 30.171875 -75.71875 30.109375 -75.78125 C 30.109375 -76.09375 34.820312 -77.101562 44.25 -78.8125 C 47.726562 -79.445312 51.179688 -79.765625 54.609375 -79.765625 C 68.847656 -79.765625 77.992188 -75.773438 82.046875 -67.796875 C 84.765625 -62.484375 86.125 -51.753906 86.125 -35.609375 L 86.125 0.953125 C 84.800781 0.441406 79.769531 -1.613281 71.03125 -5.21875 C 71.03125 -7.25 70.617188 -8.546875 69.796875 -9.109375 C 66.441406 -7.148438 63.6875 -5.664062 61.53125 -4.65625 C 54.695312 -1.425781 46.753906 0.1875 37.703125 0.1875 C 25.234375 0.1875 15.609375 -3.734375 8.828125 -11.578125 C 5.535156 -15.378906 3.890625 -19.625 3.890625 -24.3125 C 3.890625 -29.5625 6.488281 -34.785156 11.6875 -39.984375 C 21.75 -50.046875 34.25 -55.078125 49.1875 -55.078125 C 58.238281 -55.078125 65.519531 -52.988281 71.03125 -48.8125 L 71.03125 -57.546875 C 68.25 -61.085938 65.539062 -63.457031 62.90625 -64.65625 C 60.28125 -65.863281 56.691406 -66.40625 52.140625 -66.28125 C 41.941406 -66.09375 32.601562 -64.226562 24.125 -60.6875 C 20.320312 -59.101562 16.617188 -57.675781 13.015625 -56.40625 L 13.015625 -63.4375 C 13.835938 -64.132812 15.039062 -65.175781 16.625 -66.5625 C 16.875 -66.882812 17.03125 -67.078125 17.09375 -67.140625 L 17.09375 -91.640625 L -2.375 -91.640625 L -2.375 -103.03125 L 92.78125 -103.03125 Z M 71.03125 -31.53125 C 71.03125 -34.3125 67.707031 -36.8125 61.0625 -39.03125 C 55.550781 -40.863281 50.960938 -41.78125 47.296875 -41.78125 C 33.929688 -41.78125 23.226562 -36.96875 15.1875 -27.34375 C 11.957031 -23.488281 10.34375 -20.328125 10.34375 -17.859375 C 11.675781 -13.234375 16.898438 -10.921875 26.015625 -10.921875 C 37.796875 -10.921875 48.5625 -13.863281 58.3125 -19.75 C 66.789062 -24.875 71.03125 -28.800781 71.03125 -31.53125 Z M 71.03125 -31.53125 "/></g></g></g><g fill="#000000" fill-opacity="1"><g transform="translate(115.042825, 432.064814)"><g><path d="M 96.484375 -91.640625 L 86.125 -91.640625 L 86.125 -55.640625 C 82.394531 -57.859375 77.015625 -59.757812 69.984375 -61.34375 C 63.398438 -62.863281 57.703125 -63.625 52.890625 -63.625 C 41.304688 -63.625 31.585938 -61.566406 23.734375 -57.453125 C 19.304688 -55.109375 17.09375 -52.035156 17.09375 -48.234375 C 17.09375 -43.171875 19.75 -40.640625 25.0625 -40.640625 C 28.289062 -40.640625 32.503906 -41.59375 37.703125 -43.5 C 41.054688 -44.695312 45.359375 -46.210938 50.609375 -48.046875 C 52.828125 -48.804688 56.753906 -49.1875 62.390625 -49.1875 C 73.335938 -49.1875 81.503906 -45.800781 86.890625 -39.03125 C 89.484375 -35.800781 90.78125 -32.003906 90.78125 -27.640625 C 90.78125 -17.566406 84.453125 -9.648438 71.796875 -3.890625 C 66.535156 -1.484375 61.53125 -0.125 56.78125 0.1875 C 61.34375 4.75 65.679688 7.03125 69.796875 7.03125 C 71.128906 7.03125 72.554688 6.835938 74.078125 6.453125 L 83.65625 22.125 C 81.695312 23.832031 77.679688 24.6875 71.609375 24.6875 C 66.660156 24.6875 62.476562 23.007812 59.0625 19.65625 C 57.226562 17.820312 54.632812 13.992188 51.28125 8.171875 C 48.425781 3.171875 46.050781 0.632812 44.15625 0.5625 C 32.445312 0.25 23.425781 -1.867188 17.09375 -5.796875 C 13.101562 -8.265625 11.109375 -11.648438 11.109375 -15.953125 C 11.109375 -21.273438 14.273438 -23.9375 20.609375 -23.9375 C 22.953125 -23.9375 27.84375 -22.113281 35.28125 -18.46875 C 42.71875 -14.832031 48.84375 -13.015625 53.65625 -13.015625 C 63.28125 -13.015625 72.300781 -15.289062 80.71875 -19.84375 C 84.832031 -22.0625 86.890625 -24.785156 86.890625 -28.015625 C 86.890625 -32.828125 83.09375 -35.234375 75.5 -35.234375 C 73.15625 -35.234375 65.585938 -33.523438 52.796875 -30.109375 C 45.265625 -28.078125 40.644531 -27.0625 38.9375 -27.0625 C 28.863281 -27.0625 20.566406 -31.8125 14.046875 -41.3125 C 10.890625 -45.863281 9.3125 -50.769531 9.3125 -56.03125 C 9.25 -66.726562 16.5625 -73.945312 31.25 -77.6875 C 37.257812 -79.195312 42.921875 -79.953125 48.234375 -79.953125 C 54.316406 -79.953125 62.929688 -78.46875 74.078125 -75.5 L 74.078125 -91.640625 L -1.515625 -91.640625 L -1.515625 -103.03125 L 96.484375 -103.03125 Z M 96.484375 -91.640625 "/></g></g></g><g fill="#000000" fill-opacity="1"><g transform="translate(212.707252, 432.064814)"><g><path d="M 104.265625 -91.640625 L 27.640625 -91.640625 L 27.640625 -63.0625 C 34.535156 -70.59375 40.925781 -75.429688 46.8125 -77.578125 C 50.101562 -78.785156 53.804688 -79.390625 57.921875 -79.390625 C 73.367188 -79.390625 84.925781 -71.789062 92.59375 -56.59375 C 95.945312 -49.945312 97.625 -43.394531 97.625 -36.9375 C 97.625 -25.164062 92.78125 -14.53125 83.09375 -5.03125 C 79.863281 -1.863281 77.457031 0.316406 75.875 1.515625 L 60.296875 -7.78125 C 64.222656 -11.894531 68.6875 -16.960938 73.6875 -22.984375 C 79.320312 -29.753906 82.171875 -38.300781 82.234375 -48.625 C 82.296875 -54.757812 80.90625 -59.882812 78.0625 -64 C 74.832031 -68.8125 70.273438 -71.15625 64.390625 -71.03125 C 58.941406 -70.90625 53.113281 -68.847656 46.90625 -64.859375 C 41.34375 -61.316406 36.722656 -57.078125 33.046875 -52.140625 C 29.054688 -46.816406 27.0625 -41.6875 27.0625 -36.75 L 27.0625 0.953125 L 9.3125 -8.546875 L 9.3125 -91.640625 L -1.140625 -91.640625 L -1.140625 -103.03125 L 9.3125 -103.03125 C 9.3125 -121.644531 4.46875 -137.535156 -5.21875 -150.703125 C -11.039062 -158.617188 -16.421875 -164.191406 -21.359375 -167.421875 L -2.1875 -167.609375 C 8.445312 -161.785156 16.898438 -149.21875 23.171875 -129.90625 C 26.148438 -120.726562 27.640625 -111.769531 27.640625 -103.03125 L 104.265625 -103.03125 Z M 104.265625 -91.640625 "/></g></g></g><g fill="#000000" fill-opacity="1"><g transform="translate(318.063064, 432.064814)"><g><path d="M 84.046875 -91.640625 L 35.984375 -91.640625 L 35.984375 -15.1875 C 35.984375 -13.039062 36.679688 -10.953125 38.078125 -8.921875 C 39.535156 -6.710938 41.304688 -5.609375 43.390625 -5.609375 C 52.828125 -5.609375 57.546875 -15.351562 57.546875 -34.84375 L 76.640625 -23.9375 C 69.359375 -7.789062 58.085938 0.25 42.828125 0.1875 C 33.960938 0.125 27.0625 -3.925781 22.125 -11.96875 C 19.96875 -15.445312 18.890625 -18.925781 18.890625 -22.40625 L 18.890625 -91.640625 L -0.953125 -91.640625 L -0.953125 -103.03125 L 18.890625 -103.03125 L 18.890625 -134.9375 L 35.984375 -123.078125 L 35.984375 -103.03125 L 84.046875 -103.03125 Z M 84.046875 -91.640625 "/></g></g></g><g fill="#000000" fill-opacity="1"><g transform="translate(403.003471, 432.064814)"><g><path d="M 95.0625 -91.640625 L -0.953125 -91.640625 L -0.953125 -103.03125 L 95.0625 -103.03125 Z M 87.171875 -57.546875 C 87.171875 -53.804688 84.925781 -49.597656 80.4375 -44.921875 C 76.632812 -40.929688 72.644531 -37.953125 68.46875 -35.984375 L 54.21875 -52.140625 C 58.53125 -52.515625 62.613281 -54.097656 66.46875 -56.890625 C 70.90625 -60.046875 73.125 -63.648438 73.125 -67.703125 C 73.125 -69.859375 71.726562 -71.695312 68.9375 -73.21875 C 66.53125 -74.613281 64.160156 -75.3125 61.828125 -75.3125 C 56.953125 -75.3125 51.726562 -72.96875 46.15625 -68.28125 C 34.820312 -58.78125 29.15625 -48.269531 29.15625 -36.75 L 29.15625 3.515625 L 10.921875 -5.984375 L 10.921875 -76.25 L 29.34375 -76.25 L 29.34375 -69.03125 C 32.0625 -71.757812 37.695312 -74.609375 46.25 -77.578125 C 50.425781 -79.035156 54.726562 -79.765625 59.15625 -79.765625 C 68.34375 -79.765625 76.128906 -76.253906 82.515625 -69.234375 C 85.617188 -65.804688 87.171875 -61.910156 87.171875 -57.546875 Z M 87.171875 -57.546875 "/></g></g></g><g fill="#000000" fill-opacity="1"><g transform="translate(498.483924, 432.064814)"><g><path d="M 92.78125 -91.640625 L 29.53125 -91.640625 L 29.53125 -76.4375 C 29.78125 -76.4375 30.03125 -76.3125 30.28125 -76.0625 C 30.539062 -75.8125 30.765625 -75.6875 30.953125 -75.6875 C 30.453125 -75.6875 30.171875 -75.71875 30.109375 -75.78125 C 30.109375 -76.09375 34.820312 -77.101562 44.25 -78.8125 C 47.726562 -79.445312 51.179688 -79.765625 54.609375 -79.765625 C 68.847656 -79.765625 77.992188 -75.773438 82.046875 -67.796875 C 84.765625 -62.484375 86.125 -51.753906 86.125 -35.609375 L 86.125 0.953125 C 84.800781 0.441406 79.769531 -1.613281 71.03125 -5.21875 C 71.03125 -7.25 70.617188 -8.546875 69.796875 -9.109375 C 66.441406 -7.148438 63.6875 -5.664062 61.53125 -4.65625 C 54.695312 -1.425781 46.753906 0.1875 37.703125 0.1875 C 25.234375 0.1875 15.609375 -3.734375 8.828125 -11.578125 C 5.535156 -15.378906 3.890625 -19.625 3.890625 -24.3125 C 3.890625 -29.5625 6.488281 -34.785156 11.6875 -39.984375 C 21.75 -50.046875 34.25 -55.078125 49.1875 -55.078125 C 58.238281 -55.078125 65.519531 -52.988281 71.03125 -48.8125 L 71.03125 -57.546875 C 68.25 -61.085938 65.539062 -63.457031 62.90625 -64.65625 C 60.28125 -65.863281 56.691406 -66.40625 52.140625 -66.28125 C 41.941406 -66.09375 32.601562 -64.226562 24.125 -60.6875 C 20.320312 -59.101562 16.617188 -57.675781 13.015625 -56.40625 L 13.015625 -63.4375 C 13.835938 -64.132812 15.039062 -65.175781 16.625 -66.5625 C 16.875 -66.882812 17.03125 -67.078125 17.09375 -67.140625 L 17.09375 -91.640625 L -2.375 -91.640625 L -2.375 -103.03125 L 92.78125 -103.03125 Z M 71.03125 -31.53125 C 71.03125 -34.3125 67.707031 -36.8125 61.0625 -39.03125 C 55.550781 -40.863281 50.960938 -41.78125 47.296875 -41.78125 C 33.929688 -41.78125 23.226562 -36.96875 15.1875 -27.34375 C 11.957031 -23.488281 10.34375 -20.328125 10.34375 -17.859375 C 11.675781 -13.234375 16.898438 -10.921875 26.015625 -10.921875 C 37.796875 -10.921875 48.5625 -13.863281 58.3125 -19.75 C 66.789062 -24.875 71.03125 -28.800781 71.03125 -31.53125 Z M 71.03125 -31.53125 "/></g></g></g><g fill="#000000" fill-opacity="1"><g transform="translate(593.014823, 432.064814)"><g><path d="M 101.140625 -91.640625 L -0.953125 -91.640625 L -0.953125 -103.03125 L 101.140625 -103.03125 Z M 80.71875 -49.953125 C 80.71875 -65.140625 73.53125 -72.734375 59.15625 -72.734375 C 48.519531 -72.734375 39.628906 -67.164062 32.484375 -56.03125 C 26.148438 -46.15625 22.984375 -35.644531 22.984375 -24.5 L 22.984375 3.140625 L 7.40625 -5.03125 L 7.40625 -76.4375 L 23.734375 -76.4375 L 23.734375 -65.140625 L 32.1875 -71.5 C 39.65625 -77.132812 47.539062 -79.953125 55.84375 -79.953125 C 67.101562 -79.953125 76.441406 -75.585938 83.859375 -66.859375 C 90.816406 -58.628906 94.296875 -48.785156 94.296875 -37.328125 C 94.296875 -22.953125 88.21875 -9.148438 76.0625 4.078125 L 57.734375 -7.40625 C 63.429688 -13.039062 68.273438 -18.234375 72.265625 -22.984375 C 77.898438 -29.691406 80.71875 -38.679688 80.71875 -49.953125 Z M 80.71875 -49.953125 "/></g></g></g><g fill="#000000" fill-opacity="1"><g transform="translate(694.76233, 432.064814)"><g><path d="M 98.765625 15.390625 C 98.765625 27.160156 93.066406 33.046875 81.671875 33.046875 C 76.609375 33.046875 69.265625 30.640625 59.640625 25.828125 C 49.003906 20.515625 40.078125 17.859375 32.859375 17.859375 C 17.347656 17.859375 2.722656 23.96875 -11.015625 36.1875 C -17.597656 42.070312 -22.757812 49.003906 -26.5 56.984375 C -26.75 55.960938 -26.875 54.347656 -26.875 52.140625 C -26.875 44.535156 -24.59375 36.96875 -20.03125 29.4375 C -15.851562 22.476562 -10.441406 16.65625 -3.796875 11.96875 C 3.671875 6.707031 12.1875 4.078125 21.75 4.078125 C 28.332031 4.078125 34.0625 5.1875 38.9375 7.40625 C 41.53125 8.613281 46.53125 11.71875 53.9375 16.71875 C 60.269531 21.019531 65.113281 23.171875 68.46875 23.171875 C 76.820312 23.171875 83.46875 19.71875 88.40625 12.8125 C 90.5625 9.84375 91.640625 6.929688 91.640625 4.078125 C 91.640625 -0.921875 90.117188 -5.113281 87.078125 -8.5 C 84.035156 -11.882812 80.046875 -13.578125 75.109375 -13.578125 C 70.554688 -13.578125 63.054688 -11.28125 52.609375 -6.6875 C 42.160156 -2.101562 34.660156 0.1875 30.109375 0.1875 C 26.742188 0.1875 22.691406 -1.488281 17.953125 -4.84375 C 8.078125 -11.875 3.140625 -18.425781 3.140625 -24.5 C 3.140625 -27.851562 5.003906 -30.925781 8.734375 -33.71875 C 12.085938 -36.3125 15.539062 -37.765625 19.09375 -38.078125 L 19.28125 -39.125 L 14.625 -45.671875 C 12.03125 -49.347656 10.734375 -53.304688 10.734375 -57.546875 C 10.734375 -72.109375 22.632812 -79.390625 46.4375 -79.390625 C 47.132812 -79.515625 47.609375 -80.082031 47.859375 -81.09375 L 47.859375 -91.640625 L -1.328125 -91.640625 L -1.328125 -103.03125 L 96.296875 -103.03125 L 96.296875 -91.640625 L 62.578125 -91.640625 L 62.578125 -75.6875 C 62.578125 -72.707031 63.429688 -70.867188 65.140625 -70.171875 C 66.222656 -70.171875 67.585938 -71.15625 69.234375 -73.125 L 72.84375 -77.484375 C 73.789062 -78.441406 75.5 -79.078125 77.96875 -79.390625 C 81.957031 -79.390625 85.753906 -77.109375 89.359375 -72.546875 C 91.003906 -70.460938 92.082031 -68.375 92.59375 -66.28125 L 82.625 -54.890625 C 82.488281 -57.796875 81.882812 -60.453125 80.8125 -62.859375 C 79.351562 -66.085938 77.453125 -67.703125 75.109375 -67.703125 C 74.222656 -67.703125 73.175781 -67.289062 71.96875 -66.46875 C 70.769531 -65.644531 70.171875 -64.820312 70.171875 -64 C 70.171875 -63.050781 70.582031 -61.914062 71.40625 -60.59375 C 72.363281 -59.007812 72.90625 -58.023438 73.03125 -57.640625 C 73.46875 -56.179688 73.6875 -54.347656 73.6875 -52.140625 C 73.6875 -43.585938 70.207031 -37.789062 63.25 -34.75 C 58.625 -32.726562 51.34375 -31.71875 41.40625 -31.71875 C 28.738281 -31.71875 20.097656 -28.898438 15.484375 -23.265625 C 13.640625 -21.046875 12.75 -19.242188 12.8125 -17.859375 C 12.882812 -15.953125 13.835938 -14.285156 15.671875 -12.859375 C 17.503906 -11.441406 19.398438 -10.734375 21.359375 -10.734375 C 24.972656 -10.734375 31.90625 -13.234375 42.15625 -18.234375 C 54.25 -24.117188 64 -27.125 71.40625 -27.25 C 78.1875 -27.375 83.882812 -24.367188 88.5 -18.234375 C 92.238281 -13.359375 94.929688 -7.15625 96.578125 0.375 C 98.035156 7.019531 98.765625 12.023438 98.765625 15.390625 Z M 61.828125 -60.875 C 61.828125 -68.53125 57.742188 -72.359375 49.578125 -72.359375 C 42.984375 -72.359375 36.742188 -70.046875 30.859375 -65.421875 C 24.523438 -60.484375 21.359375 -54.820312 21.359375 -48.4375 C 21.359375 -44.945312 22.703125 -41.96875 25.390625 -39.5 C 28.085938 -37.03125 31.175781 -35.796875 34.65625 -35.796875 C 38.269531 -35.734375 42.351562 -37.03125 46.90625 -39.6875 C 50.957031 -42.03125 54.316406 -44.753906 56.984375 -47.859375 C 60.210938 -51.660156 61.828125 -56 61.828125 -60.875 Z M 61.828125 -60.875 "/></g></g></g></svg>