<svg xmlns="http://www.w3.org/2000/svg" xmlns:xlink="http://www.w3.org/1999/xlink" width="360" zoomAndPan="magnify" viewBox="0 0 270 74.999997" height="100" preserveAspectRatio="xMidYMid meet" version="1.0"><defs><clipPath id="c7f2166d43"><path d="M 0 69.824219 L 90 69.824219 L 90 74.824219 L 0 74.824219 Z M 0 69.824219 " clip-rule="nonzero"/></clipPath><clipPath id="d1eb1dc6b2"><path d="M 0 72 L 3 72 L 3 74.824219 L 0 74.824219 Z M 0 72 " clip-rule="nonzero"/></clipPath><clipPath id="f9a5e3c96a"><path d="M 16 72 L 21 72 L 21 74.824219 L 16 74.824219 Z M 16 72 " clip-rule="nonzero"/></clipPath><clipPath id="d2f5a6bba3"><path d="M 33 72 L 39 72 L 39 74.824219 L 33 74.824219 Z M 33 72 " clip-rule="nonzero"/></clipPath><clipPath id="c90babb1db"><path d="M 51 72 L 57 72 L 57 74.824219 L 51 74.824219 Z M 51 72 " clip-rule="nonzero"/></clipPath><clipPath id="e483aec011"><path d="M 69 72 L 74 72 L 74 74.824219 L 69 74.824219 Z M 69 72 " clip-rule="nonzero"/></clipPath><clipPath id="4e2d0b2b19"><path d="M 87 72 L 90 72 L 90 74.824219 L 87 74.824219 Z M 87 72 " clip-rule="nonzero"/></clipPath><clipPath id="a2da39b244"><path d="M 90 69.824219 L 180 69.824219 L 180 74.824219 L 90 74.824219 Z M 90 69.824219 " clip-rule="nonzero"/></clipPath><clipPath id="c9e1be3ba9"><path d="M 90 72 L 93 72 L 93 74.824219 L 90 74.824219 Z M 90 72 " clip-rule="nonzero"/></clipPath><clipPath id="a8c5e618ec"><path d="M 106 72 L 111 72 L 111 74.824219 L 106 74.824219 Z M 106 72 " clip-rule="nonzero"/></clipPath><clipPath id="c21f2e144f"><path d="M 123 72 L 129 72 L 129 74.824219 L 123 74.824219 Z M 123 72 " clip-rule="nonzero"/></clipPath><clipPath id="e481acdde6"><path d="M 141 72 L 147 72 L 147 74.824219 L 141 74.824219 Z M 141 72 " clip-rule="nonzero"/></clipPath><clipPath id="7df30eba6b"><path d="M 159 72 L 164 72 L 164 74.824219 L 159 74.824219 Z M 159 72 " clip-rule="nonzero"/></clipPath><clipPath id="902125fc91"><path d="M 177 72 L 180 72 L 180 74.824219 L 177 74.824219 Z M 177 72 " clip-rule="nonzero"/></clipPath><clipPath id="530c8c8425"><path d="M 180 69.824219 L 270 69.824219 L 270 74.824219 L 180 74.824219 Z M 180 69.824219 " clip-rule="nonzero"/></clipPath><clipPath id="3b62303521"><path d="M 180 72 L 183 72 L 183 74.824219 L 180 74.824219 Z M 180 72 " clip-rule="nonzero"/></clipPath><clipPath id="dc7e6d2073"><path d="M 196 72 L 201 72 L 201 74.824219 L 196 74.824219 Z M 196 72 " clip-rule="nonzero"/></clipPath><clipPath id="03c43ca8d4"><path d="M 213 72 L 219 72 L 219 74.824219 L 213 74.824219 Z M 213 72 " clip-rule="nonzero"/></clipPath><clipPath id="2c60108aa2"><path d="M 231 72 L 237 72 L 237 74.824219 L 231 74.824219 Z M 231 72 " clip-rule="nonzero"/></clipPath><clipPath id="ff5d99a6ea"><path d="M 249 72 L 254 72 L 254 74.824219 L 249 74.824219 Z M 249 72 " clip-rule="nonzero"/></clipPath><clipPath id="274d629e8c"><path d="M 267 72 L 270 72 L 270 74.824219 L 267 74.824219 Z M 267 72 " clip-rule="nonzero"/></clipPath></defs><g clip-path="url(#c7f2166d43)"><path fill="#f3e9d7" d="M 5.480469 74.105469 C 5.371094 74.105469 5.265625 74.0625 5.1875 73.984375 L 1.542969 70.460938 C 1.316406 70.242188 1.023438 70.132812 0.726562 70.132812 L 0.726562 70.851562 C 0.835938 70.851562 0.941406 70.886719 1.019531 70.964844 L 4.664062 74.492188 C 4.882812 74.703125 5.171875 74.820312 5.480469 74.820312 C 5.953125 74.820312 6.363281 74.554688 6.542969 74.132812 C 6.726562 73.707031 6.628906 73.238281 6.292969 72.914062 L 4.539062 71.21875 C 4.355469 71.042969 4.425781 70.839844 4.449219 70.78125 C 4.472656 70.722656 4.574219 70.53125 4.832031 70.53125 C 4.941406 70.53125 5.042969 70.574219 5.125 70.652344 L 8.769531 74.175781 C 8.984375 74.386719 9.273438 74.503906 9.582031 74.503906 C 9.890625 74.503906 10.179688 74.386719 10.398438 74.175781 L 14.042969 70.652344 C 14.121094 70.574219 14.226562 70.53125 14.335938 70.53125 C 14.59375 70.53125 14.691406 70.722656 14.71875 70.78125 C 14.742188 70.839844 14.808594 71.042969 14.628906 71.21875 L 12.871094 72.914062 C 12.535156 73.238281 12.441406 73.707031 12.625 74.132812 C 12.804688 74.554688 13.210938 74.820312 13.6875 74.820312 C 13.996094 74.820312 14.285156 74.703125 14.503906 74.492188 L 18.144531 70.964844 C 18.300781 70.8125 18.574219 70.8125 18.734375 70.964844 L 22.375 74.492188 C 22.59375 74.703125 22.882812 74.820312 23.191406 74.820312 C 23.664062 74.820312 24.074219 74.554688 24.253906 74.132812 C 24.4375 73.707031 24.339844 73.238281 24.003906 72.914062 L 22.25 71.21875 C 22.066406 71.042969 22.136719 70.839844 22.160156 70.78125 C 22.1875 70.722656 22.285156 70.53125 22.542969 70.53125 C 22.652344 70.53125 22.757812 70.574219 22.835938 70.652344 L 26.480469 74.175781 C 26.929688 74.613281 27.660156 74.613281 28.109375 74.175781 L 31.753906 70.652344 C 31.832031 70.574219 31.9375 70.53125 32.046875 70.53125 C 32.304688 70.53125 32.402344 70.722656 32.429688 70.78125 C 32.453125 70.839844 32.523438 71.042969 32.339844 71.21875 L 30.585938 72.914062 C 30.25 73.238281 30.152344 73.707031 30.335938 74.132812 C 30.515625 74.554688 30.925781 74.820312 31.398438 74.820312 C 31.707031 74.820312 31.996094 74.703125 32.214844 74.492188 L 35.859375 70.964844 C 36.015625 70.8125 36.289062 70.8125 36.445312 70.964844 L 40.089844 74.492188 C 40.304688 74.703125 40.597656 74.820312 40.902344 74.820312 C 41.378906 74.820312 41.785156 74.554688 41.96875 74.132812 C 42.148438 73.707031 42.054688 73.238281 41.71875 72.914062 L 39.964844 71.21875 C 39.78125 71.042969 39.847656 70.839844 39.871094 70.78125 C 39.898438 70.722656 39.996094 70.53125 40.253906 70.53125 C 40.367188 70.53125 40.46875 70.574219 40.546875 70.652344 L 44.195312 74.175781 C 44.640625 74.613281 45.371094 74.613281 45.820312 74.175781 L 49.464844 70.652344 C 49.546875 70.574219 49.648438 70.53125 49.761719 70.53125 C 50.015625 70.53125 50.117188 70.722656 50.140625 70.78125 C 50.167969 70.839844 50.234375 71.042969 50.050781 71.21875 L 48.296875 72.914062 C 47.960938 73.238281 47.863281 73.707031 48.046875 74.132812 C 48.230469 74.554688 48.636719 74.820312 49.109375 74.820312 C 49.417969 74.820312 49.707031 74.703125 49.925781 74.492188 L 53.570312 70.964844 C 53.726562 70.8125 54 70.8125 54.15625 70.964844 L 57.800781 74.492188 C 58.019531 74.703125 58.308594 74.820312 58.617188 74.820312 C 59.089844 74.820312 59.496094 74.554688 59.679688 74.132812 C 59.859375 73.707031 59.765625 73.238281 59.429688 72.914062 L 57.675781 71.21875 C 57.492188 71.042969 57.5625 70.839844 57.585938 70.78125 C 57.609375 70.722656 57.710938 70.53125 57.964844 70.53125 C 58.078125 70.53125 58.179688 70.574219 58.261719 70.652344 L 61.90625 74.175781 C 62.355469 74.613281 63.085938 74.613281 63.535156 74.175781 L 67.179688 70.652344 C 67.257812 70.574219 67.363281 70.53125 67.472656 70.53125 C 67.726562 70.53125 67.828125 70.722656 67.855469 70.78125 C 67.878906 70.839844 67.945312 71.042969 67.765625 71.21875 L 66.007812 72.914062 C 65.671875 73.238281 65.578125 73.707031 65.757812 74.132812 C 65.941406 74.554688 66.347656 74.820312 66.824219 74.820312 C 67.132812 74.820312 67.421875 74.703125 67.636719 74.492188 L 71.28125 70.964844 C 71.4375 70.8125 71.710938 70.8125 71.867188 70.964844 L 75.511719 74.492188 C 75.730469 74.703125 76.019531 74.820312 76.328125 74.820312 C 76.800781 74.820312 77.210938 74.554688 77.390625 74.132812 C 77.574219 73.707031 77.476562 73.238281 77.140625 72.914062 L 75.386719 71.21875 C 75.203125 71.042969 75.273438 70.839844 75.296875 70.78125 C 75.324219 70.722656 75.421875 70.53125 75.679688 70.53125 C 75.789062 70.53125 75.894531 70.574219 75.972656 70.652344 L 79.617188 74.175781 C 79.832031 74.386719 80.125 74.503906 80.429688 74.503906 C 80.738281 74.503906 81.027344 74.386719 81.246094 74.175781 L 84.890625 70.652344 C 84.96875 70.574219 85.074219 70.53125 85.183594 70.53125 C 85.441406 70.53125 85.539062 70.722656 85.566406 70.78125 C 85.589844 70.839844 85.65625 71.042969 85.476562 71.21875 L 83.722656 72.914062 C 83.386719 73.238281 83.289062 73.707031 83.472656 74.132812 C 83.652344 74.554688 84.058594 74.820312 84.535156 74.820312 C 84.84375 74.820312 85.132812 74.703125 85.351562 74.492188 L 88.996094 70.964844 C 89.074219 70.886719 89.179688 70.851562 89.289062 70.851562 L 89.289062 70.132812 C 88.992188 70.132812 88.695312 70.242188 88.472656 70.460938 L 84.828125 73.984375 C 84.75 74.0625 84.644531 74.105469 84.535156 74.105469 C 84.277344 74.105469 84.179688 73.914062 84.152344 73.859375 C 84.128906 73.800781 84.058594 73.59375 84.242188 73.421875 L 85.996094 71.722656 C 86.332031 71.398438 86.429688 70.929688 86.246094 70.507812 C 86.066406 70.082031 85.65625 69.820312 85.183594 69.820312 C 84.875 69.820312 84.585938 69.933594 84.367188 70.144531 L 80.726562 73.671875 C 80.566406 73.824219 80.292969 73.824219 80.136719 73.671875 L 76.496094 70.144531 C 76.277344 69.933594 75.988281 69.820312 75.679688 69.820312 C 75.203125 69.820312 74.796875 70.082031 74.617188 70.507812 C 74.433594 70.929688 74.527344 71.398438 74.863281 71.722656 L 76.621094 73.421875 C 76.800781 73.59375 76.734375 73.800781 76.710938 73.859375 C 76.683594 73.914062 76.585938 74.105469 76.328125 74.105469 C 76.21875 74.105469 76.113281 74.0625 76.035156 73.984375 L 72.390625 70.460938 C 72.171875 70.25 71.882812 70.132812 71.574219 70.132812 C 71.265625 70.132812 70.976562 70.25 70.761719 70.460938 L 67.117188 73.984375 C 67.035156 74.0625 66.933594 74.105469 66.824219 74.105469 C 66.566406 74.105469 66.464844 73.914062 66.441406 73.859375 C 66.417969 73.800781 66.347656 73.59375 66.53125 73.421875 L 68.285156 71.722656 C 68.621094 71.398438 68.71875 70.929688 68.535156 70.507812 C 68.355469 70.082031 67.945312 69.820312 67.472656 69.820312 C 67.164062 69.820312 66.875 69.933594 66.65625 70.144531 L 63.011719 73.671875 C 62.855469 73.824219 62.582031 73.824219 62.425781 73.671875 L 58.78125 70.144531 C 58.5625 69.933594 58.273438 69.820312 57.964844 69.820312 C 57.492188 69.820312 57.085938 70.082031 56.902344 70.507812 C 56.722656 70.929688 56.816406 71.398438 57.152344 71.722656 L 58.90625 73.421875 C 59.089844 73.59375 59.023438 73.800781 58.996094 73.859375 C 58.972656 73.914062 58.871094 74.105469 58.617188 74.105469 C 58.503906 74.105469 58.402344 74.0625 58.324219 73.984375 L 54.675781 70.460938 C 54.460938 70.25 54.171875 70.132812 53.863281 70.132812 C 53.554688 70.132812 53.265625 70.25 53.050781 70.460938 L 49.402344 73.984375 C 49.324219 74.0625 49.222656 74.105469 49.109375 74.105469 C 48.855469 74.105469 48.753906 73.914062 48.726562 73.859375 C 48.703125 73.800781 48.636719 73.59375 48.820312 73.421875 L 50.574219 71.722656 C 50.910156 71.398438 51.003906 70.929688 50.824219 70.507812 C 50.640625 70.082031 50.234375 69.820312 49.761719 69.820312 C 49.453125 69.820312 49.164062 69.933594 48.945312 70.144531 L 45.300781 73.671875 C 45.144531 73.824219 44.871094 73.824219 44.714844 73.671875 L 41.070312 70.144531 C 40.851562 69.933594 40.5625 69.820312 40.253906 69.820312 C 39.78125 69.820312 39.371094 70.082031 39.191406 70.507812 C 39.007812 70.929688 39.105469 71.398438 39.441406 71.722656 L 41.195312 73.421875 C 41.378906 73.59375 41.308594 73.800781 41.285156 73.859375 C 41.261719 73.914062 41.160156 74.105469 40.902344 74.105469 C 40.792969 74.105469 40.691406 74.0625 40.609375 73.984375 L 36.964844 70.460938 C 36.75 70.25 36.460938 70.132812 36.152344 70.132812 C 35.84375 70.132812 35.554688 70.25 35.335938 70.460938 L 31.691406 73.984375 C 31.613281 74.0625 31.507812 74.105469 31.398438 74.105469 C 31.140625 74.105469 31.042969 73.914062 31.015625 73.859375 C 30.992188 73.800781 30.925781 73.59375 31.105469 73.421875 L 32.863281 71.722656 C 33.199219 71.398438 33.292969 70.929688 33.109375 70.507812 C 32.929688 70.082031 32.523438 69.820312 32.046875 69.820312 C 31.738281 69.820312 31.449219 69.933594 31.234375 70.144531 L 27.589844 73.671875 C 27.433594 73.824219 27.160156 73.824219 27.003906 73.671875 L 23.359375 70.144531 C 23.140625 69.933594 22.851562 69.820312 22.542969 69.820312 C 22.066406 69.820312 21.660156 70.082031 21.480469 70.507812 C 21.296875 70.929688 21.394531 71.398438 21.730469 71.722656 L 23.484375 73.421875 C 23.664062 73.59375 23.597656 73.800781 23.574219 73.859375 C 23.546875 73.914062 23.449219 74.105469 23.191406 74.105469 C 23.082031 74.105469 22.976562 74.0625 22.898438 73.984375 L 19.253906 70.460938 C 19.035156 70.25 18.746094 70.132812 18.4375 70.132812 C 18.132812 70.132812 17.839844 70.25 17.625 70.460938 L 13.980469 73.984375 C 13.902344 74.0625 13.796875 74.105469 13.6875 74.105469 C 13.429688 74.105469 13.332031 73.914062 13.304688 73.859375 C 13.28125 73.800781 13.210938 73.59375 13.394531 73.421875 L 15.148438 71.722656 C 15.484375 71.398438 15.582031 70.929688 15.398438 70.507812 C 15.21875 70.082031 14.808594 69.820312 14.335938 69.820312 C 14.027344 69.820312 13.738281 69.933594 13.519531 70.144531 L 9.875 73.671875 C 9.71875 73.824219 9.445312 73.824219 9.289062 73.671875 L 5.644531 70.144531 C 5.429688 69.933594 5.140625 69.820312 4.832031 69.820312 C 4.355469 69.820312 3.949219 70.082031 3.765625 70.507812 C 3.585938 70.929688 3.679688 71.398438 4.015625 71.722656 L 5.773438 73.421875 C 5.953125 73.59375 5.886719 73.800781 5.863281 73.859375 C 5.835938 73.914062 5.734375 74.105469 5.480469 74.105469 " fill-opacity="1" fill-rule="nonzero"/></g><g clip-path="url(#d1eb1dc6b2)"><path fill="#f3e9d7" d="M 0.726562 74.460938 L 2.941406 74.460938 L 0.726562 72.320312 Z M 0.726562 74.460938 " fill-opacity="1" fill-rule="nonzero"/></g><path fill="#f3e9d7" d="M 11.796875 70.175781 L 7.371094 70.175781 L 9.582031 72.320312 Z M 11.796875 70.175781 " fill-opacity="1" fill-rule="nonzero"/><g clip-path="url(#f9a5e3c96a)"><path fill="#f3e9d7" d="M 18.4375 72.320312 L 16.226562 74.460938 L 20.652344 74.460938 Z M 18.4375 72.320312 " fill-opacity="1" fill-rule="nonzero"/></g><path fill="#f3e9d7" d="M 29.507812 70.175781 L 25.082031 70.175781 L 27.296875 72.320312 Z M 29.507812 70.175781 " fill-opacity="1" fill-rule="nonzero"/><g clip-path="url(#d2f5a6bba3)"><path fill="#f3e9d7" d="M 36.152344 72.320312 L 33.9375 74.460938 L 38.367188 74.460938 Z M 36.152344 72.320312 " fill-opacity="1" fill-rule="nonzero"/></g><path fill="#f3e9d7" d="M 47.222656 70.175781 L 42.792969 70.175781 L 45.007812 72.320312 Z M 47.222656 70.175781 " fill-opacity="1" fill-rule="nonzero"/><g clip-path="url(#c90babb1db)"><path fill="#f3e9d7" d="M 53.863281 72.320312 L 51.648438 74.460938 L 56.078125 74.460938 Z M 53.863281 72.320312 " fill-opacity="1" fill-rule="nonzero"/></g><path fill="#f3e9d7" d="M 64.933594 70.175781 L 60.503906 70.175781 L 62.71875 72.320312 Z M 64.933594 70.175781 " fill-opacity="1" fill-rule="nonzero"/><g clip-path="url(#e483aec011)"><path fill="#f3e9d7" d="M 71.574219 72.320312 L 69.363281 74.460938 L 73.789062 74.460938 Z M 71.574219 72.320312 " fill-opacity="1" fill-rule="nonzero"/></g><path fill="#f3e9d7" d="M 82.644531 70.175781 L 78.21875 70.175781 L 80.429688 72.320312 Z M 82.644531 70.175781 " fill-opacity="1" fill-rule="nonzero"/><g clip-path="url(#4e2d0b2b19)"><path fill="#f3e9d7" d="M 89.289062 72.320312 L 87.074219 74.460938 L 89.289062 74.460938 Z M 89.289062 72.320312 " fill-opacity="1" fill-rule="nonzero"/></g><g clip-path="url(#a2da39b244)"><path fill="#f3e9d7" d="M 95.480469 74.105469 C 95.371094 74.105469 95.265625 74.0625 95.1875 73.984375 L 91.542969 70.460938 C 91.316406 70.242188 91.023438 70.132812 90.726562 70.132812 L 90.726562 70.851562 C 90.835938 70.851562 90.941406 70.886719 91.019531 70.964844 L 94.664062 74.492188 C 94.882812 74.703125 95.171875 74.820312 95.480469 74.820312 C 95.953125 74.820312 96.363281 74.554688 96.542969 74.132812 C 96.726562 73.707031 96.628906 73.238281 96.292969 72.914062 L 94.539062 71.21875 C 94.355469 71.042969 94.425781 70.839844 94.449219 70.78125 C 94.472656 70.722656 94.574219 70.53125 94.832031 70.53125 C 94.941406 70.53125 95.042969 70.574219 95.125 70.652344 L 98.769531 74.175781 C 98.984375 74.386719 99.273438 74.503906 99.582031 74.503906 C 99.890625 74.503906 100.179688 74.386719 100.398438 74.175781 L 104.042969 70.652344 C 104.121094 70.574219 104.226562 70.53125 104.335938 70.53125 C 104.59375 70.53125 104.691406 70.722656 104.71875 70.78125 C 104.742188 70.839844 104.808594 71.042969 104.628906 71.21875 L 102.871094 72.914062 C 102.535156 73.238281 102.441406 73.707031 102.625 74.132812 C 102.804688 74.554688 103.210938 74.820312 103.6875 74.820312 C 103.996094 74.820312 104.285156 74.703125 104.503906 74.492188 L 108.144531 70.964844 C 108.300781 70.8125 108.574219 70.8125 108.734375 70.964844 L 112.375 74.492188 C 112.59375 74.703125 112.882812 74.820312 113.191406 74.820312 C 113.664062 74.820312 114.074219 74.554688 114.253906 74.132812 C 114.4375 73.707031 114.339844 73.238281 114.003906 72.914062 L 112.25 71.21875 C 112.066406 71.042969 112.136719 70.839844 112.160156 70.78125 C 112.1875 70.722656 112.285156 70.53125 112.542969 70.53125 C 112.652344 70.53125 112.757812 70.574219 112.835938 70.652344 L 116.480469 74.175781 C 116.929688 74.613281 117.660156 74.613281 118.109375 74.175781 L 121.753906 70.652344 C 121.832031 70.574219 121.9375 70.53125 122.046875 70.53125 C 122.304688 70.53125 122.402344 70.722656 122.429688 70.78125 C 122.453125 70.839844 122.523438 71.042969 122.339844 71.21875 L 120.585938 72.914062 C 120.25 73.238281 120.152344 73.707031 120.335938 74.132812 C 120.515625 74.554688 120.925781 74.820312 121.398438 74.820312 C 121.707031 74.820312 121.996094 74.703125 122.214844 74.492188 L 125.859375 70.964844 C 126.015625 70.8125 126.289062 70.8125 126.445312 70.964844 L 130.089844 74.492188 C 130.304688 74.703125 130.597656 74.820312 130.902344 74.820312 C 131.378906 74.820312 131.785156 74.554688 131.96875 74.132812 C 132.148438 73.707031 132.054688 73.238281 131.71875 72.914062 L 129.964844 71.21875 C 129.78125 71.042969 129.847656 70.839844 129.871094 70.78125 C 129.898438 70.722656 129.996094 70.53125 130.253906 70.53125 C 130.367188 70.53125 130.46875 70.574219 130.546875 70.652344 L 134.195312 74.175781 C 134.640625 74.613281 135.371094 74.613281 135.820312 74.175781 L 139.464844 70.652344 C 139.546875 70.574219 139.648438 70.53125 139.761719 70.53125 C 140.015625 70.53125 140.117188 70.722656 140.140625 70.78125 C 140.167969 70.839844 140.234375 71.042969 140.050781 71.21875 L 138.296875 72.914062 C 137.960938 73.238281 137.863281 73.707031 138.046875 74.132812 C 138.230469 74.554688 138.636719 74.820312 139.109375 74.820312 C 139.417969 74.820312 139.707031 74.703125 139.925781 74.492188 L 143.570312 70.964844 C 143.726562 70.8125 144 70.8125 144.15625 70.964844 L 147.800781 74.492188 C 148.019531 74.703125 148.308594 74.820312 148.617188 74.820312 C 149.089844 74.820312 149.496094 74.554688 149.679688 74.132812 C 149.859375 73.707031 149.765625 73.238281 149.429688 72.914062 L 147.675781 71.21875 C 147.492188 71.042969 147.5625 70.839844 147.585938 70.78125 C 147.609375 70.722656 147.710938 70.53125 147.964844 70.53125 C 148.078125 70.53125 148.179688 70.574219 148.261719 70.652344 L 151.90625 74.175781 C 152.355469 74.613281 153.085938 74.613281 153.535156 74.175781 L 157.179688 70.652344 C 157.257812 70.574219 157.363281 70.53125 157.472656 70.53125 C 157.726562 70.53125 157.828125 70.722656 157.855469 70.78125 C 157.878906 70.839844 157.945312 71.042969 157.765625 71.21875 L 156.007812 72.914062 C 155.671875 73.238281 155.578125 73.707031 155.757812 74.132812 C 155.941406 74.554688 156.347656 74.820312 156.824219 74.820312 C 157.132812 74.820312 157.421875 74.703125 157.636719 74.492188 L 161.28125 70.964844 C 161.4375 70.8125 161.710938 70.8125 161.867188 70.964844 L 165.511719 74.492188 C 165.730469 74.703125 166.019531 74.820312 166.328125 74.820312 C 166.800781 74.820312 167.210938 74.554688 167.390625 74.132812 C 167.574219 73.707031 167.476562 73.238281 167.140625 72.914062 L 165.386719 71.21875 C 165.203125 71.042969 165.273438 70.839844 165.296875 70.78125 C 165.324219 70.722656 165.421875 70.53125 165.679688 70.53125 C 165.789062 70.53125 165.894531 70.574219 165.972656 70.652344 L 169.617188 74.175781 C 169.832031 74.386719 170.125 74.503906 170.429688 74.503906 C 170.738281 74.503906 171.027344 74.386719 171.246094 74.175781 L 174.890625 70.652344 C 174.96875 70.574219 175.074219 70.53125 175.183594 70.53125 C 175.441406 70.53125 175.539062 70.722656 175.566406 70.78125 C 175.589844 70.839844 175.65625 71.042969 175.476562 71.21875 L 173.722656 72.914062 C 173.386719 73.238281 173.289062 73.707031 173.472656 74.132812 C 173.652344 74.554688 174.058594 74.820312 174.535156 74.820312 C 174.84375 74.820312 175.132812 74.703125 175.351562 74.492188 L 178.996094 70.964844 C 179.074219 70.886719 179.179688 70.851562 179.289062 70.851562 L 179.289062 70.132812 C 178.992188 70.132812 178.695312 70.242188 178.472656 70.460938 L 174.828125 73.984375 C 174.75 74.0625 174.644531 74.105469 174.535156 74.105469 C 174.277344 74.105469 174.179688 73.914062 174.152344 73.859375 C 174.128906 73.800781 174.058594 73.59375 174.242188 73.421875 L 175.996094 71.722656 C 176.332031 71.398438 176.429688 70.929688 176.246094 70.507812 C 176.066406 70.082031 175.65625 69.820312 175.183594 69.820312 C 174.875 69.820312 174.585938 69.933594 174.367188 70.144531 L 170.726562 73.671875 C 170.566406 73.824219 170.292969 73.824219 170.136719 73.671875 L 166.496094 70.144531 C 166.277344 69.933594 165.988281 69.820312 165.679688 69.820312 C 165.203125 69.820312 164.796875 70.082031 164.617188 70.507812 C 164.433594 70.929688 164.527344 71.398438 164.863281 71.722656 L 166.621094 73.421875 C 166.800781 73.59375 166.734375 73.800781 166.710938 73.859375 C 166.683594 73.914062 166.585938 74.105469 166.328125 74.105469 C 166.21875 74.105469 166.113281 74.0625 166.035156 73.984375 L 162.390625 70.460938 C 162.171875 70.25 161.882812 70.132812 161.574219 70.132812 C 161.265625 70.132812 160.976562 70.25 160.761719 70.460938 L 157.117188 73.984375 C 157.035156 74.0625 156.933594 74.105469 156.824219 74.105469 C 156.566406 74.105469 156.464844 73.914062 156.441406 73.859375 C 156.417969 73.800781 156.347656 73.59375 156.53125 73.421875 L 158.285156 71.722656 C 158.621094 71.398438 158.71875 70.929688 158.535156 70.507812 C 158.355469 70.082031 157.945312 69.820312 157.472656 69.820312 C 157.164062 69.820312 156.875 69.933594 156.65625 70.144531 L 153.011719 73.671875 C 152.855469 73.824219 152.582031 73.824219 152.425781 73.671875 L 148.78125 70.144531 C 148.5625 69.933594 148.273438 69.820312 147.964844 69.820312 C 147.492188 69.820312 147.085938 70.082031 146.902344 70.507812 C 146.722656 70.929688 146.816406 71.398438 147.152344 71.722656 L 148.90625 73.421875 C 149.089844 73.59375 149.023438 73.800781 148.996094 73.859375 C 148.972656 73.914062 148.871094 74.105469 148.617188 74.105469 C 148.503906 74.105469 148.402344 74.0625 148.324219 73.984375 L 144.675781 70.460938 C 144.460938 70.25 144.171875 70.132812 143.863281 70.132812 C 143.554688 70.132812 143.265625 70.25 143.050781 70.460938 L 139.402344 73.984375 C 139.324219 74.0625 139.222656 74.105469 139.109375 74.105469 C 138.855469 74.105469 138.753906 73.914062 138.726562 73.859375 C 138.703125 73.800781 138.636719 73.59375 138.820312 73.421875 L 140.574219 71.722656 C 140.910156 71.398438 141.003906 70.929688 140.824219 70.507812 C 140.640625 70.082031 140.234375 69.820312 139.761719 69.820312 C 139.453125 69.820312 139.164062 69.933594 138.945312 70.144531 L 135.300781 73.671875 C 135.144531 73.824219 134.871094 73.824219 134.714844 73.671875 L 131.070312 70.144531 C 130.851562 69.933594 130.5625 69.820312 130.253906 69.820312 C 129.78125 69.820312 129.371094 70.082031 129.191406 70.507812 C 129.007812 70.929688 129.105469 71.398438 129.441406 71.722656 L 131.195312 73.421875 C 131.378906 73.59375 131.308594 73.800781 131.285156 73.859375 C 131.261719 73.914062 131.160156 74.105469 130.902344 74.105469 C 130.792969 74.105469 130.691406 74.0625 130.609375 73.984375 L 126.964844 70.460938 C 126.75 70.25 126.460938 70.132812 126.152344 70.132812 C 125.84375 70.132812 125.554688 70.25 125.335938 70.460938 L 121.691406 73.984375 C 121.613281 74.0625 121.507812 74.105469 121.398438 74.105469 C 121.140625 74.105469 121.042969 73.914062 121.015625 73.859375 C 120.992188 73.800781 120.925781 73.59375 121.105469 73.421875 L 122.863281 71.722656 C 123.199219 71.398438 123.292969 70.929688 123.109375 70.507812 C 122.929688 70.082031 122.523438 69.820312 122.046875 69.820312 C 121.738281 69.820312 121.449219 69.933594 121.234375 70.144531 L 117.589844 73.671875 C 117.433594 73.824219 117.160156 73.824219 117.003906 73.671875 L 113.359375 70.144531 C 113.140625 69.933594 112.851562 69.820312 112.542969 69.820312 C 112.066406 69.820312 111.660156 70.082031 111.480469 70.507812 C 111.296875 70.929688 111.394531 71.398438 111.730469 71.722656 L 113.484375 73.421875 C 113.664062 73.59375 113.597656 73.800781 113.574219 73.859375 C 113.546875 73.914062 113.449219 74.105469 113.191406 74.105469 C 113.082031 74.105469 112.976562 74.0625 112.898438 73.984375 L 109.253906 70.460938 C 109.035156 70.25 108.746094 70.132812 108.4375 70.132812 C 108.132812 70.132812 107.839844 70.25 107.625 70.460938 L 103.980469 73.984375 C 103.902344 74.0625 103.796875 74.105469 103.6875 74.105469 C 103.429688 74.105469 103.332031 73.914062 103.304688 73.859375 C 103.28125 73.800781 103.210938 73.59375 103.394531 73.421875 L 105.148438 71.722656 C 105.484375 71.398438 105.582031 70.929688 105.398438 70.507812 C 105.21875 70.082031 104.808594 69.820312 104.335938 69.820312 C 104.027344 69.820312 103.738281 69.933594 103.519531 70.144531 L 99.875 73.671875 C 99.71875 73.824219 99.445312 73.824219 99.289062 73.671875 L 95.644531 70.144531 C 95.429688 69.933594 95.140625 69.820312 94.832031 69.820312 C 94.355469 69.820312 93.949219 70.082031 93.765625 70.507812 C 93.585938 70.929688 93.679688 71.398438 94.015625 71.722656 L 95.773438 73.421875 C 95.953125 73.59375 95.886719 73.800781 95.863281 73.859375 C 95.835938 73.914062 95.734375 74.105469 95.480469 74.105469 " fill-opacity="1" fill-rule="nonzero"/></g><g clip-path="url(#c9e1be3ba9)"><path fill="#f3e9d7" d="M 90.726562 74.460938 L 92.941406 74.460938 L 90.726562 72.320312 Z M 90.726562 74.460938 " fill-opacity="1" fill-rule="nonzero"/></g><path fill="#f3e9d7" d="M 101.796875 70.175781 L 97.371094 70.175781 L 99.582031 72.320312 Z M 101.796875 70.175781 " fill-opacity="1" fill-rule="nonzero"/><g clip-path="url(#a8c5e618ec)"><path fill="#f3e9d7" d="M 108.4375 72.320312 L 106.226562 74.460938 L 110.652344 74.460938 Z M 108.4375 72.320312 " fill-opacity="1" fill-rule="nonzero"/></g><path fill="#f3e9d7" d="M 119.507812 70.175781 L 115.082031 70.175781 L 117.296875 72.320312 Z M 119.507812 70.175781 " fill-opacity="1" fill-rule="nonzero"/><g clip-path="url(#c21f2e144f)"><path fill="#f3e9d7" d="M 126.152344 72.320312 L 123.9375 74.460938 L 128.367188 74.460938 Z M 126.152344 72.320312 " fill-opacity="1" fill-rule="nonzero"/></g><path fill="#f3e9d7" d="M 137.222656 70.175781 L 132.792969 70.175781 L 135.007812 72.320312 Z M 137.222656 70.175781 " fill-opacity="1" fill-rule="nonzero"/><g clip-path="url(#e481acdde6)"><path fill="#f3e9d7" d="M 143.863281 72.320312 L 141.648438 74.460938 L 146.078125 74.460938 Z M 143.863281 72.320312 " fill-opacity="1" fill-rule="nonzero"/></g><path fill="#f3e9d7" d="M 154.933594 70.175781 L 150.503906 70.175781 L 152.71875 72.320312 Z M 154.933594 70.175781 " fill-opacity="1" fill-rule="nonzero"/><g clip-path="url(#7df30eba6b)"><path fill="#f3e9d7" d="M 161.574219 72.320312 L 159.363281 74.460938 L 163.789062 74.460938 Z M 161.574219 72.320312 " fill-opacity="1" fill-rule="nonzero"/></g><path fill="#f3e9d7" d="M 172.644531 70.175781 L 168.21875 70.175781 L 170.429688 72.320312 Z M 172.644531 70.175781 " fill-opacity="1" fill-rule="nonzero"/><g clip-path="url(#902125fc91)"><path fill="#f3e9d7" d="M 179.289062 72.320312 L 177.074219 74.460938 L 179.289062 74.460938 Z M 179.289062 72.320312 " fill-opacity="1" fill-rule="nonzero"/></g><g clip-path="url(#530c8c8425)"><path fill="#f3e9d7" d="M 185.480469 74.105469 C 185.371094 74.105469 185.265625 74.0625 185.1875 73.984375 L 181.542969 70.460938 C 181.316406 70.242188 181.023438 70.132812 180.726562 70.132812 L 180.726562 70.851562 C 180.835938 70.851562 180.941406 70.886719 181.019531 70.964844 L 184.664062 74.492188 C 184.882812 74.703125 185.171875 74.820312 185.480469 74.820312 C 185.953125 74.820312 186.363281 74.554688 186.542969 74.132812 C 186.726562 73.707031 186.628906 73.238281 186.292969 72.914062 L 184.539062 71.21875 C 184.355469 71.042969 184.425781 70.839844 184.449219 70.78125 C 184.472656 70.722656 184.574219 70.53125 184.832031 70.53125 C 184.941406 70.53125 185.042969 70.574219 185.125 70.652344 L 188.769531 74.175781 C 188.984375 74.386719 189.273438 74.503906 189.582031 74.503906 C 189.890625 74.503906 190.179688 74.386719 190.398438 74.175781 L 194.042969 70.652344 C 194.121094 70.574219 194.226562 70.53125 194.335938 70.53125 C 194.59375 70.53125 194.691406 70.722656 194.71875 70.78125 C 194.742188 70.839844 194.808594 71.042969 194.628906 71.21875 L 192.871094 72.914062 C 192.535156 73.238281 192.441406 73.707031 192.625 74.132812 C 192.804688 74.554688 193.210938 74.820312 193.6875 74.820312 C 193.996094 74.820312 194.285156 74.703125 194.503906 74.492188 L 198.144531 70.964844 C 198.300781 70.8125 198.574219 70.8125 198.734375 70.964844 L 202.375 74.492188 C 202.59375 74.703125 202.882812 74.820312 203.191406 74.820312 C 203.664062 74.820312 204.074219 74.554688 204.253906 74.132812 C 204.4375 73.707031 204.339844 73.238281 204.003906 72.914062 L 202.25 71.21875 C 202.066406 71.042969 202.136719 70.839844 202.160156 70.78125 C 202.1875 70.722656 202.285156 70.53125 202.542969 70.53125 C 202.652344 70.53125 202.757812 70.574219 202.835938 70.652344 L 206.480469 74.175781 C 206.929688 74.613281 207.660156 74.613281 208.109375 74.175781 L 211.753906 70.652344 C 211.832031 70.574219 211.9375 70.53125 212.046875 70.53125 C 212.304688 70.53125 212.402344 70.722656 212.429688 70.78125 C 212.453125 70.839844 212.523438 71.042969 212.339844 71.21875 L 210.585938 72.914062 C 210.25 73.238281 210.152344 73.707031 210.335938 74.132812 C 210.515625 74.554688 210.925781 74.820312 211.398438 74.820312 C 211.707031 74.820312 211.996094 74.703125 212.214844 74.492188 L 215.859375 70.964844 C 216.015625 70.8125 216.289062 70.8125 216.445312 70.964844 L 220.089844 74.492188 C 220.304688 74.703125 220.597656 74.820312 220.902344 74.820312 C 221.378906 74.820312 221.785156 74.554688 221.96875 74.132812 C 222.148438 73.707031 222.054688 73.238281 221.71875 72.914062 L 219.964844 71.21875 C 219.78125 71.042969 219.847656 70.839844 219.871094 70.78125 C 219.898438 70.722656 219.996094 70.53125 220.253906 70.53125 C 220.367188 70.53125 220.46875 70.574219 220.546875 70.652344 L 224.195312 74.175781 C 224.640625 74.613281 225.371094 74.613281 225.820312 74.175781 L 229.464844 70.652344 C 229.546875 70.574219 229.648438 70.53125 229.761719 70.53125 C 230.015625 70.53125 230.117188 70.722656 230.140625 70.78125 C 230.167969 70.839844 230.234375 71.042969 230.050781 71.21875 L 228.296875 72.914062 C 227.960938 73.238281 227.863281 73.707031 228.046875 74.132812 C 228.230469 74.554688 228.636719 74.820312 229.109375 74.820312 C 229.417969 74.820312 229.707031 74.703125 229.925781 74.492188 L 233.570312 70.964844 C 233.726562 70.8125 234 70.8125 234.15625 70.964844 L 237.800781 74.492188 C 238.019531 74.703125 238.308594 74.820312 238.617188 74.820312 C 239.089844 74.820312 239.496094 74.554688 239.679688 74.132812 C 239.859375 73.707031 239.765625 73.238281 239.429688 72.914062 L 237.675781 71.21875 C 237.492188 71.042969 237.5625 70.839844 237.585938 70.78125 C 237.609375 70.722656 237.710938 70.53125 237.964844 70.53125 C 238.078125 70.53125 238.179688 70.574219 238.261719 70.652344 L 241.90625 74.175781 C 242.355469 74.613281 243.085938 74.613281 243.535156 74.175781 L 247.179688 70.652344 C 247.257812 70.574219 247.363281 70.53125 247.472656 70.53125 C 247.726562 70.53125 247.828125 70.722656 247.855469 70.78125 C 247.878906 70.839844 247.945312 71.042969 247.765625 71.21875 L 246.007812 72.914062 C 245.671875 73.238281 245.578125 73.707031 245.757812 74.132812 C 245.941406 74.554688 246.347656 74.820312 246.824219 74.820312 C 247.132812 74.820312 247.421875 74.703125 247.636719 74.492188 L 251.28125 70.964844 C 251.4375 70.8125 251.710938 70.8125 251.867188 70.964844 L 255.511719 74.492188 C 255.730469 74.703125 256.019531 74.820312 256.328125 74.820312 C 256.800781 74.820312 257.210938 74.554688 257.390625 74.132812 C 257.574219 73.707031 257.476562 73.238281 257.140625 72.914062 L 255.386719 71.21875 C 255.203125 71.042969 255.273438 70.839844 255.296875 70.78125 C 255.324219 70.722656 255.421875 70.53125 255.679688 70.53125 C 255.789062 70.53125 255.894531 70.574219 255.972656 70.652344 L 259.617188 74.175781 C 259.832031 74.386719 260.125 74.503906 260.429688 74.503906 C 260.738281 74.503906 261.027344 74.386719 261.246094 74.175781 L 264.890625 70.652344 C 264.96875 70.574219 265.074219 70.53125 265.183594 70.53125 C 265.441406 70.53125 265.539062 70.722656 265.566406 70.78125 C 265.589844 70.839844 265.65625 71.042969 265.476562 71.21875 L 263.722656 72.914062 C 263.386719 73.238281 263.289062 73.707031 263.472656 74.132812 C 263.652344 74.554688 264.058594 74.820312 264.535156 74.820312 C 264.84375 74.820312 265.132812 74.703125 265.351562 74.492188 L 268.996094 70.964844 C 269.074219 70.886719 269.179688 70.851562 269.289062 70.851562 L 269.289062 70.132812 C 268.992188 70.132812 268.695312 70.242188 268.472656 70.460938 L 264.828125 73.984375 C 264.75 74.0625 264.644531 74.105469 264.535156 74.105469 C 264.277344 74.105469 264.179688 73.914062 264.152344 73.859375 C 264.128906 73.800781 264.058594 73.59375 264.242188 73.421875 L 265.996094 71.722656 C 266.332031 71.398438 266.429688 70.929688 266.246094 70.507812 C 266.066406 70.082031 265.65625 69.820312 265.183594 69.820312 C 264.875 69.820312 264.585938 69.933594 264.367188 70.144531 L 260.726562 73.671875 C 260.566406 73.824219 260.292969 73.824219 260.136719 73.671875 L 256.496094 70.144531 C 256.277344 69.933594 255.988281 69.820312 255.679688 69.820312 C 255.203125 69.820312 254.796875 70.082031 254.617188 70.507812 C 254.433594 70.929688 254.527344 71.398438 254.863281 71.722656 L 256.621094 73.421875 C 256.800781 73.59375 256.734375 73.800781 256.710938 73.859375 C 256.683594 73.914062 256.585938 74.105469 256.328125 74.105469 C 256.21875 74.105469 256.113281 74.0625 256.035156 73.984375 L 252.390625 70.460938 C 252.171875 70.25 251.882812 70.132812 251.574219 70.132812 C 251.265625 70.132812 250.976562 70.25 250.761719 70.460938 L 247.117188 73.984375 C 247.035156 74.0625 246.933594 74.105469 246.824219 74.105469 C 246.566406 74.105469 246.464844 73.914062 246.441406 73.859375 C 246.417969 73.800781 246.347656 73.59375 246.53125 73.421875 L 248.285156 71.722656 C 248.621094 71.398438 248.71875 70.929688 248.535156 70.507812 C 248.355469 70.082031 247.945312 69.820312 247.472656 69.820312 C 247.164062 69.820312 246.875 69.933594 246.65625 70.144531 L 243.011719 73.671875 C 242.855469 73.824219 242.582031 73.824219 242.425781 73.671875 L 238.78125 70.144531 C 238.5625 69.933594 238.273438 69.820312 237.964844 69.820312 C 237.492188 69.820312 237.085938 70.082031 236.902344 70.507812 C 236.722656 70.929688 236.816406 71.398438 237.152344 71.722656 L 238.90625 73.421875 C 239.089844 73.59375 239.023438 73.800781 238.996094 73.859375 C 238.972656 73.914062 238.871094 74.105469 238.617188 74.105469 C 238.503906 74.105469 238.402344 74.0625 238.324219 73.984375 L 234.675781 70.460938 C 234.460938 70.25 234.171875 70.132812 233.863281 70.132812 C 233.554688 70.132812 233.265625 70.25 233.050781 70.460938 L 229.402344 73.984375 C 229.324219 74.0625 229.222656 74.105469 229.109375 74.105469 C 228.855469 74.105469 228.753906 73.914062 228.726562 73.859375 C 228.703125 73.800781 228.636719 73.59375 228.820312 73.421875 L 230.574219 71.722656 C 230.910156 71.398438 231.003906 70.929688 230.824219 70.507812 C 230.640625 70.082031 230.234375 69.820312 229.761719 69.820312 C 229.453125 69.820312 229.164062 69.933594 228.945312 70.144531 L 225.300781 73.671875 C 225.144531 73.824219 224.871094 73.824219 224.714844 73.671875 L 221.070312 70.144531 C 220.851562 69.933594 220.5625 69.820312 220.253906 69.820312 C 219.78125 69.820312 219.371094 70.082031 219.191406 70.507812 C 219.007812 70.929688 219.105469 71.398438 219.441406 71.722656 L 221.195312 73.421875 C 221.378906 73.59375 221.308594 73.800781 221.285156 73.859375 C 221.261719 73.914062 221.160156 74.105469 220.902344 74.105469 C 220.792969 74.105469 220.691406 74.0625 220.609375 73.984375 L 216.964844 70.460938 C 216.75 70.25 216.460938 70.132812 216.152344 70.132812 C 215.84375 70.132812 215.554688 70.25 215.335938 70.460938 L 211.691406 73.984375 C 211.613281 74.0625 211.507812 74.105469 211.398438 74.105469 C 211.140625 74.105469 211.042969 73.914062 211.015625 73.859375 C 210.992188 73.800781 210.925781 73.59375 211.105469 73.421875 L 212.863281 71.722656 C 213.199219 71.398438 213.292969 70.929688 213.109375 70.507812 C 212.929688 70.082031 212.523438 69.820312 212.046875 69.820312 C 211.738281 69.820312 211.449219 69.933594 211.234375 70.144531 L 207.589844 73.671875 C 207.433594 73.824219 207.160156 73.824219 207.003906 73.671875 L 203.359375 70.144531 C 203.140625 69.933594 202.851562 69.820312 202.542969 69.820312 C 202.066406 69.820312 201.660156 70.082031 201.480469 70.507812 C 201.296875 70.929688 201.394531 71.398438 201.730469 71.722656 L 203.484375 73.421875 C 203.664062 73.59375 203.597656 73.800781 203.574219 73.859375 C 203.546875 73.914062 203.449219 74.105469 203.191406 74.105469 C 203.082031 74.105469 202.976562 74.0625 202.898438 73.984375 L 199.253906 70.460938 C 199.035156 70.25 198.746094 70.132812 198.4375 70.132812 C 198.132812 70.132812 197.839844 70.25 197.625 70.460938 L 193.980469 73.984375 C 193.902344 74.0625 193.796875 74.105469 193.6875 74.105469 C 193.429688 74.105469 193.332031 73.914062 193.304688 73.859375 C 193.28125 73.800781 193.210938 73.59375 193.394531 73.421875 L 195.148438 71.722656 C 195.484375 71.398438 195.582031 70.929688 195.398438 70.507812 C 195.21875 70.082031 194.808594 69.820312 194.335938 69.820312 C 194.027344 69.820312 193.738281 69.933594 193.519531 70.144531 L 189.875 73.671875 C 189.71875 73.824219 189.445312 73.824219 189.289062 73.671875 L 185.644531 70.144531 C 185.429688 69.933594 185.140625 69.820312 184.832031 69.820312 C 184.355469 69.820312 183.949219 70.082031 183.765625 70.507812 C 183.585938 70.929688 183.679688 71.398438 184.015625 71.722656 L 185.773438 73.421875 C 185.953125 73.59375 185.886719 73.800781 185.863281 73.859375 C 185.835938 73.914062 185.734375 74.105469 185.480469 74.105469 " fill-opacity="1" fill-rule="nonzero"/></g><g clip-path="url(#3b62303521)"><path fill="#f3e9d7" d="M 180.726562 74.460938 L 182.941406 74.460938 L 180.726562 72.320312 Z M 180.726562 74.460938 " fill-opacity="1" fill-rule="nonzero"/></g><path fill="#f3e9d7" d="M 191.796875 70.175781 L 187.371094 70.175781 L 189.582031 72.320312 Z M 191.796875 70.175781 " fill-opacity="1" fill-rule="nonzero"/><g clip-path="url(#dc7e6d2073)"><path fill="#f3e9d7" d="M 198.4375 72.320312 L 196.226562 74.460938 L 200.652344 74.460938 Z M 198.4375 72.320312 " fill-opacity="1" fill-rule="nonzero"/></g><path fill="#f3e9d7" d="M 209.507812 70.175781 L 205.082031 70.175781 L 207.296875 72.320312 Z M 209.507812 70.175781 " fill-opacity="1" fill-rule="nonzero"/><g clip-path="url(#03c43ca8d4)"><path fill="#f3e9d7" d="M 216.152344 72.320312 L 213.9375 74.460938 L 218.367188 74.460938 Z M 216.152344 72.320312 " fill-opacity="1" fill-rule="nonzero"/></g><path fill="#f3e9d7" d="M 227.222656 70.175781 L 222.792969 70.175781 L 225.007812 72.320312 Z M 227.222656 70.175781 " fill-opacity="1" fill-rule="nonzero"/><g clip-path="url(#2c60108aa2)"><path fill="#f3e9d7" d="M 233.863281 72.320312 L 231.648438 74.460938 L 236.078125 74.460938 Z M 233.863281 72.320312 " fill-opacity="1" fill-rule="nonzero"/></g><path fill="#f3e9d7" d="M 244.933594 70.175781 L 240.503906 70.175781 L 242.71875 72.320312 Z M 244.933594 70.175781 " fill-opacity="1" fill-rule="nonzero"/><g clip-path="url(#ff5d99a6ea)"><path fill="#f3e9d7" d="M 251.574219 72.320312 L 249.363281 74.460938 L 253.789062 74.460938 Z M 251.574219 72.320312 " fill-opacity="1" fill-rule="nonzero"/></g><path fill="#f3e9d7" d="M 262.644531 70.175781 L 258.21875 70.175781 L 260.429688 72.320312 Z M 262.644531 70.175781 " fill-opacity="1" fill-rule="nonzero"/><g clip-path="url(#274d629e8c)"><path fill="#f3e9d7" d="M 269.289062 72.320312 L 267.074219 74.460938 L 269.289062 74.460938 Z M 269.289062 72.320312 " fill-opacity="1" fill-rule="nonzero"/></g></svg>