<svg xmlns="http://www.w3.org/2000/svg" xmlns:xlink="http://www.w3.org/1999/xlink" width="1080" zoomAndPan="magnify" viewBox="0 0 810 809.999993" height="1080" preserveAspectRatio="xMidYMid meet" version="1.0"><defs><clipPath id="1e8c3aa214"><path d="M 2 279.71875 L 269 279.71875 L 269 295.46875 L 2 295.46875 Z M 2 279.71875 " clip-rule="nonzero"/></clipPath><clipPath id="6f86c22c9d"><path d="M 272 279.71875 L 539 279.71875 L 539 295.46875 L 272 295.46875 Z M 272 279.71875 " clip-rule="nonzero"/></clipPath><clipPath id="4b8a46625e"><path d="M 542 279.71875 L 809 279.71875 L 809 295.46875 L 542 295.46875 Z M 542 279.71875 " clip-rule="nonzero"/></clipPath></defs><g clip-path="url(#1e8c3aa214)"><path fill="#f3e9d7" d="M 16.304688 292.996094 C 15.972656 292.996094 15.660156 292.871094 15.421875 292.632812 L 4.476562 281.6875 C 3.804688 281.011719 2.917969 280.675781 2.03125 280.675781 L 2.03125 282.902344 C 2.351562 282.902344 2.675781 283.019531 2.914062 283.25 L 13.855469 294.199219 C 14.511719 294.855469 15.378906 295.214844 16.304688 295.214844 C 17.730469 295.214844 18.953125 294.394531 19.496094 293.082031 C 20.046875 291.761719 19.757812 290.316406 18.75 289.304688 L 13.480469 284.039062 C 12.929688 283.496094 13.136719 282.863281 13.207031 282.679688 C 13.285156 282.503906 13.582031 281.914062 14.355469 281.914062 C 14.6875 281.914062 14.996094 282.042969 15.234375 282.28125 L 26.1875 293.222656 C 26.832031 293.878906 27.703125 294.238281 28.628906 294.238281 C 29.554688 294.238281 30.425781 293.878906 31.074219 293.222656 L 42.023438 282.28125 C 42.261719 282.042969 42.570312 281.914062 42.902344 281.914062 C 43.671875 281.914062 43.972656 282.503906 44.050781 282.679688 C 44.125 282.863281 44.328125 283.496094 43.78125 284.039062 L 38.507812 289.304688 C 37.5 290.316406 37.210938 291.761719 37.761719 293.082031 C 38.304688 294.394531 39.527344 295.214844 40.953125 295.214844 C 41.878906 295.214844 42.746094 294.855469 43.402344 294.199219 L 54.347656 283.25 C 54.816406 282.785156 55.636719 282.785156 56.109375 283.25 L 67.054688 294.199219 C 67.707031 294.855469 68.578125 295.214844 69.5 295.214844 C 70.925781 295.214844 72.152344 294.394531 72.695312 293.082031 C 73.242188 291.761719 72.953125 290.316406 71.945312 289.304688 L 66.675781 284.039062 C 66.125 283.496094 66.332031 282.863281 66.402344 282.679688 C 66.480469 282.503906 66.78125 281.914062 67.550781 281.914062 C 67.882812 281.914062 68.195312 282.042969 68.433594 282.28125 L 79.382812 293.222656 C 80.730469 294.578125 82.921875 294.578125 84.269531 293.222656 L 95.21875 282.28125 C 95.457031 282.042969 95.769531 281.914062 96.097656 281.914062 C 96.871094 281.914062 97.167969 282.503906 97.246094 282.679688 C 97.320312 282.863281 97.523438 283.496094 96.976562 284.039062 L 91.707031 289.304688 C 90.695312 290.316406 90.410156 291.761719 90.957031 293.082031 C 91.5 294.394531 92.726562 295.214844 94.148438 295.214844 C 95.074219 295.214844 95.945312 294.855469 96.597656 294.199219 L 107.542969 283.25 C 108.011719 282.785156 108.832031 282.785156 109.304688 283.25 L 120.25 294.199219 C 120.902344 294.855469 121.773438 295.214844 122.699219 295.214844 C 124.121094 295.214844 125.347656 294.394531 125.890625 293.082031 C 126.4375 291.761719 126.148438 290.316406 125.140625 289.304688 L 119.871094 284.039062 C 119.324219 283.496094 119.527344 282.863281 119.601562 282.679688 C 119.679688 282.503906 119.976562 281.914062 120.746094 281.914062 C 121.082031 281.914062 121.390625 282.042969 121.628906 282.28125 L 132.578125 293.222656 C 133.925781 294.578125 136.117188 294.578125 137.464844 293.222656 L 148.414062 282.28125 C 148.652344 282.042969 148.964844 281.914062 149.296875 281.914062 C 150.066406 281.914062 150.363281 282.503906 150.441406 282.679688 C 150.515625 282.863281 150.71875 283.496094 150.171875 284.039062 L 144.902344 289.304688 C 143.894531 290.316406 143.605469 291.761719 144.152344 293.082031 C 144.699219 294.394531 145.921875 295.214844 147.34375 295.214844 C 148.273438 295.214844 149.140625 294.855469 149.796875 294.199219 L 160.738281 283.25 C 161.210938 282.785156 162.03125 282.785156 162.5 283.25 L 173.445312 294.199219 C 174.097656 294.855469 174.96875 295.214844 175.894531 295.214844 C 177.316406 295.214844 178.542969 294.394531 179.085938 293.082031 C 179.632812 291.761719 179.347656 290.316406 178.335938 289.304688 L 173.070312 284.039062 C 172.519531 283.496094 172.726562 282.863281 172.796875 282.679688 C 172.875 282.503906 173.171875 281.914062 173.945312 281.914062 C 174.277344 281.914062 174.585938 282.042969 174.824219 282.28125 L 185.773438 293.222656 C 187.121094 294.578125 189.3125 294.578125 190.664062 293.222656 L 201.609375 282.28125 C 201.847656 282.042969 202.160156 281.914062 202.492188 281.914062 C 203.261719 281.914062 203.5625 282.503906 203.640625 282.679688 C 203.714844 282.863281 203.917969 283.496094 203.367188 284.039062 L 198.097656 289.304688 C 197.089844 290.316406 196.800781 291.761719 197.347656 293.082031 C 197.894531 294.394531 199.117188 295.214844 200.542969 295.214844 C 201.46875 295.214844 202.335938 294.855469 202.992188 294.199219 L 213.9375 283.25 C 214.40625 282.785156 215.226562 282.785156 215.699219 283.25 L 226.640625 294.199219 C 227.296875 294.855469 228.167969 295.214844 229.089844 295.214844 C 230.515625 295.214844 231.738281 294.394531 232.28125 293.082031 C 232.832031 291.761719 232.542969 290.316406 231.535156 289.304688 L 226.265625 284.039062 C 225.714844 283.496094 225.921875 282.863281 225.992188 282.679688 C 226.070312 282.503906 226.371094 281.914062 227.140625 281.914062 C 227.472656 281.914062 227.78125 282.042969 228.019531 282.28125 L 238.972656 293.222656 C 239.617188 293.878906 240.488281 294.238281 241.414062 294.238281 C 242.339844 294.238281 243.210938 293.878906 243.859375 293.222656 L 254.808594 282.28125 C 255.046875 282.042969 255.355469 281.914062 255.6875 281.914062 C 256.460938 281.914062 256.757812 282.503906 256.835938 282.679688 C 256.910156 282.863281 257.113281 283.496094 256.566406 284.039062 L 251.292969 289.304688 C 250.285156 290.316406 249.996094 291.761719 250.546875 293.082031 C 251.089844 294.394531 252.3125 295.214844 253.738281 295.214844 C 254.664062 295.214844 255.53125 294.855469 256.1875 294.199219 L 267.132812 283.25 C 267.371094 283.019531 267.691406 282.902344 268.011719 282.902344 L 268.011719 280.675781 C 267.125 280.675781 266.238281 281.011719 265.570312 281.6875 L 254.621094 292.632812 C 254.382812 292.871094 254.070312 292.996094 253.738281 292.996094 C 252.96875 292.996094 252.667969 292.410156 252.589844 292.234375 C 252.519531 292.050781 252.3125 291.417969 252.863281 290.875 L 258.132812 285.605469 C 259.140625 284.597656 259.429688 283.148438 258.882812 281.832031 C 258.339844 280.519531 257.113281 279.699219 255.6875 279.699219 C 254.765625 279.699219 253.894531 280.058594 253.242188 280.710938 L 242.296875 291.660156 C 241.824219 292.125 241.003906 292.125 240.535156 291.660156 L 229.589844 280.710938 C 228.933594 280.058594 228.066406 279.699219 227.140625 279.699219 C 225.714844 279.699219 224.492188 280.519531 223.949219 281.832031 C 223.398438 283.148438 223.6875 284.597656 224.695312 285.605469 L 229.96875 290.875 C 230.515625 291.417969 230.3125 292.050781 230.238281 292.234375 C 230.160156 292.410156 229.859375 292.996094 229.089844 292.996094 C 228.757812 292.996094 228.449219 292.871094 228.210938 292.632812 L 217.261719 281.6875 C 216.613281 281.035156 215.742188 280.675781 214.816406 280.675781 C 213.890625 280.675781 213.019531 281.035156 212.375 281.6875 L 201.421875 292.632812 C 201.183594 292.871094 200.875 292.996094 200.542969 292.996094 C 199.769531 292.996094 199.472656 292.410156 199.394531 292.234375 C 199.324219 292.050781 199.117188 291.417969 199.667969 290.875 L 204.9375 285.605469 C 205.945312 284.597656 206.234375 283.148438 205.683594 281.832031 C 205.140625 280.519531 203.917969 279.699219 202.492188 279.699219 C 201.566406 279.699219 200.699219 280.058594 200.042969 280.710938 L 189.101562 291.660156 C 188.628906 292.125 187.808594 292.125 187.339844 291.660156 L 176.394531 280.710938 C 175.738281 280.058594 174.871094 279.699219 173.945312 279.699219 C 172.519531 279.699219 171.296875 280.519531 170.75 281.832031 C 170.203125 283.148438 170.492188 284.597656 171.5 285.605469 L 176.769531 290.875 C 177.316406 291.417969 177.113281 292.050781 177.042969 292.234375 C 176.964844 292.410156 176.664062 292.996094 175.894531 292.996094 C 175.5625 292.996094 175.25 292.871094 175.011719 292.632812 L 164.066406 281.6875 C 163.414062 281.035156 162.546875 280.675781 161.621094 280.675781 C 160.695312 280.675781 159.824219 281.035156 159.175781 281.6875 L 148.226562 292.632812 C 147.988281 292.871094 147.679688 292.996094 147.34375 292.996094 C 146.574219 292.996094 146.277344 292.410156 146.199219 292.234375 C 146.125 292.050781 145.921875 291.417969 146.472656 290.875 L 151.738281 285.605469 C 152.75 284.597656 153.035156 283.148438 152.488281 281.832031 C 151.945312 280.519531 150.71875 279.699219 149.296875 279.699219 C 148.371094 279.699219 147.5 280.058594 146.847656 280.710938 L 135.902344 291.660156 C 135.429688 292.125 134.609375 292.125 134.140625 291.660156 L 123.199219 280.710938 C 122.542969 280.058594 121.671875 279.699219 120.746094 279.699219 C 119.324219 279.699219 118.101562 280.519531 117.554688 281.832031 C 117.007812 283.148438 117.292969 284.597656 118.304688 285.605469 L 123.574219 290.875 C 124.121094 291.417969 123.917969 292.050781 123.84375 292.234375 C 123.765625 292.410156 123.46875 292.996094 122.699219 292.996094 C 122.367188 292.996094 122.054688 292.871094 121.816406 292.632812 L 110.867188 281.6875 C 110.21875 281.035156 109.347656 280.675781 108.425781 280.675781 C 107.496094 280.675781 106.628906 281.035156 105.980469 281.6875 L 95.03125 292.632812 C 94.792969 292.871094 94.480469 292.996094 94.148438 292.996094 C 93.378906 292.996094 93.078125 292.410156 93 292.234375 C 92.929688 292.050781 92.726562 291.417969 93.273438 290.875 L 98.542969 285.605469 C 99.550781 284.597656 99.839844 283.148438 99.292969 281.832031 C 98.75 280.519531 97.523438 279.699219 96.097656 279.699219 C 95.175781 279.699219 94.304688 280.058594 93.652344 280.710938 L 82.707031 291.660156 C 82.234375 292.125 81.414062 292.125 80.945312 291.660156 L 70 280.710938 C 69.34375 280.058594 68.476562 279.699219 67.550781 279.699219 C 66.125 279.699219 64.902344 280.519531 64.359375 281.832031 C 63.808594 283.148438 64.097656 284.597656 65.105469 285.605469 L 70.378906 290.875 C 70.925781 291.417969 70.722656 292.050781 70.648438 292.234375 C 70.570312 292.410156 70.273438 292.996094 69.5 292.996094 C 69.167969 292.996094 68.859375 292.871094 68.621094 292.632812 L 57.671875 281.6875 C 57.023438 281.035156 56.152344 280.675781 55.226562 280.675781 C 54.300781 280.675781 53.429688 281.035156 52.785156 281.6875 L 41.832031 292.632812 C 41.59375 292.871094 41.285156 292.996094 40.953125 292.996094 C 40.183594 292.996094 39.882812 292.410156 39.804688 292.234375 C 39.734375 292.050781 39.527344 291.417969 40.078125 290.875 L 45.347656 285.605469 C 46.355469 284.597656 46.644531 283.148438 46.09375 281.832031 C 45.550781 280.519531 44.328125 279.699219 42.902344 279.699219 C 41.980469 279.699219 41.109375 280.058594 40.453125 280.710938 L 29.511719 291.660156 C 29.039062 292.125 28.21875 292.125 27.75 291.660156 L 16.804688 280.710938 C 16.148438 280.058594 15.28125 279.699219 14.355469 279.699219 C 12.929688 279.699219 11.703125 280.519531 11.160156 281.832031 C 10.613281 283.148438 10.902344 284.597656 11.910156 285.605469 L 17.179688 290.875 C 17.730469 291.417969 17.523438 292.050781 17.453125 292.234375 C 17.375 292.410156 17.074219 292.996094 16.304688 292.996094 " fill-opacity="1" fill-rule="nonzero"/></g><path fill="#f3e9d7" d="M 2.03125 294.105469 L 8.679688 294.105469 L 2.03125 287.457031 Z M 2.03125 294.105469 " fill-opacity="1" fill-rule="nonzero"/><path fill="#f3e9d7" d="M 35.277344 280.804688 L 21.980469 280.804688 L 28.628906 287.457031 Z M 35.277344 280.804688 " fill-opacity="1" fill-rule="nonzero"/><path fill="#f3e9d7" d="M 55.226562 287.457031 L 48.578125 294.105469 L 61.878906 294.105469 Z M 55.226562 287.457031 " fill-opacity="1" fill-rule="nonzero"/><path fill="#f3e9d7" d="M 88.476562 280.804688 L 75.175781 280.804688 L 81.824219 287.457031 Z M 88.476562 280.804688 " fill-opacity="1" fill-rule="nonzero"/><path fill="#f3e9d7" d="M 108.425781 287.457031 L 101.773438 294.105469 L 115.074219 294.105469 Z M 108.425781 287.457031 " fill-opacity="1" fill-rule="nonzero"/><path fill="#f3e9d7" d="M 141.671875 280.804688 L 128.371094 280.804688 L 135.023438 287.457031 Z M 141.671875 280.804688 " fill-opacity="1" fill-rule="nonzero"/><path fill="#f3e9d7" d="M 161.621094 287.457031 L 154.972656 294.105469 L 168.269531 294.105469 Z M 161.621094 287.457031 " fill-opacity="1" fill-rule="nonzero"/><path fill="#f3e9d7" d="M 194.867188 280.804688 L 181.570312 280.804688 L 188.21875 287.457031 Z M 194.867188 280.804688 " fill-opacity="1" fill-rule="nonzero"/><path fill="#f3e9d7" d="M 214.816406 287.457031 L 208.167969 294.105469 L 221.464844 294.105469 Z M 214.816406 287.457031 " fill-opacity="1" fill-rule="nonzero"/><path fill="#f3e9d7" d="M 248.066406 280.804688 L 234.765625 280.804688 L 241.414062 287.457031 Z M 248.066406 280.804688 " fill-opacity="1" fill-rule="nonzero"/><path fill="#f3e9d7" d="M 268.011719 287.457031 L 261.363281 294.105469 L 268.011719 294.105469 Z M 268.011719 287.457031 " fill-opacity="1" fill-rule="nonzero"/><g clip-path="url(#6f86c22c9d)"><path fill="#f3e9d7" d="M 286.304688 292.996094 C 285.972656 292.996094 285.660156 292.871094 285.421875 292.632812 L 274.476562 281.6875 C 273.804688 281.011719 272.917969 280.675781 272.03125 280.675781 L 272.03125 282.902344 C 272.351562 282.902344 272.675781 283.019531 272.914062 283.25 L 283.855469 294.199219 C 284.511719 294.855469 285.378906 295.214844 286.304688 295.214844 C 287.730469 295.214844 288.953125 294.394531 289.496094 293.082031 C 290.046875 291.761719 289.757812 290.316406 288.75 289.304688 L 283.480469 284.039062 C 282.929688 283.496094 283.136719 282.863281 283.207031 282.679688 C 283.285156 282.503906 283.582031 281.914062 284.355469 281.914062 C 284.6875 281.914062 284.996094 282.042969 285.234375 282.28125 L 296.1875 293.222656 C 296.832031 293.878906 297.703125 294.238281 298.628906 294.238281 C 299.554688 294.238281 300.425781 293.878906 301.074219 293.222656 L 312.023438 282.28125 C 312.261719 282.042969 312.570312 281.914062 312.902344 281.914062 C 313.671875 281.914062 313.972656 282.503906 314.050781 282.679688 C 314.125 282.863281 314.328125 283.496094 313.78125 284.039062 L 308.507812 289.304688 C 307.5 290.316406 307.210938 291.761719 307.761719 293.082031 C 308.304688 294.394531 309.527344 295.214844 310.953125 295.214844 C 311.878906 295.214844 312.746094 294.855469 313.402344 294.199219 L 324.347656 283.25 C 324.816406 282.785156 325.636719 282.785156 326.109375 283.25 L 337.054688 294.199219 C 337.707031 294.855469 338.578125 295.214844 339.5 295.214844 C 340.925781 295.214844 342.152344 294.394531 342.695312 293.082031 C 343.242188 291.761719 342.953125 290.316406 341.945312 289.304688 L 336.675781 284.039062 C 336.125 283.496094 336.332031 282.863281 336.402344 282.679688 C 336.480469 282.503906 336.78125 281.914062 337.550781 281.914062 C 337.882812 281.914062 338.195312 282.042969 338.433594 282.28125 L 349.382812 293.222656 C 350.730469 294.578125 352.921875 294.578125 354.269531 293.222656 L 365.21875 282.28125 C 365.457031 282.042969 365.769531 281.914062 366.097656 281.914062 C 366.871094 281.914062 367.167969 282.503906 367.246094 282.679688 C 367.320312 282.863281 367.523438 283.496094 366.976562 284.039062 L 361.707031 289.304688 C 360.695312 290.316406 360.410156 291.761719 360.957031 293.082031 C 361.5 294.394531 362.726562 295.214844 364.148438 295.214844 C 365.074219 295.214844 365.945312 294.855469 366.597656 294.199219 L 377.542969 283.25 C 378.011719 282.785156 378.832031 282.785156 379.304688 283.25 L 390.25 294.199219 C 390.902344 294.855469 391.773438 295.214844 392.699219 295.214844 C 394.121094 295.214844 395.347656 294.394531 395.890625 293.082031 C 396.4375 291.761719 396.148438 290.316406 395.140625 289.304688 L 389.871094 284.039062 C 389.324219 283.496094 389.527344 282.863281 389.601562 282.679688 C 389.679688 282.503906 389.976562 281.914062 390.746094 281.914062 C 391.082031 281.914062 391.390625 282.042969 391.628906 282.28125 L 402.578125 293.222656 C 403.925781 294.578125 406.117188 294.578125 407.464844 293.222656 L 418.414062 282.28125 C 418.652344 282.042969 418.964844 281.914062 419.296875 281.914062 C 420.066406 281.914062 420.363281 282.503906 420.441406 282.679688 C 420.515625 282.863281 420.71875 283.496094 420.171875 284.039062 L 414.902344 289.304688 C 413.894531 290.316406 413.605469 291.761719 414.152344 293.082031 C 414.699219 294.394531 415.921875 295.214844 417.34375 295.214844 C 418.273438 295.214844 419.140625 294.855469 419.796875 294.199219 L 430.738281 283.25 C 431.210938 282.785156 432.03125 282.785156 432.5 283.25 L 443.445312 294.199219 C 444.097656 294.855469 444.96875 295.214844 445.894531 295.214844 C 447.316406 295.214844 448.542969 294.394531 449.085938 293.082031 C 449.632812 291.761719 449.347656 290.316406 448.335938 289.304688 L 443.070312 284.039062 C 442.519531 283.496094 442.726562 282.863281 442.796875 282.679688 C 442.875 282.503906 443.171875 281.914062 443.945312 281.914062 C 444.277344 281.914062 444.585938 282.042969 444.824219 282.28125 L 455.773438 293.222656 C 457.121094 294.578125 459.3125 294.578125 460.664062 293.222656 L 471.609375 282.28125 C 471.847656 282.042969 472.160156 281.914062 472.492188 281.914062 C 473.261719 281.914062 473.5625 282.503906 473.640625 282.679688 C 473.710938 282.863281 473.917969 283.496094 473.367188 284.039062 L 468.097656 289.304688 C 467.089844 290.316406 466.800781 291.761719 467.347656 293.082031 C 467.894531 294.394531 469.117188 295.214844 470.542969 295.214844 C 471.46875 295.214844 472.335938 294.855469 472.992188 294.199219 L 483.9375 283.25 C 484.40625 282.785156 485.226562 282.785156 485.699219 283.25 L 496.640625 294.199219 C 497.296875 294.855469 498.167969 295.214844 499.089844 295.214844 C 500.515625 295.214844 501.738281 294.394531 502.28125 293.082031 C 502.832031 291.761719 502.542969 290.316406 501.535156 289.304688 L 496.265625 284.039062 C 495.714844 283.496094 495.921875 282.863281 495.992188 282.679688 C 496.070312 282.503906 496.371094 281.914062 497.140625 281.914062 C 497.472656 281.914062 497.78125 282.042969 498.019531 282.28125 L 508.972656 293.222656 C 509.617188 293.878906 510.488281 294.238281 511.414062 294.238281 C 512.339844 294.238281 513.210938 293.878906 513.859375 293.222656 L 524.808594 282.28125 C 525.046875 282.042969 525.355469 281.914062 525.6875 281.914062 C 526.460938 281.914062 526.757812 282.503906 526.835938 282.679688 C 526.910156 282.863281 527.113281 283.496094 526.566406 284.039062 L 521.292969 289.304688 C 520.285156 290.316406 519.996094 291.761719 520.546875 293.082031 C 521.089844 294.394531 522.3125 295.214844 523.738281 295.214844 C 524.664062 295.214844 525.53125 294.855469 526.1875 294.199219 L 537.132812 283.25 C 537.371094 283.019531 537.691406 282.902344 538.011719 282.902344 L 538.011719 280.675781 C 537.125 280.675781 536.238281 281.011719 535.570312 281.6875 L 524.621094 292.632812 C 524.382812 292.871094 524.070312 292.996094 523.738281 292.996094 C 522.96875 292.996094 522.667969 292.410156 522.589844 292.234375 C 522.519531 292.050781 522.3125 291.417969 522.863281 290.875 L 528.132812 285.605469 C 529.140625 284.597656 529.429688 283.148438 528.882812 281.832031 C 528.339844 280.519531 527.113281 279.699219 525.6875 279.699219 C 524.765625 279.699219 523.894531 280.058594 523.242188 280.710938 L 512.296875 291.660156 C 511.824219 292.125 511.003906 292.125 510.535156 291.660156 L 499.589844 280.710938 C 498.933594 280.058594 498.066406 279.699219 497.140625 279.699219 C 495.714844 279.699219 494.492188 280.519531 493.949219 281.832031 C 493.398438 283.148438 493.6875 284.597656 494.695312 285.605469 L 499.96875 290.875 C 500.515625 291.417969 500.3125 292.050781 500.238281 292.234375 C 500.160156 292.410156 499.859375 292.996094 499.089844 292.996094 C 498.757812 292.996094 498.449219 292.871094 498.210938 292.632812 L 487.261719 281.6875 C 486.613281 281.035156 485.742188 280.675781 484.816406 280.675781 C 483.890625 280.675781 483.019531 281.035156 482.375 281.6875 L 471.421875 292.632812 C 471.183594 292.871094 470.875 292.996094 470.542969 292.996094 C 469.769531 292.996094 469.472656 292.410156 469.394531 292.234375 C 469.324219 292.050781 469.117188 291.417969 469.667969 290.875 L 474.9375 285.605469 C 475.945312 284.597656 476.234375 283.148438 475.683594 281.832031 C 475.140625 280.519531 473.917969 279.699219 472.492188 279.699219 C 471.566406 279.699219 470.699219 280.058594 470.042969 280.710938 L 459.101562 291.660156 C 458.628906 292.125 457.808594 292.125 457.339844 291.660156 L 446.394531 280.710938 C 445.738281 280.058594 444.871094 279.699219 443.945312 279.699219 C 442.519531 279.699219 441.296875 280.519531 440.75 281.832031 C 440.203125 283.148438 440.492188 284.597656 441.5 285.605469 L 446.769531 290.875 C 447.316406 291.417969 447.113281 292.050781 447.042969 292.234375 C 446.964844 292.410156 446.664062 292.996094 445.894531 292.996094 C 445.5625 292.996094 445.25 292.871094 445.011719 292.632812 L 434.066406 281.6875 C 433.414062 281.035156 432.546875 280.675781 431.621094 280.675781 C 430.695312 280.675781 429.824219 281.035156 429.175781 281.6875 L 418.226562 292.632812 C 417.988281 292.871094 417.679688 292.996094 417.34375 292.996094 C 416.574219 292.996094 416.277344 292.410156 416.199219 292.234375 C 416.125 292.050781 415.921875 291.417969 416.472656 290.875 L 421.738281 285.605469 C 422.75 284.597656 423.035156 283.148438 422.488281 281.832031 C 421.945312 280.519531 420.71875 279.699219 419.296875 279.699219 C 418.371094 279.699219 417.5 280.058594 416.847656 280.710938 L 405.902344 291.660156 C 405.429688 292.125 404.609375 292.125 404.140625 291.660156 L 393.199219 280.710938 C 392.542969 280.058594 391.671875 279.699219 390.746094 279.699219 C 389.324219 279.699219 388.101562 280.519531 387.554688 281.832031 C 387.007812 283.148438 387.292969 284.597656 388.304688 285.605469 L 393.574219 290.875 C 394.121094 291.417969 393.917969 292.050781 393.84375 292.234375 C 393.765625 292.410156 393.46875 292.996094 392.699219 292.996094 C 392.367188 292.996094 392.054688 292.871094 391.816406 292.632812 L 380.867188 281.6875 C 380.21875 281.035156 379.347656 280.675781 378.425781 280.675781 C 377.496094 280.675781 376.628906 281.035156 375.980469 281.6875 L 365.03125 292.632812 C 364.792969 292.871094 364.480469 292.996094 364.148438 292.996094 C 363.378906 292.996094 363.078125 292.410156 363 292.234375 C 362.929688 292.050781 362.726562 291.417969 363.273438 290.875 L 368.542969 285.605469 C 369.550781 284.597656 369.839844 283.148438 369.292969 281.832031 C 368.75 280.519531 367.523438 279.699219 366.097656 279.699219 C 365.175781 279.699219 364.304688 280.058594 363.652344 280.710938 L 352.707031 291.660156 C 352.234375 292.125 351.414062 292.125 350.945312 291.660156 L 340 280.710938 C 339.34375 280.058594 338.476562 279.699219 337.550781 279.699219 C 336.125 279.699219 334.902344 280.519531 334.359375 281.832031 C 333.808594 283.148438 334.097656 284.597656 335.105469 285.605469 L 340.378906 290.875 C 340.925781 291.417969 340.722656 292.050781 340.648438 292.234375 C 340.570312 292.410156 340.273438 292.996094 339.5 292.996094 C 339.167969 292.996094 338.859375 292.871094 338.621094 292.632812 L 327.671875 281.6875 C 327.023438 281.035156 326.152344 280.675781 325.226562 280.675781 C 324.300781 280.675781 323.429688 281.035156 322.785156 281.6875 L 311.832031 292.632812 C 311.59375 292.871094 311.285156 292.996094 310.953125 292.996094 C 310.183594 292.996094 309.882812 292.410156 309.804688 292.234375 C 309.734375 292.050781 309.527344 291.417969 310.078125 290.875 L 315.347656 285.605469 C 316.355469 284.597656 316.644531 283.148438 316.09375 281.832031 C 315.550781 280.519531 314.328125 279.699219 312.902344 279.699219 C 311.980469 279.699219 311.109375 280.058594 310.453125 280.710938 L 299.511719 291.660156 C 299.039062 292.125 298.21875 292.125 297.75 291.660156 L 286.804688 280.710938 C 286.148438 280.058594 285.28125 279.699219 284.355469 279.699219 C 282.929688 279.699219 281.703125 280.519531 281.160156 281.832031 C 280.613281 283.148438 280.902344 284.597656 281.910156 285.605469 L 287.179688 290.875 C 287.730469 291.417969 287.523438 292.050781 287.453125 292.234375 C 287.375 292.410156 287.074219 292.996094 286.304688 292.996094 " fill-opacity="1" fill-rule="nonzero"/></g><path fill="#f3e9d7" d="M 272.03125 294.105469 L 278.679688 294.105469 L 272.03125 287.457031 Z M 272.03125 294.105469 " fill-opacity="1" fill-rule="nonzero"/><path fill="#f3e9d7" d="M 305.277344 280.804688 L 291.980469 280.804688 L 298.628906 287.457031 Z M 305.277344 280.804688 " fill-opacity="1" fill-rule="nonzero"/><path fill="#f3e9d7" d="M 325.226562 287.457031 L 318.578125 294.105469 L 331.878906 294.105469 Z M 325.226562 287.457031 " fill-opacity="1" fill-rule="nonzero"/><path fill="#f3e9d7" d="M 358.476562 280.804688 L 345.175781 280.804688 L 351.824219 287.457031 Z M 358.476562 280.804688 " fill-opacity="1" fill-rule="nonzero"/><path fill="#f3e9d7" d="M 378.425781 287.457031 L 371.773438 294.105469 L 385.074219 294.105469 Z M 378.425781 287.457031 " fill-opacity="1" fill-rule="nonzero"/><path fill="#f3e9d7" d="M 411.671875 280.804688 L 398.371094 280.804688 L 405.023438 287.457031 Z M 411.671875 280.804688 " fill-opacity="1" fill-rule="nonzero"/><path fill="#f3e9d7" d="M 431.621094 287.457031 L 424.972656 294.105469 L 438.269531 294.105469 Z M 431.621094 287.457031 " fill-opacity="1" fill-rule="nonzero"/><path fill="#f3e9d7" d="M 464.867188 280.804688 L 451.570312 280.804688 L 458.21875 287.457031 Z M 464.867188 280.804688 " fill-opacity="1" fill-rule="nonzero"/><path fill="#f3e9d7" d="M 484.816406 287.457031 L 478.167969 294.105469 L 491.464844 294.105469 Z M 484.816406 287.457031 " fill-opacity="1" fill-rule="nonzero"/><path fill="#f3e9d7" d="M 518.066406 280.804688 L 504.765625 280.804688 L 511.414062 287.457031 Z M 518.066406 280.804688 " fill-opacity="1" fill-rule="nonzero"/><path fill="#f3e9d7" d="M 538.011719 287.457031 L 531.363281 294.105469 L 538.011719 294.105469 Z M 538.011719 287.457031 " fill-opacity="1" fill-rule="nonzero"/><g clip-path="url(#4b8a46625e)"><path fill="#f3e9d7" d="M 556.304688 292.996094 C 555.972656 292.996094 555.660156 292.871094 555.421875 292.632812 L 544.476562 281.6875 C 543.804688 281.011719 542.917969 280.675781 542.03125 280.675781 L 542.03125 282.902344 C 542.351562 282.902344 542.675781 283.019531 542.914062 283.25 L 553.855469 294.199219 C 554.511719 294.855469 555.378906 295.214844 556.304688 295.214844 C 557.730469 295.214844 558.953125 294.394531 559.496094 293.082031 C 560.046875 291.761719 559.757812 290.316406 558.75 289.304688 L 553.480469 284.039062 C 552.929688 283.496094 553.136719 282.863281 553.207031 282.679688 C 553.285156 282.503906 553.582031 281.914062 554.355469 281.914062 C 554.6875 281.914062 554.996094 282.042969 555.234375 282.28125 L 566.1875 293.222656 C 566.832031 293.878906 567.703125 294.238281 568.628906 294.238281 C 569.554688 294.238281 570.425781 293.878906 571.074219 293.222656 L 582.023438 282.28125 C 582.261719 282.042969 582.570312 281.914062 582.902344 281.914062 C 583.671875 281.914062 583.972656 282.503906 584.050781 282.679688 C 584.125 282.863281 584.328125 283.496094 583.78125 284.039062 L 578.507812 289.304688 C 577.5 290.316406 577.210938 291.761719 577.757812 293.082031 C 578.304688 294.394531 579.527344 295.214844 580.953125 295.214844 C 581.878906 295.214844 582.746094 294.855469 583.402344 294.199219 L 594.347656 283.25 C 594.816406 282.785156 595.636719 282.785156 596.109375 283.25 L 607.054688 294.199219 C 607.707031 294.855469 608.578125 295.214844 609.5 295.214844 C 610.925781 295.214844 612.152344 294.394531 612.695312 293.082031 C 613.242188 291.761719 612.953125 290.316406 611.945312 289.304688 L 606.675781 284.039062 C 606.125 283.496094 606.332031 282.863281 606.402344 282.679688 C 606.480469 282.503906 606.78125 281.914062 607.550781 281.914062 C 607.882812 281.914062 608.195312 282.042969 608.433594 282.28125 L 619.382812 293.222656 C 620.730469 294.578125 622.921875 294.578125 624.269531 293.222656 L 635.21875 282.28125 C 635.457031 282.042969 635.769531 281.914062 636.097656 281.914062 C 636.871094 281.914062 637.167969 282.503906 637.246094 282.679688 C 637.320312 282.863281 637.523438 283.496094 636.976562 284.039062 L 631.707031 289.304688 C 630.695312 290.316406 630.410156 291.761719 630.957031 293.082031 C 631.5 294.394531 632.726562 295.214844 634.148438 295.214844 C 635.074219 295.214844 635.941406 294.855469 636.597656 294.199219 L 647.542969 283.25 C 648.011719 282.785156 648.832031 282.785156 649.304688 283.25 L 660.25 294.199219 C 660.902344 294.855469 661.773438 295.214844 662.699219 295.214844 C 664.121094 295.214844 665.347656 294.394531 665.890625 293.082031 C 666.4375 291.761719 666.148438 290.316406 665.140625 289.304688 L 659.871094 284.039062 C 659.324219 283.496094 659.527344 282.863281 659.601562 282.679688 C 659.679688 282.503906 659.976562 281.914062 660.746094 281.914062 C 661.082031 281.914062 661.390625 282.042969 661.628906 282.28125 L 672.578125 293.222656 C 673.925781 294.578125 676.117188 294.578125 677.464844 293.222656 L 688.414062 282.28125 C 688.652344 282.042969 688.964844 281.914062 689.296875 281.914062 C 690.066406 281.914062 690.363281 282.503906 690.441406 282.679688 C 690.515625 282.863281 690.71875 283.496094 690.171875 284.039062 L 684.902344 289.304688 C 683.894531 290.316406 683.605469 291.761719 684.152344 293.082031 C 684.699219 294.394531 685.921875 295.214844 687.34375 295.214844 C 688.273438 295.214844 689.140625 294.855469 689.796875 294.199219 L 700.738281 283.25 C 701.210938 282.785156 702.03125 282.785156 702.5 283.25 L 713.445312 294.199219 C 714.097656 294.855469 714.96875 295.214844 715.894531 295.214844 C 717.316406 295.214844 718.542969 294.394531 719.085938 293.082031 C 719.632812 291.761719 719.347656 290.316406 718.335938 289.304688 L 713.070312 284.039062 C 712.519531 283.496094 712.726562 282.863281 712.796875 282.679688 C 712.875 282.503906 713.171875 281.914062 713.945312 281.914062 C 714.277344 281.914062 714.585938 282.042969 714.824219 282.28125 L 725.773438 293.222656 C 727.121094 294.578125 729.3125 294.578125 730.664062 293.222656 L 741.609375 282.28125 C 741.847656 282.042969 742.160156 281.914062 742.492188 281.914062 C 743.261719 281.914062 743.5625 282.503906 743.640625 282.679688 C 743.710938 282.863281 743.917969 283.496094 743.367188 284.039062 L 738.097656 289.304688 C 737.089844 290.316406 736.800781 291.761719 737.347656 293.082031 C 737.894531 294.394531 739.117188 295.214844 740.542969 295.214844 C 741.46875 295.214844 742.335938 294.855469 742.992188 294.199219 L 753.9375 283.25 C 754.40625 282.785156 755.226562 282.785156 755.699219 283.25 L 766.640625 294.199219 C 767.296875 294.855469 768.164062 295.214844 769.089844 295.214844 C 770.515625 295.214844 771.738281 294.394531 772.28125 293.082031 C 772.832031 291.761719 772.542969 290.316406 771.535156 289.304688 L 766.265625 284.039062 C 765.714844 283.496094 765.921875 282.863281 765.992188 282.679688 C 766.070312 282.503906 766.371094 281.914062 767.140625 281.914062 C 767.472656 281.914062 767.78125 282.042969 768.019531 282.28125 L 778.972656 293.222656 C 779.617188 293.878906 780.488281 294.238281 781.414062 294.238281 C 782.339844 294.238281 783.210938 293.878906 783.859375 293.222656 L 794.808594 282.28125 C 795.046875 282.042969 795.355469 281.914062 795.6875 281.914062 C 796.460938 281.914062 796.757812 282.503906 796.835938 282.679688 C 796.910156 282.863281 797.113281 283.496094 796.566406 284.039062 L 791.292969 289.304688 C 790.285156 290.316406 789.996094 291.761719 790.546875 293.082031 C 791.089844 294.394531 792.3125 295.214844 793.738281 295.214844 C 794.664062 295.214844 795.53125 294.855469 796.1875 294.199219 L 807.132812 283.25 C 807.371094 283.019531 807.691406 282.902344 808.011719 282.902344 L 808.011719 280.675781 C 807.125 280.675781 806.238281 281.011719 805.570312 281.6875 L 794.621094 292.632812 C 794.382812 292.871094 794.070312 292.996094 793.738281 292.996094 C 792.96875 292.996094 792.667969 292.410156 792.589844 292.234375 C 792.519531 292.050781 792.3125 291.417969 792.863281 290.875 L 798.132812 285.605469 C 799.140625 284.597656 799.429688 283.148438 798.882812 281.832031 C 798.339844 280.519531 797.113281 279.699219 795.6875 279.699219 C 794.765625 279.699219 793.894531 280.058594 793.242188 280.710938 L 782.296875 291.660156 C 781.824219 292.125 781.003906 292.125 780.535156 291.660156 L 769.589844 280.710938 C 768.933594 280.058594 768.066406 279.699219 767.140625 279.699219 C 765.714844 279.699219 764.492188 280.519531 763.945312 281.832031 C 763.398438 283.148438 763.6875 284.597656 764.695312 285.605469 L 769.96875 290.875 C 770.515625 291.417969 770.3125 292.050781 770.238281 292.234375 C 770.160156 292.410156 769.859375 292.996094 769.089844 292.996094 C 768.757812 292.996094 768.449219 292.871094 768.210938 292.632812 L 757.261719 281.6875 C 756.613281 281.035156 755.742188 280.675781 754.816406 280.675781 C 753.890625 280.675781 753.019531 281.035156 752.375 281.6875 L 741.421875 292.632812 C 741.183594 292.871094 740.875 292.996094 740.542969 292.996094 C 739.769531 292.996094 739.472656 292.410156 739.394531 292.234375 C 739.324219 292.050781 739.117188 291.417969 739.667969 290.875 L 744.9375 285.605469 C 745.945312 284.597656 746.230469 283.148438 745.683594 281.832031 C 745.140625 280.519531 743.917969 279.699219 742.492188 279.699219 C 741.566406 279.699219 740.699219 280.058594 740.042969 280.710938 L 729.101562 291.660156 C 728.628906 292.125 727.808594 292.125 727.339844 291.660156 L 716.394531 280.710938 C 715.738281 280.058594 714.871094 279.699219 713.945312 279.699219 C 712.519531 279.699219 711.296875 280.519531 710.75 281.832031 C 710.203125 283.148438 710.492188 284.597656 711.5 285.605469 L 716.769531 290.875 C 717.316406 291.417969 717.113281 292.050781 717.042969 292.234375 C 716.964844 292.410156 716.664062 292.996094 715.894531 292.996094 C 715.5625 292.996094 715.25 292.871094 715.011719 292.632812 L 704.066406 281.6875 C 703.414062 281.035156 702.546875 280.675781 701.621094 280.675781 C 700.695312 280.675781 699.824219 281.035156 699.175781 281.6875 L 688.226562 292.632812 C 687.988281 292.871094 687.679688 292.996094 687.34375 292.996094 C 686.574219 292.996094 686.277344 292.410156 686.199219 292.234375 C 686.125 292.050781 685.921875 291.417969 686.472656 290.875 L 691.738281 285.605469 C 692.75 284.597656 693.035156 283.148438 692.488281 281.832031 C 691.945312 280.519531 690.71875 279.699219 689.296875 279.699219 C 688.371094 279.699219 687.5 280.058594 686.847656 280.710938 L 675.902344 291.660156 C 675.429688 292.125 674.609375 292.125 674.140625 291.660156 L 663.199219 280.710938 C 662.542969 280.058594 661.671875 279.699219 660.746094 279.699219 C 659.324219 279.699219 658.101562 280.519531 657.554688 281.832031 C 657.007812 283.148438 657.292969 284.597656 658.304688 285.605469 L 663.574219 290.875 C 664.121094 291.417969 663.917969 292.050781 663.84375 292.234375 C 663.765625 292.410156 663.46875 292.996094 662.699219 292.996094 C 662.367188 292.996094 662.054688 292.871094 661.816406 292.632812 L 650.867188 281.6875 C 650.21875 281.035156 649.347656 280.675781 648.425781 280.675781 C 647.496094 280.675781 646.628906 281.035156 645.980469 281.6875 L 635.03125 292.632812 C 634.792969 292.871094 634.480469 292.996094 634.148438 292.996094 C 633.378906 292.996094 633.078125 292.410156 633 292.234375 C 632.929688 292.050781 632.726562 291.417969 633.273438 290.875 L 638.542969 285.605469 C 639.550781 284.597656 639.839844 283.148438 639.292969 281.832031 C 638.75 280.519531 637.523438 279.699219 636.097656 279.699219 C 635.175781 279.699219 634.304688 280.058594 633.652344 280.710938 L 622.707031 291.660156 C 622.234375 292.125 621.414062 292.125 620.945312 291.660156 L 610 280.710938 C 609.34375 280.058594 608.476562 279.699219 607.550781 279.699219 C 606.125 279.699219 604.902344 280.519531 604.359375 281.832031 C 603.808594 283.148438 604.097656 284.597656 605.105469 285.605469 L 610.378906 290.875 C 610.925781 291.417969 610.722656 292.050781 610.648438 292.234375 C 610.570312 292.410156 610.273438 292.996094 609.5 292.996094 C 609.167969 292.996094 608.859375 292.871094 608.621094 292.632812 L 597.671875 281.6875 C 597.023438 281.035156 596.152344 280.675781 595.226562 280.675781 C 594.300781 280.675781 593.429688 281.035156 592.785156 281.6875 L 581.832031 292.632812 C 581.59375 292.871094 581.285156 292.996094 580.953125 292.996094 C 580.183594 292.996094 579.882812 292.410156 579.804688 292.234375 C 579.734375 292.050781 579.527344 291.417969 580.078125 290.875 L 585.347656 285.605469 C 586.355469 284.597656 586.644531 283.148438 586.09375 281.832031 C 585.550781 280.519531 584.328125 279.699219 582.902344 279.699219 C 581.976562 279.699219 581.109375 280.058594 580.453125 280.710938 L 569.511719 291.660156 C 569.039062 292.125 568.21875 292.125 567.75 291.660156 L 556.804688 280.710938 C 556.148438 280.058594 555.28125 279.699219 554.355469 279.699219 C 552.929688 279.699219 551.703125 280.519531 551.160156 281.832031 C 550.613281 283.148438 550.902344 284.597656 551.910156 285.605469 L 557.179688 290.875 C 557.730469 291.417969 557.523438 292.050781 557.453125 292.234375 C 557.375 292.410156 557.074219 292.996094 556.304688 292.996094 " fill-opacity="1" fill-rule="nonzero"/></g><path fill="#f3e9d7" d="M 542.03125 294.105469 L 548.679688 294.105469 L 542.03125 287.457031 Z M 542.03125 294.105469 " fill-opacity="1" fill-rule="nonzero"/><path fill="#f3e9d7" d="M 575.277344 280.804688 L 561.980469 280.804688 L 568.628906 287.457031 Z M 575.277344 280.804688 " fill-opacity="1" fill-rule="nonzero"/><path fill="#f3e9d7" d="M 595.226562 287.457031 L 588.578125 294.105469 L 601.878906 294.105469 Z M 595.226562 287.457031 " fill-opacity="1" fill-rule="nonzero"/><path fill="#f3e9d7" d="M 628.476562 280.804688 L 615.175781 280.804688 L 621.824219 287.457031 Z M 628.476562 280.804688 " fill-opacity="1" fill-rule="nonzero"/><path fill="#f3e9d7" d="M 648.425781 287.457031 L 641.773438 294.105469 L 655.074219 294.105469 Z M 648.425781 287.457031 " fill-opacity="1" fill-rule="nonzero"/><path fill="#f3e9d7" d="M 681.671875 280.804688 L 668.371094 280.804688 L 675.023438 287.457031 Z M 681.671875 280.804688 " fill-opacity="1" fill-rule="nonzero"/><path fill="#f3e9d7" d="M 701.621094 287.457031 L 694.972656 294.105469 L 708.269531 294.105469 Z M 701.621094 287.457031 " fill-opacity="1" fill-rule="nonzero"/><path fill="#f3e9d7" d="M 734.867188 280.804688 L 721.570312 280.804688 L 728.21875 287.457031 Z M 734.867188 280.804688 " fill-opacity="1" fill-rule="nonzero"/><path fill="#f3e9d7" d="M 754.816406 287.457031 L 748.167969 294.105469 L 761.464844 294.105469 Z M 754.816406 287.457031 " fill-opacity="1" fill-rule="nonzero"/><path fill="#f3e9d7" d="M 788.066406 280.804688 L 774.765625 280.804688 L 781.414062 287.457031 Z M 788.066406 280.804688 " fill-opacity="1" fill-rule="nonzero"/><path fill="#f3e9d7" d="M 808.011719 287.457031 L 801.363281 294.105469 L 808.011719 294.105469 Z M 808.011719 287.457031 " fill-opacity="1" fill-rule="nonzero"/></svg>