<svg xmlns="http://www.w3.org/2000/svg" xmlns:xlink="http://www.w3.org/1999/xlink" width="1080" zoomAndPan="magnify" viewBox="0 0 810 809.999993" height="1080" preserveAspectRatio="xMidYMid meet" version="1.0"><defs><clipPath id="576b93af73"><path d="M 12.5 18.730469 L 791.527344 18.730469 L 791.527344 797.757812 L 12.5 797.757812 Z M 12.5 18.730469 " clip-rule="nonzero"/></clipPath><clipPath id="44e5cdd8be"><path d="M 402.015625 18.730469 C 186.890625 18.730469 12.5 193.121094 12.5 408.242188 C 12.5 623.367188 186.890625 797.757812 402.015625 797.757812 C 617.136719 797.757812 791.527344 623.367188 791.527344 408.242188 C 791.527344 193.121094 617.136719 18.730469 402.015625 18.730469 Z M 402.015625 18.730469 " clip-rule="nonzero"/></clipPath><clipPath id="b840806417"><path d="M 546 196 L 794.691406 196 L 794.691406 767 L 546 767 Z M 546 196 " clip-rule="nonzero"/></clipPath><clipPath id="30e782c3b5"><path d="M 346 15.667969 L 732 15.667969 L 732 222 L 346 222 Z M 346 15.667969 " clip-rule="nonzero"/></clipPath><clipPath id="cd17318ee7"><path d="M 9.441406 111 L 180 111 L 180 706 L 9.441406 706 Z M 9.441406 111 " clip-rule="nonzero"/></clipPath><clipPath id="92ad24f8cd"><path d="M 144 661 L 566 661 L 566 800.917969 L 144 800.917969 Z M 144 661 " clip-rule="nonzero"/></clipPath></defs><g clip-path="url(#576b93af73)"><g clip-path="url(#44e5cdd8be)"><path fill="#186840" d="M 12.5 18.730469 L 791.527344 18.730469 L 791.527344 797.757812 L 12.5 797.757812 Z M 12.5 18.730469 " fill-opacity="1" fill-rule="nonzero"/></g></g><g clip-path="url(#b840806417)"><path fill="#f3e9d7" d="M 794.269531 394.582031 C 794.269531 392.226562 794.113281 389.871094 794.113281 387.515625 L 793.640625 380.605469 C 793.328125 375.894531 793.015625 371.339844 792.542969 366.628906 L 790.816406 352.652344 C 787.988281 334.125 784.378906 315.75 778.882812 297.851562 C 778.253906 295.652344 777.625 293.296875 776.996094 291.097656 L 774.800781 284.503906 C 773.230469 280.105469 771.816406 275.550781 770.246094 271.3125 L 765.0625 258.277344 C 763.335938 253.882812 761.292969 249.800781 759.410156 245.402344 L 756.582031 238.964844 C 755.640625 236.921875 754.542969 234.726562 753.441406 232.683594 C 751.246094 228.601562 749.203125 224.359375 747.003906 220.277344 C 742.292969 212.113281 737.738281 203.945312 732.558594 196.253906 L 693.773438 221.21875 L 698.324219 228.285156 L 724.550781 212.269531 C 733.8125 227.660156 742.136719 243.519531 749.203125 260.007812 C 750.929688 264.089844 752.5 268.328125 754.226562 272.410156 L 756.742188 278.691406 L 758.9375 285.132812 C 760.351562 289.371094 761.921875 293.609375 763.179688 297.851562 L 766.789062 310.726562 L 706.648438 326.902344 C 711.832031 346.214844 715.128906 366 716.542969 385.945312 L 762.863281 382.644531 C 762.394531 376.992188 762.078125 371.183594 761.292969 365.53125 C 760.507812 359.875 760.039062 354.066406 758.9375 348.570312 L 743.707031 351.082031 C 744.804688 356.421875 745.277344 361.917969 746.0625 367.414062 L 730.671875 369.296875 C 729.574219 358.933594 727.691406 348.570312 725.492188 338.363281 L 770.875 328.472656 C 775.898438 351.867188 778.726562 375.738281 779.351562 399.449219 L 748.417969 400.234375 L 748.574219 408.710938 L 748.730469 408.710938 L 748.574219 417.191406 L 779.195312 417.976562 C 778.566406 453.78125 772.285156 489.425781 761.609375 523.65625 L 702.722656 504.8125 C 696.597656 523.816406 688.746094 542.1875 679.167969 559.773438 L 719.839844 582.074219 C 722.507812 577.046875 725.019531 571.867188 727.691406 566.839844 C 730.203125 561.660156 732.402344 556.476562 734.757812 551.136719 L 720.46875 545.015625 C 718.113281 550.039062 716.070312 555.0625 713.714844 559.929688 L 699.738281 553.179688 C 701.9375 548.46875 704.136719 543.601562 706.335938 538.890625 C 708.375 534.023438 710.261719 529.152344 712.144531 524.285156 L 755.640625 540.460938 C 747.320312 562.914062 736.796875 584.429688 724.394531 604.84375 L 698.011719 588.824219 L 693.457031 595.890625 L 693.613281 596.046875 C 692.042969 598.402344 690.632812 600.757812 689.0625 603.113281 L 714.5 620.386719 C 704.449219 635.148438 693.300781 649.28125 681.210938 662.628906 C 669.117188 675.820312 656.085938 688.222656 642.421875 699.6875 L 603.007812 652.109375 C 587.621094 664.828125 570.976562 676.132812 553.546875 685.710938 L 575.84375 726.382812 C 580.867188 723.554688 585.734375 720.730469 590.761719 717.746094 C 595.628906 714.605469 600.496094 711.621094 605.207031 708.480469 L 596.570312 695.761719 C 592.015625 698.746094 587.304688 701.730469 582.753906 704.710938 L 574.746094 691.523438 L 587.933594 683.042969 L 600.652344 673.933594 L 628.449219 710.992188 C 609.289062 725.28125 588.875 737.84375 567.363281 748.367188 L 553.859375 720.570312 C 551.347656 721.828125 548.675781 722.925781 546.164062 724.183594 L 565.480469 766.265625 C 633.628906 735.175781 692.203125 684.296875 732.558594 621.488281 C 737.738281 613.636719 742.292969 605.46875 747.003906 597.460938 C 749.203125 593.378906 751.246094 589.140625 753.441406 585.054688 C 754.542969 583.015625 755.640625 580.972656 756.582031 578.773438 L 759.410156 572.335938 C 761.292969 568.097656 763.335938 563.855469 765.0625 559.460938 L 770.246094 546.425781 C 771.972656 542.03125 773.386719 537.632812 774.800781 533.238281 L 776.996094 526.640625 C 777.625 524.441406 778.253906 522.085938 778.882812 519.890625 C 784.378906 501.988281 787.988281 483.617188 790.816406 465.085938 L 792.542969 451.109375 C 793.015625 446.398438 793.328125 441.847656 793.640625 437.136719 L 794.113281 430.226562 C 794.269531 427.871094 794.269531 425.515625 794.269531 423.160156 L 794.585938 409.183594 Z M 794.269531 394.582031 " fill-opacity="1" fill-rule="nonzero"/></g><path fill="#f3e9d7" d="M 641.167969 254.824219 C 644.9375 260.476562 648.234375 266.445312 651.53125 272.253906 C 653.101562 275.238281 654.671875 278.222656 656.242188 281.207031 C 657.027344 282.777344 657.8125 284.1875 658.597656 285.757812 L 660.640625 290.3125 C 662.050781 293.453125 663.464844 296.4375 664.722656 299.578125 L 668.492188 309 C 669.746094 312.140625 670.6875 315.4375 671.789062 318.578125 L 673.359375 323.445312 C 673.828125 325.015625 674.300781 326.742188 674.773438 328.3125 C 678.695312 341.191406 681.367188 354.539062 683.40625 367.886719 L 684.664062 377.933594 C 685.136719 381.234375 685.136719 384.6875 685.449219 388.140625 L 685.921875 393.167969 C 686.078125 394.894531 686.078125 396.621094 686.078125 398.191406 L 686.390625 408.398438 L 686.078125 418.605469 C 686.078125 420.332031 686.078125 422.058594 685.921875 423.628906 L 685.449219 428.65625 C 685.136719 431.953125 684.976562 435.40625 684.664062 438.863281 L 683.40625 448.914062 C 681.367188 462.257812 678.855469 475.605469 674.773438 488.484375 C 674.300781 490.054688 673.828125 491.78125 673.359375 493.351562 L 671.789062 498.21875 C 670.6875 501.359375 669.746094 504.65625 668.492188 507.796875 L 664.722656 517.21875 C 663.464844 520.359375 661.894531 523.34375 660.640625 526.484375 L 658.597656 531.039062 C 657.8125 532.609375 657.027344 534.023438 656.242188 535.59375 C 654.671875 538.574219 653.257812 541.558594 651.53125 544.542969 C 648.078125 550.351562 644.9375 556.320312 641.167969 561.972656 L 679.796875 586.941406 L 684.191406 580.1875 L 658.125 564.328125 C 665.351562 552.082031 672.101562 539.519531 677.597656 526.328125 C 679.011719 523.03125 680.265625 519.730469 681.523438 516.433594 L 683.566406 511.410156 L 685.292969 506.386719 C 686.390625 502.929688 687.648438 499.632812 688.589844 496.335938 L 691.574219 486.128906 L 751.246094 502.144531 C 757.210938 480.003906 760.980469 457.234375 762.550781 434.464844 L 716.226562 431.167969 C 715.757812 436.191406 715.597656 441.21875 714.8125 446.085938 C 714.1875 450.953125 713.714844 455.976562 712.773438 460.847656 L 728.003906 463.359375 C 729.105469 458.175781 729.574219 452.996094 730.203125 447.8125 L 745.589844 449.699219 C 744.335938 460.53125 742.449219 471.367188 740.253906 482.203125 L 694.871094 472.308594 C 698.953125 453.78125 701.152344 434.78125 701.625 415.777344 L 732.402344 416.5625 L 732.558594 408.554688 L 732.402344 408.554688 L 732.242188 400.546875 L 701.78125 401.332031 C 701.308594 372.753906 696.285156 344.488281 687.804688 317.320312 L 746.691406 298.480469 C 739.78125 276.652344 730.671875 255.453125 719.683594 235.351562 L 679.011719 257.652344 C 681.367188 262.046875 683.566406 266.601562 685.921875 271 C 688.117188 275.550781 690.003906 280.105469 692.203125 284.660156 L 706.492188 278.535156 C 704.292969 273.824219 702.25 268.957031 699.894531 264.246094 L 713.871094 257.492188 C 716.226562 262.363281 718.425781 267.542969 720.625 272.410156 C 722.824219 277.4375 724.707031 282.617188 726.746094 287.644531 L 683.25 303.816406 C 676.65625 286.074219 668.332031 268.957031 658.441406 252.625 L 684.664062 236.609375 L 680.265625 229.855469 L 680.109375 230.015625 C 678.695312 227.816406 677.285156 225.460938 675.714844 223.261719 L 650.433594 240.378906 C 642.421875 228.601562 633.472656 217.453125 624.050781 206.773438 C 614.316406 196.253906 604.109375 186.515625 593.117188 177.253906 L 632.53125 129.515625 C 614.945312 114.910156 595.785156 102.035156 575.6875 91.042969 L 553.386719 131.714844 C 557.628906 134.226562 562.023438 136.582031 566.421875 139.25 L 578.984375 147.417969 L 587.621094 134.699219 L 574.429688 126.21875 L 582.4375 113.027344 C 586.992188 116.011719 591.703125 118.835938 596.257812 121.976562 L 609.605469 131.558594 L 581.808594 168.617188 C 566.578125 157.152344 550.40625 147.257812 533.289062 138.9375 L 546.792969 111.300781 C 544.4375 110.042969 541.925781 109.101562 539.414062 107.84375 L 520.253906 149.773438 C 569.40625 172.226562 611.960938 209.285156 641.167969 254.824219 Z M 641.167969 254.824219 " fill-opacity="1" fill-rule="nonzero"/><g clip-path="url(#30e782c3b5)"><path fill="#f3e9d7" d="M 361.027344 64.664062 L 357.417969 34.199219 C 359.613281 33.886719 361.8125 33.570312 364.011719 33.414062 L 370.761719 32.941406 C 375.160156 32.628906 379.714844 32.15625 384.109375 32 C 393.0625 31.84375 402.011719 31.371094 410.964844 31.84375 L 417.714844 32 C 419.914062 32 422.113281 32.15625 424.46875 32.316406 L 437.816406 33.257812 C 442.210938 33.570312 446.765625 34.355469 451.164062 34.828125 C 455.558594 35.457031 460.113281 35.925781 464.511719 36.710938 L 454.304688 97.636719 C 473.929688 100.9375 493.402344 106.117188 512.089844 113.027344 L 528.261719 69.53125 C 522.925781 67.488281 517.429688 65.761719 512.089844 63.878906 C 506.59375 61.992188 501.097656 60.738281 495.601562 59.007812 L 491.519531 74.085938 C 496.699219 75.65625 502.039062 76.910156 507.378906 78.636719 L 502.667969 93.398438 C 497.644531 91.671875 492.617188 90.414062 487.59375 89.003906 C 485.082031 88.21875 482.566406 87.746094 479.898438 87.117188 L 472.203125 85.390625 L 481.941406 40.007812 C 505.335938 45.035156 528.261719 52.257812 550.089844 61.679688 L 538 90.101562 L 545.695312 93.554688 L 545.851562 93.398438 C 548.363281 94.65625 551.03125 95.597656 553.546875 97.011719 L 567.050781 69.375 C 583.222656 77.226562 598.613281 86.332031 613.53125 96.226562 C 628.289062 106.273438 642.421875 117.425781 655.769531 129.359375 L 614.160156 175.054688 C 628.917969 188.558594 642.421875 203.320312 654.359375 219.335938 L 691.417969 191.542969 L 680.738281 178.039062 L 669.433594 165.003906 L 657.96875 175.367188 L 668.804688 187.773438 L 656.871094 197.664062 L 646.507812 185.730469 L 635.671875 174.425781 L 668.492188 141.605469 C 685.449219 158.566406 700.679688 176.9375 714.027344 196.722656 L 688.433594 214.152344 C 690.003906 216.507812 691.417969 218.863281 692.988281 221.21875 L 731.929688 196.09375 C 691.574219 133.285156 633 82.25 564.851562 51.316406 C 560.613281 49.429688 556.371094 47.390625 551.976562 45.660156 L 538.941406 40.480469 C 534.542969 38.753906 530.148438 37.339844 525.75 35.925781 L 519.15625 33.726562 C 516.957031 33.101562 514.601562 32.472656 512.402344 31.84375 C 494.503906 26.347656 476.128906 22.734375 457.601562 19.910156 L 443.625 18.183594 C 438.914062 17.710938 434.359375 17.398438 429.648438 17.082031 L 422.738281 16.613281 C 420.386719 16.453125 418.03125 16.453125 415.675781 16.453125 L 402.011719 15.984375 L 388.035156 16.296875 C 385.679688 16.296875 383.324219 16.453125 380.96875 16.453125 L 374.0625 16.925781 C 369.351562 17.238281 364.796875 17.554688 360.085938 18.023438 L 346.109375 19.753906 L 352.546875 65.449219 Z M 361.027344 64.664062 " fill-opacity="1" fill-rule="nonzero"/></g><path fill="#f3e9d7" d="M 181.542969 141.292969 L 162.070312 117.582031 C 176.046875 106.273438 190.496094 95.910156 205.726562 86.488281 C 221.113281 77.226562 236.976562 68.902344 253.464844 61.835938 L 277.960938 118.679688 C 296.332031 110.828125 315.332031 104.703125 334.960938 100.464844 L 324.910156 55.242188 L 316.589844 57.125 C 313.761719 57.753906 310.9375 58.382812 308.265625 59.167969 C 302.769531 60.738281 297.273438 62.148438 291.777344 64.035156 L 296.488281 78.796875 C 301.671875 77.066406 307.011719 75.65625 312.347656 74.242188 L 316.273438 89.160156 C 311.25 90.570312 306.226562 91.828125 301.199219 93.554688 C 296.332031 95.28125 291.308594 96.851562 286.28125 98.738281 L 270.109375 55.242188 C 292.5625 46.917969 315.644531 40.636719 339.199219 36.710938 L 344.382812 67.175781 C 347.210938 66.703125 349.878906 66.234375 352.707031 65.917969 L 346.109375 20.066406 C 327.582031 22.894531 309.207031 26.503906 291.308594 32 C 289.109375 32.628906 286.753906 33.257812 284.554688 33.886719 L 277.960938 36.082031 C 273.5625 37.652344 269.007812 39.066406 264.769531 40.636719 L 251.734375 45.820312 C 247.339844 47.546875 243.257812 49.585938 238.859375 51.472656 L 232.421875 54.296875 C 230.378906 55.242188 228.179688 56.339844 226.140625 57.4375 C 222.058594 59.636719 217.816406 61.679688 213.734375 63.878906 C 205.570312 68.589844 197.402344 73.140625 189.710938 78.324219 C 181.699219 83.191406 174.320312 88.84375 166.625 94.183594 C 159.246094 99.992188 151.867188 105.648438 144.957031 111.769531 L 175.261719 146.632812 Z M 181.542969 141.292969 " fill-opacity="1" fill-rule="nonzero"/><path fill="#f3e9d7" d="M 215.933594 193.738281 C 220.957031 189.1875 226.453125 185.105469 231.636719 180.863281 C 237.132812 176.9375 242.628906 172.855469 248.28125 169.402344 C 253.933594 165.632812 259.902344 162.335938 265.710938 159.035156 C 268.695312 157.464844 271.679688 155.894531 274.660156 154.324219 C 276.230469 153.539062 277.644531 152.753906 279.214844 151.96875 L 283.769531 149.929688 C 286.910156 148.515625 289.894531 147.101562 293.035156 145.847656 L 302.457031 142.078125 C 305.597656 140.820312 308.894531 139.878906 312.035156 138.78125 L 316.902344 137.210938 C 318.472656 136.738281 320.199219 136.269531 321.769531 135.796875 C 334.648438 131.871094 347.996094 129.203125 361.34375 127.160156 L 371.390625 125.902344 C 374.6875 125.433594 378.144531 125.433594 381.597656 125.117188 L 386.625 124.648438 C 388.351562 124.492188 390.078125 124.492188 391.648438 124.492188 L 401.855469 124.175781 L 412.0625 124.492188 C 413.789062 124.492188 415.515625 124.492188 417.085938 124.648438 L 422.113281 125.117188 C 425.410156 125.433594 428.863281 125.589844 432.320312 125.902344 L 442.367188 127.160156 C 455.714844 129.203125 469.0625 131.714844 481.941406 135.796875 C 483.511719 136.269531 485.238281 136.738281 486.808594 137.210938 L 491.675781 138.78125 C 494.816406 139.878906 498.113281 140.820312 501.253906 142.078125 L 510.675781 145.847656 C 513.816406 147.101562 516.800781 148.671875 519.941406 149.929688 L 539.097656 108.160156 L 531.71875 104.863281 L 519.785156 132.96875 C 516.488281 131.558594 513.1875 130.300781 509.890625 129.042969 L 504.867188 127.160156 L 499.839844 125.433594 C 496.386719 124.332031 493.089844 123.078125 489.792969 122.136719 L 479.585938 119.152344 L 477.070312 118.367188 L 474.402344 117.738281 L 469.222656 116.480469 C 465.765625 115.695312 462.3125 114.753906 458.855469 114.285156 L 448.335938 112.398438 L 437.816406 110.984375 L 445.039062 49.585938 C 422.269531 46.917969 399.34375 46.445312 376.574219 48.015625 L 379.871094 94.339844 C 382.382812 94.183594 384.894531 93.871094 387.410156 93.871094 L 394.945312 93.710938 L 402.484375 93.554688 L 410.019531 93.710938 L 410.335938 78.324219 L 402.484375 78.167969 L 394.632812 78.324219 L 394.316406 62.933594 L 402.484375 62.777344 L 410.648438 62.933594 L 418.8125 63.09375 C 421.484375 63.25 424.308594 63.40625 426.980469 63.71875 L 423.683594 110.042969 C 404.683594 108.789062 385.523438 109.101562 366.679688 111.300781 L 362.914062 80.367188 L 354.902344 81.308594 L 354.902344 81.464844 C 352.234375 81.777344 349.566406 82.25 346.894531 82.722656 L 351.921875 112.871094 L 341.398438 114.753906 L 331.035156 117.109375 C 327.582031 117.894531 324.125 118.835938 320.671875 119.78125 C 317.214844 120.878906 313.761719 121.664062 310.464844 122.761719 C 296.960938 127.003906 283.769531 132.5 270.894531 138.625 L 243.882812 83.035156 C 223.3125 93.085938 203.683594 105.019531 185.3125 118.835938 L 213.105469 155.894531 L 225.355469 147.257812 L 237.917969 139.09375 L 229.910156 125.902344 L 216.71875 134.382812 L 208.082031 121.507812 L 221.898438 112.554688 C 226.609375 109.730469 231.320312 107.058594 236.191406 104.390625 L 258.488281 145.0625 C 241.84375 154.167969 225.984375 164.847656 211.378906 176.9375 L 191.75 153.226562 L 185.625 158.566406 L 185.785156 158.722656 L 179.660156 164.0625 L 200.230469 186.675781 C 189.710938 196.410156 179.972656 206.617188 170.707031 217.609375 C 161.757812 228.757812 153.4375 240.222656 145.898438 252.3125 L 93.136719 220.121094 C 81.203125 239.75 71.152344 260.320312 63.144531 281.832031 L 106.640625 298.007812 C 108.523438 293.453125 110.253906 288.742188 112.136719 284.1875 C 114.179688 279.636719 116.21875 275.082031 118.417969 270.527344 L 104.441406 263.773438 C 102.085938 268.484375 100.046875 273.355469 97.847656 278.066406 L 83.714844 271.941406 C 86.070312 266.914062 88.113281 261.890625 90.625 257.023438 C 93.136719 252.15625 95.648438 247.285156 98.160156 242.417969 L 138.832031 264.71875 C 129.722656 281.363281 122.1875 298.949219 116.375 317.007812 L 87.167969 307.585938 C 86.226562 310.097656 85.597656 312.769531 84.8125 315.28125 L 129.097656 328.3125 C 144.328125 276.496094 174.792969 229.230469 215.933594 193.738281 Z M 215.933594 193.738281 " fill-opacity="1" fill-rule="nonzero"/><g clip-path="url(#cd17318ee7)"><path fill="#f3e9d7" d="M 168.824219 664.828125 L 148.097656 687.597656 C 134.90625 675.503906 122.5 662.472656 111.039062 648.808594 C 99.730469 634.835938 89.210938 620.386719 79.945312 605.15625 L 132.707031 572.964844 C 122.34375 555.847656 113.550781 537.949219 106.640625 519.261719 L 63.144531 535.433594 C 65.34375 540.773438 67.226562 546.113281 69.582031 551.453125 C 71.9375 556.632812 74.292969 561.972656 76.804688 567.15625 L 90.78125 560.402344 C 88.425781 555.535156 86.226562 550.351562 83.871094 545.484375 L 98.003906 539.359375 C 100.203125 544.070312 102.246094 548.941406 104.597656 553.652344 C 106.953125 558.363281 109.308594 563.070312 111.824219 567.625 L 71.152344 589.925781 C 59.6875 569.039062 50.269531 546.898438 42.886719 524.128906 L 72.25 514.707031 C 71.308594 512.039062 70.523438 509.367188 69.738281 506.699219 L 69.582031 506.699219 L 67.226562 498.535156 L 37.707031 505.914062 L 36.761719 502.617188 L 35.976562 499.320312 L 34.40625 492.722656 C 33.464844 488.328125 32.367188 483.929688 31.582031 479.53125 L 29.226562 466.34375 C 28.597656 461.945312 28.125 457.390625 27.5 452.996094 C 27.183594 450.796875 26.871094 448.597656 26.714844 446.398438 L 26.242188 439.648438 C 25.929688 435.25 25.457031 430.695312 25.300781 426.300781 C 25.144531 417.507812 24.671875 408.554688 25.144531 399.605469 L 87.011719 401.019531 C 87.484375 381.074219 89.839844 361.132812 93.921875 341.660156 L 48.539062 331.925781 C 46.183594 343.074219 44.144531 354.378906 42.886719 365.84375 L 58.277344 367.726562 C 59.0625 362.230469 59.53125 356.894531 60.632812 351.398438 L 75.863281 353.910156 C 74.765625 359.089844 74.449219 364.273438 73.664062 369.457031 C 72.878906 374.636719 72.566406 379.820312 72.25 385.160156 L 25.929688 381.859375 C 27.65625 357.992188 31.582031 334.4375 37.707031 311.199219 L 67.539062 319.207031 L 69.894531 311.039062 L 69.738281 311.039062 C 70.523438 308.371094 71.152344 305.542969 72.25 303.03125 L 43.042969 293.609375 L 47.285156 280.890625 C 48.699219 276.652344 50.582031 272.570312 52.152344 268.328125 L 54.664062 262.046875 L 57.492188 255.921875 C 59.375 251.839844 61.101562 247.757812 63.144531 243.675781 C 70.996094 227.5 80.101562 212.113281 89.996094 197.195312 L 141.1875 231.898438 C 152.335938 215.410156 165.210938 199.863281 179.34375 185.730469 L 146.210938 152.914062 L 134.433594 165.316406 L 123.128906 178.351562 L 135.0625 188.246094 L 145.898438 175.839844 L 157.359375 186.203125 L 146.996094 198.136719 L 137.261719 210.542969 L 100.203125 182.75 C 114.492188 163.589844 130.667969 145.847656 148.253906 129.828125 L 168.980469 152.597656 L 175.417969 147.101562 L 144.957031 111.929688 C 137.734375 117.894531 131.136719 124.492188 124.386719 130.929688 C 117.945312 137.679688 111.351562 144.277344 105.382812 151.5 C 99.105469 158.410156 93.449219 165.945312 87.796875 173.167969 C 82.457031 180.707031 76.804688 188.246094 71.9375 196.253906 C 66.753906 204.105469 62.203125 212.269531 57.492188 220.277344 C 55.292969 224.359375 53.25 228.601562 51.054688 232.683594 C 49.953125 234.726562 48.855469 236.765625 47.914062 238.964844 L 45.085938 245.402344 C 43.203125 249.640625 41.160156 253.882812 39.433594 258.277344 L 34.25 271.3125 C 32.523438 275.710938 31.109375 280.105469 29.695312 284.503906 L 27.5 291.097656 C 26.871094 293.296875 26.242188 295.652344 25.613281 297.851562 C 20.117188 315.75 16.507812 334.125 13.679688 352.652344 L 11.953125 366.628906 C 11.480469 371.339844 11.167969 375.894531 10.851562 380.605469 L 10.382812 387.515625 C 10.226562 389.871094 10.226562 392.226562 10.226562 394.582031 L 9.441406 408.554688 L 9.753906 422.53125 C 9.753906 424.886719 9.910156 427.242188 9.910156 429.597656 L 10.382812 436.507812 C 10.695312 441.21875 11.011719 445.773438 11.480469 450.484375 L 13.207031 464.457031 C 16.035156 482.988281 19.648438 501.359375 25.144531 519.261719 C 25.769531 521.460938 26.398438 523.816406 27.027344 526.011719 L 29.226562 532.609375 C 30.796875 537.003906 32.210938 541.558594 33.78125 545.800781 L 38.960938 558.832031 C 40.6875 563.230469 42.730469 567.3125 44.613281 571.707031 L 47.441406 578.148438 C 48.382812 580.1875 49.484375 582.386719 50.582031 584.429688 C 52.78125 588.511719 54.820312 592.75 57.019531 596.832031 C 61.730469 605 66.285156 613.164062 71.464844 620.859375 C 76.335938 628.867188 81.988281 636.246094 87.328125 643.941406 C 93.136719 651.324219 98.789062 658.703125 104.914062 665.613281 C 110.878906 672.835938 117.476562 679.429688 123.914062 686.183594 C 130.667969 692.621094 137.261719 699.214844 144.484375 705.183594 L 174.792969 670.324219 Z M 168.824219 664.828125 " fill-opacity="1" fill-rule="nonzero"/></g><path fill="#f3e9d7" d="M 317.058594 680.058594 L 312.191406 678.488281 C 309.050781 677.390625 305.753906 676.445312 302.613281 675.191406 L 293.191406 671.421875 C 290.050781 670.164062 287.066406 668.59375 283.925781 667.339844 L 279.371094 665.296875 C 277.800781 664.511719 276.390625 663.726562 274.820312 662.941406 C 271.835938 661.371094 268.851562 659.960938 265.867188 658.230469 C 260.058594 654.777344 254.089844 651.636719 248.4375 647.867188 C 242.628906 644.414062 237.289062 640.171875 231.792969 636.40625 C 226.453125 632.164062 221.113281 628.082031 216.089844 623.527344 C 175.105469 588.039062 144.484375 540.773438 129.410156 488.796875 C 125.484375 475.921875 122.816406 462.574219 120.773438 449.226562 L 119.515625 439.175781 C 119.046875 435.878906 119.046875 432.425781 118.730469 428.96875 L 118.261719 423.945312 C 118.105469 422.21875 118.105469 420.488281 118.105469 418.917969 L 117.789062 408.710938 L 118.105469 398.503906 C 118.105469 396.777344 118.105469 395.050781 118.261719 393.480469 L 118.730469 388.457031 C 119.046875 385.160156 119.203125 381.703125 119.515625 378.25 L 120.773438 368.199219 C 122.816406 354.851562 125.328125 341.503906 129.410156 328.628906 L 85.285156 315.75 L 83.085938 323.445312 L 112.609375 331.296875 L 111.824219 333.808594 L 111.195312 336.480469 L 109.9375 341.660156 C 109.152344 345.117188 108.210938 348.570312 107.738281 352.023438 L 105.855469 362.546875 L 104.441406 373.066406 C 104.285156 374.792969 103.972656 376.523438 103.8125 378.40625 L 103.34375 383.746094 C 103.03125 387.355469 102.714844 390.8125 102.558594 394.421875 C 102.402344 401.488281 102.085938 408.710938 102.402344 415.777344 L 40.53125 417.191406 C 41.003906 440.117188 43.671875 462.886719 48.539062 485.34375 L 93.921875 475.605469 C 91.878906 465.871094 90.152344 455.976562 89.054688 446.085938 L 73.664062 447.96875 C 74.449219 453.152344 74.765625 458.332031 75.863281 463.515625 L 60.632812 466.027344 C 59.53125 460.6875 59.0625 455.191406 58.277344 449.699219 C 57.492188 444.203125 57.175781 438.863281 56.707031 433.367188 L 103.03125 430.070312 C 104.285156 449.070312 107.425781 467.753906 112.292969 486.128906 L 82.617188 493.980469 L 84.8125 501.675781 L 84.972656 501.675781 C 85.757812 504.1875 86.382812 506.855469 87.328125 509.367188 L 116.375 500.105469 L 119.832031 510.152344 C 120.929688 513.449219 122.34375 516.75 123.601562 520.046875 L 125.484375 525.070312 L 127.683594 529.9375 C 129.253906 533.238281 130.507812 536.378906 132.078125 539.675781 C 138.359375 552.394531 145.585938 564.800781 153.4375 576.578125 L 102.246094 611.28125 C 115.121094 630.28125 129.722656 648.023438 145.898438 664.199219 L 178.71875 631.378906 L 168.351562 620.542969 L 158.617188 609.238281 L 146.683594 619.132812 L 157.046875 631.066406 L 145.585938 641.429688 L 134.75 629.023438 L 124.542969 616.148438 L 161.601562 588.355469 C 173.0625 603.585938 185.785156 617.71875 199.917969 630.4375 L 179.1875 653.207031 L 185.3125 658.546875 L 185.46875 658.390625 L 191.59375 663.726562 L 211.066406 640.171875 C 222.214844 649.125 233.675781 657.445312 245.925781 664.984375 C 258.175781 672.207031 270.734375 678.960938 283.769531 684.613281 L 259.429688 741.457031 C 280.472656 750.40625 302.457031 757.472656 324.753906 762.339844 L 334.648438 716.960938 L 327.421875 715.234375 C 324.910156 714.761719 322.554688 714.132812 320.199219 713.347656 C 315.488281 711.933594 310.621094 710.679688 305.910156 709.109375 L 301.199219 723.871094 C 306.226562 725.597656 311.25 726.851562 316.273438 728.265625 L 312.347656 743.183594 C 307.167969 741.613281 301.828125 740.359375 296.488281 738.628906 C 291.308594 736.902344 286.125 735.175781 280.941406 733.292969 L 297.117188 689.792969 C 314.859375 696.390625 333.234375 701.257812 352.078125 704.398438 L 347.050781 734.703125 C 349.722656 735.175781 352.390625 735.648438 355.0625 735.960938 L 361.5 690.265625 C 348.152344 688.222656 334.804688 685.710938 321.925781 681.628906 C 320.199219 681 318.628906 680.53125 317.058594 680.058594 Z M 317.058594 680.058594 " fill-opacity="1" fill-rule="nonzero"/><g clip-path="url(#92ad24f8cd)"><path fill="#f3e9d7" d="M 538.15625 727.167969 L 550.246094 755.433594 C 546.164062 757.160156 541.925781 758.730469 537.84375 760.457031 L 531.5625 762.96875 L 525.121094 765.167969 C 520.882812 766.582031 516.644531 768.152344 512.402344 769.40625 L 499.527344 773.019531 L 496.230469 773.960938 L 492.933594 774.746094 L 486.335938 776.316406 C 481.941406 777.257812 477.542969 778.359375 473.144531 779.144531 L 459.957031 781.5 C 455.558594 782.128906 451.003906 782.597656 446.609375 783.226562 L 439.386719 721.828125 C 419.597656 724.183594 399.5 724.65625 379.558594 723.242188 L 376.257812 769.566406 C 379.085938 769.722656 381.914062 770.035156 384.894531 770.191406 L 393.53125 770.351562 L 402.167969 770.507812 L 410.804688 770.351562 L 410.492188 754.960938 L 402.328125 755.117188 L 394.160156 754.960938 L 394.476562 739.574219 L 402.328125 739.730469 L 410.179688 739.574219 L 418.027344 739.414062 C 420.699219 739.414062 423.210938 739.101562 425.878906 738.945312 L 429.179688 785.109375 C 405.308594 786.839844 381.441406 786.210938 357.730469 783.539062 L 361.34375 752.921875 L 353.019531 751.820312 L 353.019531 751.976562 C 350.191406 751.664062 347.523438 751.191406 344.695312 750.722656 L 339.671875 781.027344 L 326.480469 778.671875 L 313.449219 775.6875 C 309.050781 774.746094 304.8125 773.492188 300.414062 772.234375 C 296.175781 770.976562 291.777344 769.878906 287.539062 768.464844 C 270.421875 763.128906 253.777344 756.21875 237.601562 748.523438 L 264.613281 692.933594 C 246.710938 684.140625 229.59375 673.777344 213.578125 661.84375 L 185.3125 698.273438 L 199.289062 708.167969 L 213.734375 717.429688 L 221.742188 704.242188 L 207.925781 695.289062 L 216.5625 682.414062 L 229.75 690.894531 L 243.414062 698.746094 L 221.113281 739.414062 C 200.074219 727.953125 180.289062 714.449219 161.914062 699.375 L 181.542969 675.503906 L 175.105469 670.007812 L 144.800781 705.027344 C 151.707031 711.308594 159.246094 716.960938 166.46875 722.613281 C 174.007812 727.953125 181.542969 733.605469 189.550781 738.472656 C 197.402344 743.65625 205.570312 748.210938 213.578125 752.921875 C 217.660156 755.117188 221.898438 757.160156 225.984375 759.359375 C 228.023438 760.457031 230.066406 761.558594 232.265625 762.5 L 238.703125 765.324219 C 242.941406 767.210938 247.183594 769.25 251.578125 770.976562 L 264.613281 776.160156 C 269.007812 777.886719 273.40625 779.300781 277.800781 780.714844 L 284.398438 782.914062 C 286.597656 783.539062 288.953125 784.167969 291.148438 784.796875 C 309.050781 790.292969 327.421875 793.90625 345.953125 796.730469 L 359.929688 798.457031 C 364.640625 798.929688 369.191406 799.242188 373.902344 799.558594 L 380.8125 800.027344 C 383.167969 800.1875 385.523438 800.1875 387.878906 800.1875 L 401.855469 800.5 L 415.832031 800.1875 C 418.1875 800.1875 420.542969 800.027344 422.898438 800.027344 L 429.804688 799.558594 C 434.515625 799.242188 439.070312 798.929688 443.78125 798.457031 L 457.757812 796.730469 C 476.285156 793.90625 494.660156 790.292969 512.5625 784.796875 C 514.757812 784.167969 517.113281 783.539062 519.3125 782.914062 L 525.90625 780.714844 C 530.304688 779.144531 534.859375 777.730469 539.097656 776.160156 L 552.132812 770.976562 C 556.527344 769.25 560.613281 767.210938 565.007812 765.324219 L 545.851562 723.398438 Z M 538.15625 727.167969 " fill-opacity="1" fill-rule="nonzero"/></g><path fill="#f3e9d7" d="M 546.480469 705.65625 L 533.132812 678.175781 C 545.851562 671.894531 558.257812 664.667969 570.035156 656.820312 C 581.808594 648.808594 592.960938 639.859375 603.636719 630.4375 L 645.25 676.132812 C 662.210938 660.746094 677.597656 643.785156 691.417969 625.414062 L 654.359375 597.617188 L 645.09375 609.394531 L 635.199219 620.703125 L 646.664062 631.066406 L 657.027344 619.132812 L 668.960938 629.023438 L 658.125 641.429688 L 646.820312 653.363281 L 614 620.542969 C 627.503906 607.039062 639.597656 592.4375 650.273438 576.734375 L 675.714844 594.007812 C 677.285156 591.808594 678.699219 589.453125 680.109375 587.253906 L 641.324219 562.285156 C 612.117188 607.824219 569.40625 644.882812 520.253906 667.339844 C 517.113281 668.753906 514.132812 670.164062 510.992188 671.421875 L 501.570312 675.191406 C 498.429688 676.445312 495.128906 677.390625 491.988281 678.488281 L 487.121094 680.058594 C 485.550781 680.53125 483.824219 681 482.253906 681.472656 C 469.378906 685.398438 456.03125 688.066406 442.683594 690.109375 L 432.632812 691.363281 C 429.335938 691.835938 425.878906 691.835938 422.425781 692.148438 L 417.402344 692.621094 C 415.671875 692.777344 413.945312 692.777344 412.375 692.777344 L 402.167969 693.09375 L 391.960938 692.777344 C 390.234375 692.777344 388.507812 692.777344 386.9375 692.621094 L 381.914062 692.148438 C 378.613281 691.835938 375.160156 691.679688 371.707031 691.363281 L 361.65625 690.109375 L 355.21875 735.648438 L 363.226562 736.589844 L 366.835938 706.28125 C 368.566406 706.441406 370.292969 706.753906 372.175781 706.910156 L 377.515625 707.382812 C 381.128906 707.539062 384.582031 708.011719 388.195312 708.167969 C 395.261719 708.324219 402.484375 708.636719 409.550781 708.324219 L 414.886719 708.167969 C 416.617188 708.167969 418.5 708.011719 420.226562 707.851562 L 430.90625 707.066406 C 434.515625 706.910156 437.972656 706.28125 441.582031 705.8125 C 445.039062 705.339844 448.648438 705.027344 452.105469 704.242188 L 462.3125 765.167969 C 484.921875 761.398438 507.222656 755.433594 528.578125 747.425781 L 512.402344 703.925781 C 507.691406 705.65625 502.980469 707.226562 498.269531 708.796875 C 493.558594 710.367188 488.691406 711.621094 483.980469 713.035156 L 487.90625 727.953125 C 492.933594 726.539062 497.957031 725.28125 502.980469 723.554688 L 507.691406 738.316406 C 502.511719 740.042969 497.171875 741.457031 491.832031 742.871094 C 489.164062 743.65625 486.492188 744.285156 483.824219 744.910156 L 475.816406 746.796875 L 466.078125 701.414062 C 484.609375 697.488281 502.824219 691.679688 520.253906 684.140625 L 532.347656 712.40625 L 539.726562 709.109375 L 539.570312 708.953125 C 541.609375 707.851562 544.125 706.910156 546.480469 705.65625 Z M 546.480469 705.65625 " fill-opacity="1" fill-rule="nonzero"/></svg>