<svg xmlns="http://www.w3.org/2000/svg" xmlns:xlink="http://www.w3.org/1999/xlink" width="1080" zoomAndPan="magnify" viewBox="0 0 810 809.999993" height="1080" preserveAspectRatio="xMidYMid meet" version="1.0"><defs><clipPath id="aa57806e9a"><path d="M 13.835938 28.585938 L 782.402344 28.585938 L 782.402344 797.148438 L 13.835938 797.148438 Z M 13.835938 28.585938 " clip-rule="nonzero"/></clipPath><clipPath id="04e1c494a0"><path d="M 398.121094 28.585938 C 185.886719 28.585938 13.835938 200.632812 13.835938 412.867188 C 13.835938 625.101562 185.886719 797.148438 398.121094 797.148438 C 610.351562 797.148438 782.402344 625.101562 782.402344 412.867188 C 782.402344 200.632812 610.351562 28.585938 398.121094 28.585938 Z M 398.121094 28.585938 " clip-rule="nonzero"/></clipPath><clipPath id="84fe5d1e16"><path d="M 319 30.507812 L 364 30.507812 L 364 68 L 319 68 Z M 319 30.507812 " clip-rule="nonzero"/></clipPath></defs><g clip-path="url(#aa57806e9a)"><g clip-path="url(#04e1c494a0)"><path fill="#fa990a" d="M 13.835938 28.585938 L 782.402344 28.585938 L 782.402344 797.148438 L 13.835938 797.148438 Z M 13.835938 28.585938 " fill-opacity="1" fill-rule="nonzero"/></g></g><path fill="#f3e9d7" d="M 719.230469 509.617188 C 723.148438 507.898438 727.097656 506.097656 731.074219 504.210938 C 735.003906 502.3125 739.148438 500.394531 742.949219 498.289062 C 747.714844 495.765625 756.972656 492.882812 758.179688 486.335938 C 758.789062 482.25 756.132812 479.867188 753.398438 477.339844 C 749.992188 474.195312 746.503906 471.214844 742.988281 468.320312 L 737.695312 464.050781 L 732.226562 459.855469 C 728.128906 456.808594 723.460938 462.519531 727.273438 465.59375 C 731.492188 468.953125 735.695312 472.429688 739.882812 476.015625 C 742.054688 477.878906 745.101562 479.757812 746.835938 482.097656 C 749.359375 485.507812 749.941406 483.785156 747.035156 486.980469 C 743.730469 490.578125 736.214844 492.949219 732.074219 495.074219 C 729.359375 496.507812 726.53125 497.863281 723.679688 499.175781 C 720.851562 500.496094 718.027344 501.769531 715.222656 503 C 710.703125 504.953125 714.730469 511.558594 719.230469 509.617188 " fill-opacity="1" fill-rule="nonzero"/><path fill="#f3e9d7" d="M 777.515625 453.292969 L 771.226562 450.136719 L 764.820312 447.050781 L 758.398438 444.054688 C 756.355469 443.113281 754.402344 443.199219 754.972656 440.84375 C 755.550781 438.453125 761.722656 434.605469 763.605469 432.78125 C 767.15625 429.421875 770.359375 425.957031 773.75 422.402344 C 777.355469 418.53125 771.855469 412.570312 768.246094 416.449219 C 763.347656 421.609375 758.558594 426.585938 753.585938 431.347656 C 750.191406 434.53125 744.839844 438.152344 745.824219 443.324219 C 746.5625 447.109375 749.84375 448.695312 753.035156 450.296875 C 760.121094 453.820312 767.292969 457.347656 774.378906 461.109375 C 778.960938 463.59375 782.078125 455.628906 777.515625 453.292969 " fill-opacity="1" fill-rule="nonzero"/><path fill="#f3e9d7" d="M 676.214844 599.554688 C 684.761719 598.601562 693.394531 597.308594 702.253906 595.769531 C 707.542969 594.757812 717.203125 594.734375 720.269531 588.824219 C 721.242188 587.007812 721.230469 585.304688 720.75 583.664062 C 720.273438 582.027344 719.359375 580.457031 718.417969 578.835938 C 716.085938 574.824219 713.636719 570.929688 711.121094 567.121094 C 708.597656 563.304688 706.09375 559.613281 703.386719 555.867188 C 701.902344 553.785156 699.582031 553.792969 698.019531 554.804688 C 696.460938 555.820312 695.492188 557.773438 696.921875 559.863281 C 699.96875 564.324219 702.964844 568.894531 705.910156 573.570312 C 707.425781 575.988281 709.8125 578.710938 710.742188 581.4375 C 712.035156 585.394531 713.175781 583.960938 709.449219 586.140625 C 705.25 588.605469 697.394531 588.65625 692.816406 589.472656 C 686.601562 590.488281 680.410156 591.328125 674.351562 592.042969 C 671.894531 592.328125 671.195312 594.335938 671.632812 596.191406 C 672.054688 598.035156 673.710938 599.796875 676.214844 599.554688 " fill-opacity="1" fill-rule="nonzero"/><path fill="#f3e9d7" d="M 748.550781 563.011719 C 745.183594 559.726562 741.816406 556.511719 738.304688 553.292969 L 733.058594 548.53125 C 731.382812 547.027344 729.5 546.527344 730.734375 544.4375 C 731.992188 542.332031 739.019531 540.476562 741.363281 539.296875 C 745.734375 537.128906 749.832031 534.765625 754.128906 532.363281 C 758.71875 529.726562 755.230469 522.402344 750.632812 525.054688 C 744.421875 528.550781 738.367188 531.886719 732.214844 534.964844 C 728.035156 537 721.84375 538.875 721.265625 544.105469 C 720.871094 547.941406 723.46875 550.414062 726.0625 552.894531 C 731.796875 558.363281 737.605469 563.851562 743.265625 569.5625 C 746.90625 573.292969 752.226562 566.597656 748.550781 563.011719 " fill-opacity="1" fill-rule="nonzero"/><path fill="#f3e9d7" d="M 608.527344 672.824219 L 614.980469 674.066406 L 621.410156 675.074219 C 625.71875 675.71875 630.089844 676.300781 634.527344 676.839844 C 640.023438 677.59375 649.167969 680.296875 653.800781 675.515625 C 656.644531 672.523438 655.929688 669.1875 655.03125 665.496094 C 652.90625 656.429688 650.152344 647.660156 647.40625 639.085938 C 645.832031 634.34375 638.496094 636.1875 640.019531 640.980469 C 641.636719 646.167969 643.175781 651.441406 644.636719 656.789062 C 645.371094 659.546875 646.773438 662.769531 646.851562 665.640625 C 646.945312 669.816406 648.445312 668.773438 644.261719 669.789062 C 639.546875 670.9375 632.105469 668.773438 627.363281 668.0625 C 621.121094 667.210938 615.011719 666.257812 609.027344 665.195312 C 604.179688 664.246094 603.644531 671.800781 608.527344 672.824219 " fill-opacity="1" fill-rule="nonzero"/><path fill="#f3e9d7" d="M 688.425781 659.1875 C 686.160156 655.054688 683.855469 650.957031 681.515625 646.910156 L 677.949219 640.847656 C 676.792969 638.914062 675.140625 637.875 676.921875 636.238281 C 678.726562 634.578125 685.960938 634.863281 688.527344 634.414062 L 695.730469 633.140625 L 702.824219 631.601562 C 707.964844 630.425781 706.753906 622.378906 701.605469 623.5625 C 698.148438 624.332031 694.722656 625.058594 691.324219 625.746094 C 689.617188 626.085938 687.949219 626.4375 686.234375 626.738281 L 681.0625 627.570312 C 676.492188 628.292969 670.058594 628.285156 667.988281 633.144531 C 666.363281 636.597656 668.144531 639.738281 669.910156 642.890625 C 673.789062 649.824219 677.746094 656.792969 681.496094 663.933594 C 683.890625 668.582031 690.890625 663.707031 688.425781 659.1875 " fill-opacity="1" fill-rule="nonzero"/><path fill="#f3e9d7" d="M 522.367188 722.980469 C 526.179688 725.015625 530.097656 727.089844 534.039062 729.003906 C 537.953125 730.859375 541.945312 732.683594 546.019531 734.476562 C 548.519531 735.578125 551.761719 737.523438 555.140625 738.8125 C 558.515625 740.089844 561.945312 740.515625 564.839844 738.90625 C 568.429688 736.863281 568.667969 733.371094 568.964844 729.683594 C 569.671875 720.527344 569.519531 711.160156 569.40625 702.164062 C 569.277344 697.140625 561.761719 696.808594 561.824219 701.863281 C 561.863281 707.324219 561.8125 712.863281 561.5625 718.265625 C 561.441406 721.097656 561.855469 724.625 561.089844 727.402344 C 559.96875 731.457031 561.703125 730.871094 557.421875 730.65625 C 552.636719 730.496094 546.023438 725.9375 541.753906 723.972656 C 538.90625 722.664062 536.09375 721.339844 533.328125 720.007812 C 530.558594 718.671875 527.835938 717.339844 525.089844 715.835938 C 520.722656 713.445312 518.023438 720.605469 522.367188 722.980469 " fill-opacity="1" fill-rule="nonzero"/><path fill="#f3e9d7" d="M 602.738281 733.464844 C 601.78125 728.832031 600.769531 724.226562 599.71875 719.65625 L 598.09375 712.820312 C 597.5625 710.648438 596.28125 709.167969 598.515625 708.195312 C 600.730469 707.152344 607.523438 709.484375 610.101562 709.789062 C 614.871094 710.367188 619.789062 710.988281 624.636719 711.367188 C 629.871094 711.710938 631.035156 703.613281 625.792969 703.265625 C 622.273438 703.003906 618.828125 702.742188 615.363281 702.382812 C 611.855469 701.972656 608.394531 701.527344 604.96875 701.050781 C 602.695312 700.746094 600.011719 700.128906 597.492188 700.097656 C 596.230469 700.085938 595.011719 700.214844 593.890625 700.605469 C 592.746094 700.949219 591.695312 701.550781 590.820312 702.523438 C 588.257812 705.355469 589.050781 708.914062 589.820312 712.449219 C 591.503906 720.226562 593.285156 728.125 594.75 736.007812 C 595.691406 741.1875 603.785156 738.542969 602.738281 733.464844 " fill-opacity="1" fill-rule="nonzero"/><path fill="#f3e9d7" d="M 425.242188 745.367188 C 428.285156 748.453125 431.410156 751.542969 434.617188 754.605469 C 437.8125 757.53125 441.082031 760.445312 444.4375 763.355469 C 448.527344 766.902344 454.609375 774.738281 461.09375 773.175781 C 465.128906 772.273438 466.394531 769.007812 467.765625 765.558594 C 468.609375 763.433594 469.417969 761.289062 470.191406 759.148438 C 470.953125 756.992188 471.679688 754.757812 472.375 752.570312 C 473.777344 748.164062 475.078125 743.773438 476.34375 739.425781 C 477.707031 734.574219 470.640625 732.070312 469.207031 736.929688 C 467.644531 742.230469 465.914062 747.324219 464.085938 752.472656 C 463.132812 755.144531 462.476562 758.644531 460.929688 761.070312 C 458.65625 764.617188 460.480469 764.574219 456.460938 763.113281 C 455.332031 762.703125 454.175781 762.019531 453.023438 761.179688 C 451.855469 760.289062 450.703125 759.238281 449.578125 758.152344 C 447.335938 755.976562 445.238281 753.632812 443.476562 752.058594 C 441.148438 749.976562 438.855469 747.882812 436.609375 745.789062 L 433.265625 742.644531 L 429.96875 739.34375 C 426.5 735.769531 421.792969 741.8125 425.242188 745.367188 " fill-opacity="1" fill-rule="nonzero"/><path fill="#f3e9d7" d="M 498.917969 779.234375 C 499.371094 774.507812 499.769531 769.804688 500.117188 765.109375 L 500.582031 758.085938 C 500.71875 755.851562 499.9375 754.0625 502.351562 753.777344 C 504.816406 753.566406 510.601562 757.753906 512.964844 758.792969 C 517.351562 760.75 521.824219 762.679688 526.390625 764.574219 C 528.855469 765.628906 530.953125 764.148438 531.832031 762.304688 C 532.707031 760.449219 532.324219 758.140625 529.898438 757.203125 L 525.027344 755.300781 L 520.160156 753.203125 C 516.941406 751.792969 513.765625 750.367188 510.640625 748.917969 C 508.574219 747.960938 506.191406 746.601562 503.796875 745.839844 C 501.390625 745.039062 498.9375 744.734375 496.683594 746.101562 C 493.40625 748.074219 493.117188 751.710938 492.804688 755.328125 C 492.125 763.296875 491.472656 771.351562 490.519531 779.234375 C 490.207031 781.792969 492.164062 783.125 494.296875 783.171875 C 496.421875 783.183594 498.675781 781.792969 498.917969 779.234375 " fill-opacity="1" fill-rule="nonzero"/><path fill="#f3e9d7" d="M 325.75 738.285156 C 329.726562 746.121094 334.125 753.53125 338.835938 761.089844 C 340.28125 763.421875 341.863281 766.863281 343.933594 769.835938 C 346.011719 772.703125 348.597656 775.058594 351.894531 775.335938 C 356.011719 775.679688 358.175781 772.933594 360.492188 770.054688 C 366.238281 762.871094 371.382812 755.054688 376.359375 747.542969 C 379.085938 743.324219 373.0625 738.824219 370.261719 743.03125 C 367.214844 747.5625 364.054688 752.140625 360.800781 756.453125 C 359.109375 758.722656 357.464844 761.863281 355.269531 763.726562 C 352.0625 766.4375 353.824219 766.933594 350.410156 764.335938 C 348.496094 762.871094 346.78125 760.378906 345.269531 757.660156 C 343.765625 754.90625 342.441406 752.042969 341.222656 750.015625 C 337.992188 744.609375 334.90625 739.335938 332.023438 733.933594 C 329.757812 729.488281 323.503906 733.863281 325.75 738.285156 " fill-opacity="1" fill-rule="nonzero"/><path fill="#f3e9d7" d="M 386.261719 792.191406 C 388.082031 787.820312 389.839844 783.445312 391.542969 779.066406 L 394.058594 772.5 C 394.847656 770.40625 394.625 768.457031 397.011719 768.90625 C 399.429688 769.449219 403.726562 775.066406 405.679688 776.800781 C 409.289062 779.96875 412.992188 783.136719 416.785156 786.300781 C 418.828125 788.050781 421.273438 787.234375 422.652344 785.746094 C 424.035156 784.21875 424.355469 781.902344 422.3125 780.296875 L 418.222656 777.039062 L 414.199219 773.601562 C 411.539062 771.292969 408.929688 768.988281 406.371094 766.683594 C 402.953125 763.625 398.945312 758.742188 393.855469 759.894531 C 390.140625 760.800781 388.796875 764.195312 387.441406 767.550781 C 384.445312 774.917969 381.460938 782.503906 378.234375 789.785156 C 377.191406 792.113281 378.664062 794.042969 380.699219 794.609375 C 382.722656 795.195312 385.277344 794.578125 386.261719 792.191406 " fill-opacity="1" fill-rule="nonzero"/><path fill="#f3e9d7" d="M 232.882812 702.140625 C 233.65625 706.390625 234.488281 710.71875 235.429688 715.027344 C 236.417969 719.246094 237.480469 723.503906 238.613281 727.800781 C 239.308594 730.449219 239.796875 734.195312 240.898438 737.640625 C 241.980469 741.101562 243.796875 744.027344 246.859375 745.289062 C 250.691406 746.832031 253.582031 744.847656 256.648438 742.773438 C 260.425781 740.257812 264.164062 737.421875 267.785156 734.585938 C 271.417969 731.75 274.964844 728.863281 278.453125 725.988281 C 282.304688 722.753906 277.882812 716.679688 273.96875 719.878906 L 267.511719 724.996094 C 265.339844 726.671875 263.175781 728.261719 260.96875 729.878906 C 258.683594 731.542969 256.179688 734.066406 253.527344 735.195312 C 249.65625 736.84375 251.191406 737.839844 248.695312 734.355469 C 245.839844 730.515625 245.308594 722.480469 244.175781 717.933594 C 243.425781 714.886719 242.710938 711.871094 242.03125 708.867188 L 241.046875 704.386719 L 240.175781 699.808594 C 239.324219 694.914062 232.03125 697.261719 232.882812 702.140625 " fill-opacity="1" fill-rule="nonzero"/><path fill="#f3e9d7" d="M 274.71875 771.570312 C 277.753906 767.925781 280.726562 764.273438 283.644531 760.589844 L 287.984375 755.058594 C 289.347656 753.292969 289.714844 751.371094 291.859375 752.503906 C 294.035156 753.664062 296.472656 760.355469 297.832031 762.582031 C 300.347656 766.683594 302.960938 770.816406 305.660156 774.957031 C 308.65625 779.253906 315.726562 775.089844 312.722656 770.789062 C 308.707031 765.105469 305 759.046875 301.46875 753.121094 C 299.117188 749.136719 296.699219 743.371094 291.503906 742.960938 C 287.695312 742.722656 285.40625 745.566406 283.117188 748.371094 C 278.085938 754.527344 272.992188 760.878906 267.753906 766.890625 C 266.0625 768.804688 266.902344 771.082031 268.683594 772.230469 C 270.449219 773.382812 273.066406 773.554688 274.71875 771.570312 " fill-opacity="1" fill-rule="nonzero"/><path fill="#f3e9d7" d="M 154.746094 640.167969 C 153.804688 648.695312 152.914062 657.632812 152.683594 666.378906 C 152.589844 669.097656 151.96875 672.804688 152.023438 676.402344 C 152.082031 679.996094 152.773438 683.523438 155.40625 685.535156 C 158.644531 688.105469 161.992188 687.042969 165.546875 685.957031 C 169.964844 684.59375 174.234375 683.152344 178.546875 681.492188 C 182.871094 679.835938 187.121094 678.101562 191.320312 676.371094 C 195.96875 674.40625 193.496094 667.34375 188.796875 669.257812 C 183.707031 671.300781 178.675781 673.09375 173.476562 674.917969 C 170.78125 675.847656 167.640625 677.53125 164.765625 677.84375 C 160.566406 678.292969 161.75 679.683594 160.367188 675.640625 C 158.90625 670.988281 160.667969 663.246094 160.917969 658.574219 C 161.078125 655.464844 161.257812 652.398438 161.492188 649.324219 C 161.78125 646.199219 162.101562 643.105469 162.449219 640.046875 C 163.042969 635.136719 155.335938 635.277344 154.746094 640.167969 " fill-opacity="1" fill-rule="nonzero"/><path fill="#f3e9d7" d="M 174.257812 718.855469 C 178.242188 716.261719 182.171875 713.636719 186.050781 710.976562 L 191.84375 706.960938 C 193.675781 705.667969 194.585938 703.9375 196.320312 705.648438 C 197.210938 706.507812 197.664062 708.792969 198.035156 711.128906 C 198.421875 713.433594 198.675781 715.851562 198.996094 717.09375 C 200.199219 721.738281 201.480469 726.429688 202.84375 731.171875 C 203.554688 733.753906 205.992188 734.523438 207.992188 734.042969 C 209.996094 733.5625 211.570312 731.828125 210.78125 729.347656 C 210.265625 727.664062 209.734375 726.03125 209.246094 724.335938 L 207.855469 719.226562 C 206.953125 715.835938 206.097656 712.464844 205.277344 709.125 C 204.738281 706.902344 204.304688 704.214844 203.421875 701.851562 C 202.574219 699.425781 201.257812 697.351562 198.785156 696.441406 C 195.199219 695.117188 192.164062 697.160156 189.144531 699.175781 C 185.796875 701.398438 182.460938 703.613281 179.125 705.828125 C 175.800781 708 172.449219 710.15625 169.046875 712.261719 C 164.617188 714.957031 169.847656 721.769531 174.257812 718.855469 " fill-opacity="1" fill-rule="nonzero"/><path fill="#f3e9d7" d="M 98.214844 558.011719 C 94.855469 565.855469 91.480469 574.082031 88.542969 582.453125 C 86.769531 587.542969 81.949219 595.949219 85.515625 601.570312 C 87.851562 604.984375 91.410156 604.917969 95.144531 604.917969 C 104.425781 604.875 113.390625 604.265625 122.5625 603.332031 C 125.097656 603.089844 126.25 601.066406 126.160156 599.203125 C 126.117188 598.273438 125.75 597.378906 125.089844 596.738281 C 124.457031 596.078125 123.523438 595.675781 122.273438 595.769531 C 116.898438 596.175781 111.449219 596.480469 105.949219 596.691406 C 103.089844 596.808594 99.578125 597.5 96.71875 596.960938 C 92.542969 596.179688 93.292969 597.839844 93.246094 593.515625 C 93.222656 588.640625 97.113281 581.789062 98.703125 577.417969 C 99.714844 574.523438 100.90625 571.570312 102.078125 568.683594 C 103.253906 565.796875 104.445312 562.949219 105.660156 560.136719 C 107.644531 555.636719 100.1875 553.535156 98.214844 558.011719 " fill-opacity="1" fill-rule="nonzero"/><path fill="#f3e9d7" d="M 93.78125 638.957031 C 98.292969 637.683594 102.882812 636.28125 107.378906 634.875 L 114.113281 632.714844 C 116.242188 632.019531 117.621094 630.628906 118.796875 632.753906 C 119.988281 634.898438 118.042969 641.953125 117.929688 644.546875 C 117.742188 649.3125 117.621094 654.152344 117.554688 659.054688 C 117.53125 661.691406 119.554688 663.210938 121.5625 663.375 C 123.601562 663.523438 125.609375 662.320312 125.609375 659.707031 C 125.699219 652.574219 125.917969 645.589844 126.277344 638.761719 C 126.511719 634.195312 128.070312 627.820312 123.832031 624.703125 C 120.757812 622.402344 117.222656 623.496094 113.773438 624.515625 C 106.179688 626.742188 98.542969 629.027344 90.785156 631.085938 C 85.738281 632.371094 88.851562 640.339844 93.78125 638.957031 " fill-opacity="1" fill-rule="nonzero"/><path fill="#f3e9d7" d="M 68.550781 462.84375 C 62.992188 469.34375 57.492188 476.167969 52.050781 483.324219 C 48.871094 487.660156 41.800781 494.246094 43.574219 500.667969 C 44.625 504.664062 48.179688 505.625 51.71875 506.730469 C 60.628906 509.433594 69.457031 511.476562 78.351562 513.34375 C 80.855469 513.851562 82.550781 512.269531 83 510.46875 C 83.523438 508.640625 82.84375 506.570312 80.394531 506.015625 C 75.117188 504.8125 69.808594 503.503906 64.464844 502.082031 C 61.71875 501.339844 58.082031 500.980469 55.585938 499.597656 C 51.949219 497.582031 52.089844 499.414062 53.335938 495.273438 C 54.734375 490.609375 60.457031 485.234375 63.253906 481.527344 C 67.121094 476.550781 71.097656 471.726562 75.054688 467.078125 C 76.652344 465.203125 75.835938 463.253906 74.203125 462.199219 C 72.632812 461.136719 70.234375 460.964844 68.550781 462.84375 " fill-opacity="1" fill-rule="nonzero"/><path fill="#f3e9d7" d="M 40.417969 538.835938 C 45.136719 538.941406 49.773438 539.015625 54.507812 538.984375 L 61.601562 538.90625 C 63.855469 538.871094 65.578125 537.953125 66.089844 540.316406 C 66.617188 542.71875 62.734375 548.855469 61.832031 551.316406 C 60.054688 555.898438 58.683594 560.414062 57.171875 565.085938 C 55.609375 570.136719 63.160156 573.125 64.726562 568.0625 C 66.902344 561.269531 68.996094 554.738281 71.480469 548.261719 C 73.152344 543.925781 76.398438 538.351562 73.253906 534.121094 C 70.910156 531.050781 67.414062 530.976562 63.785156 530.9375 C 55.855469 530.835938 47.859375 530.765625 39.824219 530.4375 C 34.613281 530.183594 35.285156 538.703125 40.417969 538.835938 " fill-opacity="1" fill-rule="nonzero"/><path fill="#f3e9d7" d="M 68.300781 363.0625 C 61.101562 367.652344 53.652344 372.558594 46.527344 377.820312 C 42.203125 381.035156 33.484375 385.257812 33.265625 391.910156 C 33.222656 396.039062 36.257812 398 39.332031 400.09375 C 43.160156 402.691406 47.0625 405.132812 50.976562 407.46875 C 54.898438 409.8125 58.773438 412.050781 62.839844 414.253906 C 65.078125 415.484375 67.167969 414.464844 68.125 412.871094 C 69.082031 411.277344 69.117188 409.09375 66.921875 407.839844 C 62.242188 405.136719 57.5625 402.320312 52.882812 399.394531 C 50.457031 397.878906 47.160156 396.464844 45.09375 394.414062 C 42.148438 391.417969 41.789062 393.203125 44.195312 389.613281 C 46.921875 385.566406 53.992188 382.101562 57.769531 379.375 C 60.234375 377.550781 62.84375 375.785156 65.464844 374.0625 C 68.0625 372.332031 70.660156 370.648438 73.25 369.011719 C 77.429688 366.40625 72.453125 360.472656 68.300781 363.0625 " fill-opacity="1" fill-rule="nonzero"/><path fill="#f3e9d7" d="M 19.054688 427.417969 C 23.535156 428.914062 27.929688 430.347656 32.472656 431.726562 L 39.273438 433.742188 C 41.4375 434.371094 43.351562 434.011719 43.144531 436.417969 C 42.933594 438.863281 37.414062 443.582031 35.828125 445.65625 C 32.78125 449.511719 30.078125 453.414062 27.28125 457.429688 C 24.304688 461.789062 30.648438 466.871094 33.632812 462.507812 C 35.648438 459.59375 37.671875 456.726562 39.707031 453.910156 C 41.742188 451.089844 43.726562 448.332031 45.949219 445.597656 C 48.824219 441.957031 53.574219 437.589844 51.8125 432.617188 C 50.488281 428.992188 47.167969 427.882812 43.710938 426.78125 C 36.167969 424.335938 28.554688 421.910156 20.976562 419.234375 C 16.070312 417.457031 14.191406 425.777344 19.054688 427.417969 " fill-opacity="1" fill-rule="nonzero"/><path fill="#f3e9d7" d="M 97.332031 267.710938 C 89.097656 269.960938 80.589844 272.457031 72.179688 275.355469 C 67.101562 277.140625 57.523438 278.601562 55.355469 284.894531 C 54.101562 288.832031 56.40625 291.597656 58.722656 294.503906 C 61.617188 298.121094 64.617188 301.597656 67.664062 304.984375 L 72.261719 310.003906 L 77.03125 314.964844 C 80.617188 318.589844 86.101562 313.648438 82.792969 310.042969 C 79.117188 306.085938 75.480469 302.015625 71.882812 297.839844 C 70.007812 295.675781 67.28125 293.359375 65.910156 290.785156 C 63.976562 287.046875 63.113281 288.652344 66.476562 285.933594 C 70.269531 282.871094 78.042969 281.65625 82.453125 280.171875 C 88.332031 278.1875 94.445312 276.484375 100.308594 274.863281 C 105.054688 273.609375 102.078125 266.476562 97.332031 267.710938 " fill-opacity="1" fill-rule="nonzero"/><path fill="#f3e9d7" d="M 31.269531 314.671875 C 35.058594 317.40625 38.953125 320.101562 42.894531 322.75 L 48.792969 326.667969 C 50.675781 327.902344 52.613281 328.113281 51.699219 330.355469 C 50.769531 332.628906 44.085938 335.523438 41.949219 337.039062 C 38 339.84375 34.261719 342.792969 30.378906 345.808594 C 26.230469 349.105469 30.769531 355.816406 34.933594 352.511719 C 40.535156 348.128906 46.066406 343.929688 51.640625 339.945312 C 55.476562 337.308594 61.316406 334.53125 61.117188 329.265625 C 60.960938 325.425781 57.941406 323.351562 55.027344 321.296875 C 48.550781 316.75 41.988281 312.199219 35.539062 307.410156 C 31.386719 304.265625 27.109375 311.679688 31.269531 314.671875 " fill-opacity="1" fill-rule="nonzero"/><path fill="#f3e9d7" d="M 153.355469 185.203125 C 148.945312 184.933594 144.707031 184.941406 140.316406 184.914062 C 135.949219 184.910156 131.527344 184.964844 127.042969 185.085938 C 121.546875 185.195312 112.101562 183.878906 108.191406 189.261719 C 105.746094 192.589844 107.101562 195.886719 108.496094 199.382812 C 111.933594 208.027344 115.898438 216.253906 119.917969 224.332031 C 121.097656 226.625 123.34375 226.925781 125.089844 226.203125 C 126.851562 225.472656 128.042969 223.640625 126.949219 221.375 C 124.59375 216.496094 122.300781 211.523438 120.078125 206.449219 C 118.914062 203.8125 116.988281 200.792969 116.519531 197.988281 C 115.816406 193.878906 114.476562 195.132812 118.484375 193.511719 C 123.003906 191.707031 130.6875 192.75 135.425781 192.707031 C 141.742188 192.628906 147.945312 192.6875 154.035156 192.867188 C 155.269531 192.90625 156.136719 192.457031 156.667969 191.753906 C 157.222656 191.078125 157.464844 190.15625 157.390625 189.210938 C 157.234375 187.316406 155.867188 185.332031 153.355469 185.203125 " fill-opacity="1" fill-rule="nonzero"/><path fill="#f3e9d7" d="M 76.371094 210.554688 C 79.222656 214.304688 82.089844 218 85.007812 221.664062 L 89.488281 227.160156 C 90.925781 228.902344 92.714844 229.675781 91.1875 231.558594 C 89.636719 233.460938 82.429688 234.25 79.945312 235.074219 C 75.257812 236.535156 70.839844 238.257812 66.257812 239.992188 C 61.332031 241.917969 63.703125 249.691406 68.632812 247.757812 C 71.949219 246.488281 75.238281 245.261719 78.503906 244.082031 C 81.789062 242.902344 84.964844 241.734375 88.335938 240.722656 C 92.769531 239.332031 99.152344 238.398438 100.488281 233.292969 C 101.457031 229.5625 99.34375 226.789062 97.101562 223.914062 C 92.238281 217.648438 87.308594 211.34375 82.550781 204.851562 C 79.503906 200.613281 73.265625 206.449219 76.371094 210.554688 " fill-opacity="1" fill-rule="nonzero"/><path fill="#f3e9d7" d="M 231.140625 122.777344 C 222.902344 119.742188 214.628906 117.296875 206.03125 114.945312 C 203.386719 114.230469 199.875 112.75 196.359375 112.019531 C 192.890625 111.335938 189.378906 111.347656 186.761719 113.386719 C 183.511719 115.921875 183.785156 119.402344 184.042969 123.085938 C 184.789062 132.359375 186.242188 141.484375 187.710938 150.375 C 188.574219 155.316406 196.070312 154.550781 195.269531 149.574219 C 194.449219 144.21875 193.632812 138.671875 193.0625 133.277344 C 192.761719 130.464844 191.832031 127.039062 192.183594 124.191406 C 192.695312 120.03125 191.066406 120.855469 195.339844 120.445312 C 197.742188 120.222656 200.71875 120.921875 203.644531 121.84375 C 206.621094 122.835938 209.539062 124.039062 211.8125 124.691406 C 217.855469 126.457031 223.707031 128.238281 229.503906 130.234375 C 234.1875 131.949219 235.796875 124.484375 231.140625 122.777344 " fill-opacity="1" fill-rule="nonzero"/><path fill="#f3e9d7" d="M 150.105469 124.394531 C 151.738281 128.832031 153.414062 133.230469 155.128906 137.585938 L 157.742188 144.09375 C 158.601562 146.175781 160.035156 147.390625 158.050781 148.769531 C 156.03125 150.152344 148.933594 148.820312 146.332031 148.890625 C 141.519531 149.011719 136.550781 149.113281 131.757812 149.519531 C 126.511719 149.941406 126.53125 158.097656 131.789062 157.679688 C 135.308594 157.417969 138.796875 157.199219 142.25 157.015625 C 145.695312 156.816406 149.257812 156.824219 152.703125 156.769531 C 157.34375 156.738281 163.613281 157.605469 166.46875 153.199219 C 168.59375 150.035156 167.28125 146.644531 166 143.261719 C 163.175781 135.816406 160.289062 128.328125 157.632812 120.703125 C 155.941406 115.742188 148.332031 119.554688 150.105469 124.394531 " fill-opacity="1" fill-rule="nonzero"/><path fill="#f3e9d7" d="M 323.796875 86.082031 C 320.328125 83.488281 316.78125 80.90625 313.15625 78.351562 C 309.566406 75.933594 305.890625 73.539062 302.140625 71.171875 C 297.5625 68.257812 290.378906 61.445312 284.195312 63.953125 C 280.339844 65.445312 279.578125 68.871094 278.738281 72.476562 C 278.222656 74.710938 277.742188 76.945312 277.304688 79.183594 C 276.882812 81.472656 276.5 83.757812 276.132812 86.035156 C 275.410156 90.59375 274.785156 95.125 274.183594 99.609375 C 273.5625 104.609375 280.929688 106.027344 281.613281 101.015625 C 282.003906 98.320312 282.414062 95.574219 282.871094 92.886719 L 284.347656 84.871094 C 284.886719 82.085938 285 78.53125 286.171875 75.894531 C 287.886719 72.046875 286.089844 72.367188 290.289062 73.21875 C 291.460938 73.457031 292.710938 73.953125 293.976562 74.613281 C 295.25 75.300781 296.558594 76.175781 297.832031 77.078125 C 300.378906 78.898438 302.804688 80.902344 304.777344 82.195312 C 307.394531 83.902344 309.96875 85.625 312.503906 87.359375 L 316.28125 89.980469 L 320.03125 92.75 C 323.988281 95.761719 327.726562 89.078125 323.796875 86.082031 " fill-opacity="1" fill-rule="nonzero"/><path fill="#f3e9d7" d="M 245.890625 63.660156 C 246.148438 68.390625 246.460938 73.097656 246.824219 77.785156 L 247.414062 84.792969 C 247.613281 87.019531 248.65625 88.671875 246.3125 89.3125 C 243.898438 89.882812 237.59375 86.6875 235.070312 85.972656 C 230.4375 84.679688 225.726562 83.4375 220.921875 82.238281 C 215.789062 81.097656 213.453125 88.980469 218.582031 90.082031 C 225.386719 91.515625 232.242188 93.460938 238.847656 95.382812 C 243.265625 96.664062 248.988281 99.3125 253.066406 96.0625 C 256.019531 93.628906 255.757812 89.984375 255.527344 86.375 C 255.019531 78.429688 254.417969 70.292969 254.195312 62.375 C 254.117188 59.800781 251.972656 58.761719 249.859375 59.058594 C 247.78125 59.410156 245.75 61.082031 245.890625 63.660156 " fill-opacity="1" fill-rule="nonzero"/><path fill="#f3e9d7" d="M 423.238281 78.390625 C 420.6875 74.914062 418.054688 71.273438 415.328125 67.917969 C 412.601562 64.542969 409.789062 61.164062 406.902344 57.785156 C 405.121094 55.703125 403.054688 52.539062 400.570312 49.910156 C 398.085938 47.269531 395.1875 45.421875 391.882812 45.613281 C 387.761719 45.894531 386.023438 48.941406 384.164062 52.136719 C 383.003906 54.121094 381.890625 56.101562 380.808594 58.121094 C 379.730469 60.183594 378.6875 62.253906 377.664062 64.320312 C 375.621094 68.460938 373.683594 72.609375 371.78125 76.71875 C 369.699219 81.304688 376.324219 84.84375 378.472656 80.253906 C 379.640625 77.796875 380.839844 75.292969 382.074219 72.855469 L 385.859375 65.632812 C 387.195312 63.136719 388.355469 59.773438 390.257812 57.605469 C 393.027344 54.441406 391.21875 54.210938 394.976562 56.265625 C 399.207031 58.480469 403.1875 65.472656 406.183594 69.097656 C 410.179688 73.960938 414.019531 78.660156 417.683594 83.632812 C 420.589844 87.6875 426.128906 82.425781 423.238281 78.390625 " fill-opacity="1" fill-rule="nonzero"/><g clip-path="url(#84fe5d1e16)"><path fill="#f3e9d7" d="M 355.40625 33.980469 C 354.253906 38.582031 353.15625 43.179688 352.113281 47.765625 L 350.601562 54.640625 C 350.136719 56.828125 350.640625 58.71875 348.207031 58.636719 C 345.738281 58.476562 340.648438 53.449219 338.464844 52.078125 C 334.425781 49.492188 330.289062 46.917969 326.0625 44.363281 C 323.785156 42.949219 321.472656 44.050781 320.339844 45.765625 C 319.195312 47.476562 319.226562 49.820312 321.488281 51.105469 C 323.011719 51.976562 324.515625 52.816406 326.019531 53.730469 L 330.511719 56.535156 C 333.484375 58.410156 336.410156 60.300781 339.277344 62.195312 C 341.183594 63.449219 343.332031 65.144531 345.582031 66.257812 C 347.84375 67.429688 350.226562 68.085938 352.65625 67.074219 C 356.199219 65.621094 357.03125 62.058594 357.875 58.53125 C 359.746094 50.761719 361.589844 42.875 363.714844 35.234375 C 364.398438 32.746094 362.664062 31.136719 360.5625 30.773438 C 358.464844 30.460938 356.039062 31.484375 355.40625 33.980469 " fill-opacity="1" fill-rule="nonzero"/></g><path fill="#f3e9d7" d="M 520.5 100.195312 C 519.085938 96.125 517.652344 91.867188 516.039062 87.859375 C 514.4375 83.832031 512.746094 79.769531 510.984375 75.683594 C 509.902344 73.167969 508.859375 69.53125 507.261719 66.277344 C 505.640625 63.117188 503.433594 60.410156 500.207031 59.632812 C 496.191406 58.679688 493.636719 61.074219 490.914062 63.570312 C 484.15625 69.839844 477.90625 76.777344 471.875 83.460938 C 468.554688 87.226562 473.828125 92.578125 477.222656 88.832031 C 480.902344 84.820312 484.71875 80.753906 488.574219 76.976562 C 490.582031 74.984375 492.683594 72.117188 495.128906 70.613281 C 498.707031 68.410156 497.042969 67.65625 500.03125 70.734375 C 501.695312 72.480469 503.027344 75.175781 504.109375 78.117188 C 505.1875 81.0625 506.0625 84.089844 506.964844 86.277344 C 509.347656 92.105469 511.621094 97.746094 513.644531 103.570312 C 515.210938 108.296875 522.054688 104.902344 520.5 100.195312 " fill-opacity="1" fill-rule="nonzero"/><path fill="#f3e9d7" d="M 468.71875 37.839844 C 466.269531 41.894531 463.875 45.953125 461.542969 50.03125 L 458.085938 56.144531 C 456.996094 58.089844 456.925781 60.050781 454.636719 59.25 C 452.304688 58.449219 448.898438 52.1875 447.222656 50.191406 C 444.117188 46.507812 440.921875 42.816406 437.632812 39.121094 C 434.027344 35.320312 427.664062 40.496094 431.273438 44.300781 C 436.09375 49.3125 440.667969 54.769531 445.046875 60.09375 C 447.964844 63.6875 451.222656 69.007812 456.414062 68.636719 C 460.21875 68.300781 462.054688 65.152344 463.898438 62.035156 C 467.953125 55.179688 472.023438 48.179688 476.3125 41.40625 C 479.144531 36.96875 471.402344 33.398438 468.71875 37.839844 " fill-opacity="1" fill-rule="nonzero"/><path fill="#f3e9d7" d="M 606.945312 149.84375 C 606.804688 145.53125 606.59375 141.15625 606.324219 136.738281 C 606.042969 132.328125 605.570312 128.039062 605.097656 123.617188 C 604.796875 120.902344 604.867188 117.128906 604.28125 113.578125 C 603.738281 109.972656 602.425781 106.738281 599.558594 105.082031 C 595.984375 103 592.835938 104.542969 589.488281 106.136719 C 581.253906 110 573.167969 114.863281 565.421875 119.460938 C 561.121094 122.085938 564.597656 128.738281 568.957031 126.152344 C 573.707031 123.332031 578.4375 120.773438 583.285156 118.238281 C 585.804688 116.925781 588.660156 114.804688 591.453125 114.078125 C 595.53125 113.011719 594.160156 111.808594 596.113281 115.613281 C 597.234375 117.710938 597.613281 120.824219 597.773438 123.941406 C 597.945312 127.066406 597.894531 130.203125 598.117188 132.546875 C 598.714844 138.773438 599.210938 144.839844 599.367188 151.078125 C 599.496094 156.042969 607.066406 154.78125 606.945312 149.84375 " fill-opacity="1" fill-rule="nonzero"/><path fill="#f3e9d7" d="M 575.953125 74.933594 C 572.40625 78.085938 568.910156 81.257812 565.472656 84.46875 L 560.351562 89.289062 C 558.738281 90.832031 558.085938 92.679688 556.125 91.242188 C 554.179688 89.710938 552.757812 82.765625 551.753906 80.355469 C 549.878906 75.933594 547.914062 71.472656 545.859375 66.96875 C 543.566406 62.214844 535.929688 65.324219 538.265625 70.011719 C 541.382812 76.214844 544.117188 82.828125 546.734375 89.171875 C 547.605469 91.292969 548.414062 93.910156 549.65625 96.097656 C 550.902344 98.261719 552.472656 100.210938 555.050781 100.726562 C 558.789062 101.515625 561.484375 99.050781 564.167969 96.613281 C 570.082031 91.253906 576.054688 85.761719 582.113281 80.636719 C 584.085938 78.972656 583.554688 76.667969 582.023438 75.175781 C 580.453125 73.761719 577.882812 73.21875 575.953125 74.933594 " fill-opacity="1" fill-rule="nonzero"/><path fill="#f3e9d7" d="M 675.050781 222.71875 C 676.152344 218.570312 677.207031 214.351562 678.21875 210.0625 C 679.242188 205.765625 680.21875 201.40625 680.972656 197.105469 C 681.957031 191.808594 685.570312 182.707031 681.132812 177.746094 C 678.289062 174.734375 674.8125 175.300781 671.125 175.855469 C 666.566406 176.539062 662.066406 177.390625 657.617188 178.332031 C 653.148438 179.289062 648.636719 180.414062 644.230469 181.503906 C 639.320312 182.777344 640.78125 190.074219 645.679688 188.902344 C 650.929688 187.71875 656.253906 186.609375 661.65625 185.59375 C 664.460938 185.0625 667.824219 183.863281 670.730469 183.972656 C 674.9375 184.160156 674.039062 182.550781 674.71875 186.828125 C 675.453125 191.664062 672.605469 199.023438 671.671875 203.601562 C 670.53125 209.640625 668.941406 215.792969 667.394531 221.714844 C 666.089844 226.46875 673.757812 227.449219 675.050781 222.71875 " fill-opacity="1" fill-rule="nonzero"/><path fill="#f3e9d7" d="M 667.417969 141.996094 C 663.097656 143.980469 658.808594 145.996094 654.570312 148.066406 L 648.238281 151.183594 C 646.234375 152.1875 645.078125 153.761719 643.609375 151.828125 C 642.125 149.871094 643.035156 142.578125 642.695312 140.074219 C 642.183594 135.316406 641.601562 130.503906 640.941406 125.625 C 640.253906 120.28125 631.996094 121.066406 632.863281 126.203125 C 633.898438 133.1875 634.636719 140.222656 635.300781 147.027344 C 635.800781 151.507812 635.179688 158.070312 639.8125 160.554688 C 643.179688 162.378906 646.492188 160.804688 649.78125 159.253906 C 657.046875 155.835938 664.179688 152.527344 671.5625 149.324219 C 676.332031 147.328125 672.164062 139.824219 667.417969 141.996094 " fill-opacity="1" fill-rule="nonzero"/><path fill="#f3e9d7" d="M 718.675781 312.359375 C 723.179688 305.105469 727.644531 297.511719 731.90625 289.640625 C 734.402344 284.882812 740.414062 277.296875 737.699219 271.214844 C 736.023438 267.441406 732.386719 267.015625 728.726562 266.449219 C 724.140625 265.773438 719.5625 265.273438 715.023438 264.871094 C 710.480469 264.460938 706 264.132812 701.390625 263.914062 C 698.839844 263.789062 697.398438 265.605469 697.222656 267.457031 C 697.066406 269.300781 697.976562 271.285156 700.5 271.457031 C 705.890625 271.855469 711.324219 272.359375 716.8125 272.960938 C 719.660156 273.273438 723.25 273.117188 725.992188 274.074219 C 729.890625 275.523438 729.480469 273.734375 728.859375 278.019531 C 728.175781 282.839844 723.316406 289.019531 721.101562 293.109375 C 718.074219 298.589844 714.820312 303.964844 711.613281 309.152344 C 710.308594 311.246094 711.40625 313.050781 713.179688 313.851562 C 714.910156 314.65625 717.304688 314.464844 718.675781 312.359375 " fill-opacity="1" fill-rule="nonzero"/><path fill="#f3e9d7" d="M 735.109375 233.007812 C 730.453125 233.59375 725.804688 234.242188 721.105469 234.992188 L 714.117188 236.128906 C 711.902344 236.503906 710.332031 237.667969 709.472656 235.402344 C 708.609375 233.101562 711.542969 226.445312 712.074219 223.878906 C 713.058594 219.132812 713.800781 214.429688 714.601562 209.574219 C 715.402344 204.339844 707.515625 202.5 706.707031 207.75 C 705.582031 214.785156 704.371094 221.625 702.988281 228.339844 C 701.976562 232.878906 699.582031 238.890625 703.316406 242.601562 C 704.671875 243.96875 706.265625 244.503906 707.964844 244.652344 C 709.621094 244.8125 711.40625 244.554688 713.1875 244.3125 C 721.03125 243.230469 728.941406 242.109375 736.933594 241.226562 C 742.117188 240.703125 740.199219 232.367188 735.109375 233.007812 " fill-opacity="1" fill-rule="nonzero"/><path fill="#f3e9d7" d="M 733.726562 410.949219 C 740.179688 405.335938 746.695312 399.394531 753.089844 393.132812 C 756.882812 389.324219 764.863281 383.863281 764.070312 377.25 C 763.847656 375.203125 762.90625 373.800781 761.574219 372.71875 C 760.261719 371.628906 758.609375 370.855469 756.917969 370.042969 C 748.519531 366.039062 740.082031 362.691406 731.585938 359.511719 C 729.179688 358.632812 727.285156 359.941406 726.554688 361.65625 C 725.753906 363.390625 726.121094 365.535156 728.460938 366.457031 C 733.496094 368.433594 738.550781 370.527344 743.621094 372.730469 C 746.234375 373.875 749.761719 374.78125 752.035156 376.515625 C 755.332031 379.050781 755.464844 377.21875 753.609375 381.128906 C 751.53125 385.535156 745.0625 389.996094 741.742188 393.25 C 737.234375 397.589844 732.527344 401.777344 727.929688 405.796875 C 724.191406 408.992188 730.003906 414.132812 733.726562 410.949219 " fill-opacity="1" fill-rule="nonzero"/><path fill="#f3e9d7" d="M 772.90625 340.003906 C 768.265625 339.191406 763.648438 338.429688 759.011719 337.730469 L 751.984375 336.746094 C 749.757812 336.449219 747.914062 337.097656 747.753906 334.675781 C 747.59375 332.230469 752.34375 326.746094 753.597656 324.453125 C 756.035156 320.1875 758.144531 315.917969 760.289062 311.535156 C 762.585938 306.769531 755.550781 302.691406 753.257812 307.460938 C 751.695312 310.644531 750.121094 313.78125 748.539062 316.875 C 746.953125 319.957031 745.382812 322.988281 743.597656 326.023438 C 741.304688 330.054688 737.265625 335.082031 739.75 339.726562 C 740.683594 341.425781 741.984375 342.421875 743.515625 343.070312 C 745.058594 343.714844 746.835938 344.003906 748.617188 344.300781 C 756.441406 345.59375 764.339844 346.859375 772.238281 348.390625 C 777.355469 349.421875 777.964844 340.898438 772.90625 340.003906 " fill-opacity="1" fill-rule="nonzero"/></svg>