<svg xmlns="http://www.w3.org/2000/svg" xmlns:xlink="http://www.w3.org/1999/xlink" width="1080" zoomAndPan="magnify" viewBox="0 0 810 1439.999935" height="1920" preserveAspectRatio="xMidYMid meet" version="1.0"><defs><clipPath id="abfe2a6b3e"><path d="M 0 484.582031 L 810 484.582031 L 810 1440 L 0 1440 Z M 0 484.582031 " clip-rule="nonzero"/></clipPath><clipPath id="e6b0dc320d"><path d="M 555.097656 711.742188 C 879.699219 444.386719 1197.003906 383.34375 1514.3125 691.175781 L 1514.3125 1668.058594 C 1186.0625 1174.476562 857.8125 1452.117188 540.507812 1719.472656 C 215.90625 1986.832031 -101.398438 2047.875 -418.707031 1740.039062 L -418.707031 763.15625 C -90.457031 1256.738281 237.789062 979.101562 555.097656 711.742188 Z M 555.097656 711.742188 " clip-rule="nonzero"/></clipPath><clipPath id="834111f018"><path d="M 0 0.582031 L 810 0.582031 L 810 956 L 0 956 Z M 0 0.582031 " clip-rule="nonzero"/></clipPath><clipPath id="919025eebf"><path d="M 555.097656 227.742188 C 879.699219 -39.613281 1197.003906 -100.65625 1514.3125 207.175781 L 1514.3125 1184.058594 C 1186.0625 690.476562 857.8125 968.117188 540.507812 1235.472656 C 215.90625 1502.832031 -101.398438 1563.875 -418.707031 1256.039062 L -418.707031 279.15625 C -90.457031 772.738281 237.789062 495.101562 555.097656 227.742188 Z M 555.097656 227.742188 " clip-rule="nonzero"/></clipPath><clipPath id="32d768446e"><rect x="0" width="810" y="0" height="956"/></clipPath></defs><g clip-path="url(#abfe2a6b3e)"><g clip-path="url(#e6b0dc320d)"><g transform="matrix(1, 0, 0, 1, 0, 484)"><g clip-path="url(#32d768446e)"><g clip-path="url(#834111f018)"><g clip-path="url(#919025eebf)"><rect x="-178.2" width="1166.4" fill="#ff7809" height="2073.599906" y="-800.799986" fill-opacity="1"/></g></g></g></g></g></g></svg>