<svg xmlns="http://www.w3.org/2000/svg" xmlns:xlink="http://www.w3.org/1999/xlink" width="1080" zoomAndPan="magnify" viewBox="0 0 810 809.999993" height="1080" preserveAspectRatio="xMidYMid meet" version="1.0"><defs><filter x="0%" y="0%" width="100%" height="100%" id="3e9944ddc1"><feColorMatrix values="0 0 0 0 1 0 0 0 0 1 0 0 0 0 1 0 0 0 1 0" color-interpolation-filters="sRGB"/></filter><mask id="73c1854454"><g filter="url(#3e9944ddc1)"><rect x="-81" width="972" fill="#000000" y="-80.999999" height="971.999992" fill-opacity="0.3"/></g></mask><clipPath id="942877aed5"><path d="M 492 0.238281 L 810 0.238281 L 810 247 L 492 247 Z M 492 0.238281 " clip-rule="nonzero"/></clipPath><clipPath id="16a3f9cb28"><path d="M 0 0.238281 L 429 0.238281 L 429 518 L 0 518 Z M 0 0.238281 " clip-rule="nonzero"/></clipPath><clipPath id="8dfb3c81fe"><path d="M 0 487 L 762 487 L 762 809.761719 L 0 809.761719 Z M 0 487 " clip-rule="nonzero"/></clipPath><clipPath id="092bdea98f"><path d="M 618 365 L 810 365 L 810 672 L 618 672 Z M 618 365 " clip-rule="nonzero"/></clipPath><clipPath id="3abb30138a"><path d="M 0 0.238281 L 371 0.238281 L 371 434 L 0 434 Z M 0 0.238281 " clip-rule="nonzero"/></clipPath><clipPath id="735cedf9de"><path d="M 0 0.238281 L 311 0.238281 L 311 390 L 0 390 Z M 0 0.238281 " clip-rule="nonzero"/></clipPath><clipPath id="9dd5fad53b"><path d="M 0 0.238281 L 278 0.238281 L 278 347 L 0 347 Z M 0 0.238281 " clip-rule="nonzero"/></clipPath><clipPath id="6df5227da2"><path d="M 0 0.238281 L 220 0.238281 L 220 295 L 0 295 Z M 0 0.238281 " clip-rule="nonzero"/></clipPath><clipPath id="cc4ef865a8"><path d="M 0 0.238281 L 162 0.238281 L 162 212 L 0 212 Z M 0 0.238281 " clip-rule="nonzero"/></clipPath><clipPath id="e4b4124fa6"><path d="M 0 0.238281 L 77 0.238281 L 77 127 L 0 127 Z M 0 0.238281 " clip-rule="nonzero"/></clipPath><clipPath id="7257316fef"><path d="M 533 0.238281 L 810 0.238281 L 810 202 L 533 202 Z M 533 0.238281 " clip-rule="nonzero"/></clipPath><clipPath id="8d0159aa05"><path d="M 569 0.238281 L 810 0.238281 L 810 149 L 569 149 Z M 569 0.238281 " clip-rule="nonzero"/></clipPath><clipPath id="0bf6c3162f"><path d="M 641 0.238281 L 810 0.238281 L 810 92 L 641 92 Z M 641 0.238281 " clip-rule="nonzero"/></clipPath><clipPath id="6bf9bd5bef"><path d="M 737 0.238281 L 810 0.238281 L 810 48 L 737 48 Z M 737 0.238281 " clip-rule="nonzero"/></clipPath><clipPath id="3c636ed060"><path d="M 668 413 L 810 413 L 810 588 L 668 588 Z M 668 413 " clip-rule="nonzero"/></clipPath><clipPath id="b9a4e62169"><path d="M 772 472 L 810 472 L 810 532 L 772 532 Z M 772 472 " clip-rule="nonzero"/></clipPath><clipPath id="50f6c3538c"><path d="M 92 576 L 673 576 L 673 809.761719 L 92 809.761719 Z M 92 576 " clip-rule="nonzero"/></clipPath><clipPath id="edb34e24b7"><path d="M 193 678 L 576 678 L 576 809.761719 L 193 809.761719 Z M 193 678 " clip-rule="nonzero"/></clipPath><clipPath id="ebe1ebf232"><path d="M 278 745 L 516 745 L 516 809.761719 L 278 809.761719 Z M 278 745 " clip-rule="nonzero"/></clipPath><clipPath id="4984327069"><path d="M 447 0.238281 L 810 0.238281 L 810 280 L 447 280 Z M 447 0.238281 " clip-rule="nonzero"/></clipPath><clipPath id="b2570351cf"><path d="M 399 0.238281 L 810 0.238281 L 810 333 L 399 333 Z M 399 0.238281 " clip-rule="nonzero"/></clipPath><clipPath id="f843caa322"><path d="M 585 341 L 810 341 L 810 782 L 585 782 Z M 585 341 " clip-rule="nonzero"/></clipPath><clipPath id="9f222214d6"><path d="M 0 447 L 810 447 L 810 809.761719 L 0 809.761719 Z M 0 447 " clip-rule="nonzero"/></clipPath><clipPath id="e2f0be0dbf"><path d="M 0 314 L 810 314 L 810 613 L 0 613 Z M 0 314 " clip-rule="nonzero"/></clipPath><clipPath id="2a0f219ab2"><rect x="0" width="810" y="0" height="810"/></clipPath></defs><g mask="url(#73c1854454)"><g transform="matrix(1, 0, 0, 1, 0, 0.000000000000039746)"><g clip-path="url(#2a0f219ab2)"><g clip-path="url(#942877aed5)"><path fill="#f3e9d7" d="M 506.835938 1.339844 C 496.871094 19.277344 491.921875 39.914062 492.597656 60.417969 C 492.9375 70.675781 494.675781 80.910156 497.917969 90.65625 C 499.519531 95.484375 501.492188 100.195312 503.820312 104.722656 C 506.226562 109.410156 509.078125 113.851562 511.691406 118.425781 C 514.375 123.113281 516.851562 127.992188 518.117188 133.273438 C 519.316406 138.269531 519.160156 143.402344 517.898438 148.367188 C 515.457031 157.980469 509.746094 166.351562 505.277344 175.085938 C 501.097656 183.253906 498.164062 191.785156 498.519531 201.0625 C 498.851562 209.738281 501.621094 218.304688 506.332031 225.59375 C 510.984375 232.796875 517.574219 238.820312 525.445312 242.320312 C 533.347656 245.832031 542.160156 246.828125 550.695312 245.609375 C 559.214844 244.390625 567.394531 240.929688 574.105469 235.53125 C 581.871094 229.289062 586.492188 220.566406 590.226562 211.5 C 594.203125 201.839844 597.382812 191.582031 604.128906 183.398438 C 610.289062 175.929688 619.46875 169.84375 629.546875 172.019531 C 634.792969 173.152344 639.390625 176.148438 643.703125 179.210938 C 648.027344 182.277344 652.289062 185.390625 656.8125 188.15625 C 665.589844 193.53125 674.929688 197.957031 684.554688 201.589844 C 704.28125 209.042969 725.105469 213.121094 745.957031 215.847656 C 768.390625 218.785156 791.007812 220.226562 813.558594 221.996094 C 819.667969 222.476562 825.773438 222.953125 831.886719 223.433594 C 833.152344 223.53125 833.144531 221.558594 831.886719 221.460938 C 808.769531 219.652344 785.605469 218.117188 762.535156 215.78125 C 741.566406 213.660156 720.582031 210.625 700.300781 204.742188 C 690.308594 201.84375 680.507812 198.242188 671.136719 193.71875 C 661.734375 189.175781 653.195312 183.535156 644.703125 177.507812 C 640.601562 174.597656 636.265625 171.800781 631.367188 170.441406 C 626.980469 169.222656 622.328125 169.347656 618.015625 170.800781 C 609.28125 173.734375 602.5 181.074219 597.960938 188.855469 C 592.679688 197.910156 589.980469 208.203125 585.378906 217.585938 C 581.140625 226.21875 575.164062 233.429688 566.707031 238.175781 C 551.246094 246.839844 530.886719 246.300781 517.019531 234.769531 C 503.46875 223.5 497.054688 204.0625 502.320312 187.097656 C 507.859375 169.25 524.363281 153.84375 520.261719 133.820312 C 518.15625 123.535156 511.601562 114.917969 506.660156 105.878906 C 501.726562 96.851562 498.320312 87.035156 496.394531 76.9375 C 492.53125 56.699219 494.667969 35.390625 502.050781 16.1875 C 503.882812 11.421875 506.066406 6.804688 508.542969 2.347656 C 509.152344 1.226562 507.453125 0.234375 506.835938 1.339844 Z M 506.835938 1.339844 " fill-opacity="1" fill-rule="nonzero"/></g><g clip-path="url(#16a3f9cb28)"><path fill="#f3e9d7" d="M 352.523438 2.101562 C 359.308594 30.5625 351.175781 60.003906 350.054688 88.640625 C 349.507812 102.546875 350.546875 116.59375 355.242188 129.785156 C 360.070312 143.347656 368.023438 155.503906 376.699219 166.898438 C 394.113281 189.769531 416.03125 211.203125 423.765625 239.757812 C 429.75 261.859375 424.132812 290.742188 402.148438 302.023438 C 378.960938 313.921875 351.734375 301.882812 327.378906 308.023438 C 316.601562 310.742188 307.890625 317.394531 301.851562 326.652344 C 295.699219 336.070312 292.242188 346.953125 288.113281 357.335938 C 283.804688 368.171875 278.613281 378.953125 269.507812 386.59375 C 259.105469 395.324219 245.398438 399.1875 232.09375 400.421875 C 216.765625 401.839844 201.421875 399.6875 186.171875 398.328125 C 171.027344 396.976562 156 396.828125 141.054688 399.921875 C 83.40625 411.835938 41.734375 457.992188 3.1875 498.921875 C -2.195312 504.636719 -7.601562 510.320312 -13.101562 515.921875 C -13.992188 516.828125 -12.597656 518.222656 -11.707031 517.316406 C 29.660156 475.1875 68.800781 424.535156 127.21875 405.632812 C 141.109375 401.140625 155.53125 398.980469 170.128906 399.3125 C 186.898438 399.699219 203.503906 402.6875 220.28125 402.863281 C 232.96875 402.992188 245.96875 401.304688 257.660156 396.152344 C 268.785156 391.246094 277.421875 383.09375 283.304688 372.5 C 293.980469 353.296875 296.71875 326.140625 317.316406 314.167969 C 328.328125 307.769531 341.515625 307.777344 353.859375 308.363281 C 366.417969 308.964844 379.261719 310.4375 391.683594 307.761719 C 402.894531 305.34375 412.484375 299.019531 418.839844 289.445312 C 425.085938 280.042969 427.949219 268.554688 428.039062 257.34375 C 428.261719 229.441406 410.402344 205.617188 393.644531 184.945312 C 384.292969 173.40625 374.660156 162.015625 366.910156 149.308594 C 359.105469 136.511719 353.871094 122.664062 352.433594 107.691406 C 349.644531 78.585938 358.097656 49.851562 356.960938 20.765625 C 356.707031 14.304688 355.925781 7.878906 354.425781 1.585938 C 354.132812 0.34375 352.230469 0.867188 352.523438 2.101562 Z M 352.523438 2.101562 " fill-opacity="1" fill-rule="nonzero"/></g><g clip-path="url(#8dfb3c81fe)"><path fill="#f3e9d7" d="M -4.503906 808.894531 C 24.824219 786.214844 48.847656 756.824219 64.957031 723.410156 C 73.355469 705.992188 79.128906 687.652344 83.800781 668.921875 C 88.871094 648.601562 92.988281 627.996094 99.777344 608.148438 C 111.515625 573.816406 133.289062 544.140625 162.691406 522.820312 C 190.84375 502.414062 225.25 489.828125 260.175781 489.507812 C 278.152344 489.335938 296.5 492.429688 312.832031 500.15625 C 329.628906 508.105469 341.5625 520.609375 351.414062 536.117188 C 360.347656 550.1875 368.71875 565.472656 383.503906 574.238281 C 398.4375 583.09375 416.429688 583.449219 433.058594 580.222656 C 471.980469 572.667969 504.917969 543.921875 545.261719 542.554688 C 563.625 541.9375 580.691406 548.835938 593.617188 561.816406 C 605.285156 573.535156 613.183594 588.515625 619.882812 603.472656 C 626.898438 619.132812 632.695312 635.300781 639.820312 650.917969 C 647.742188 668.28125 656.796875 685.128906 666.878906 701.332031 C 687.082031 733.820312 711.410156 763.753906 739.066406 790.191406 C 745.8125 796.640625 752.765625 802.871094 759.890625 808.898438 C 760.851562 809.714844 762.257812 808.328125 761.285156 807.503906 C 731.222656 782.0625 704.453125 752.808594 681.898438 720.519531 C 670.722656 704.527344 660.582031 687.8125 651.574219 670.503906 C 642.839844 653.722656 635.640625 636.351562 628.523438 618.84375 C 617.164062 590.902344 603.308594 558.363281 573.652344 545.691406 C 535.265625 529.292969 496.71875 555.179688 462.152344 569.199219 C 444.820312 576.230469 425.703125 581.804688 406.816406 579.75 C 397.390625 578.726562 388.253906 575.507812 380.539062 569.9375 C 372.871094 564.394531 367.042969 556.804688 361.878906 548.976562 C 352.339844 534.515625 344.285156 519.355469 330.335938 508.535156 C 316.578125 497.867188 299.734375 491.730469 282.632812 489.117188 C 215.148438 478.804688 145.113281 518.074219 111.839844 576.246094 C 91.375 612.023438 87.59375 653.679688 75.222656 692.355469 C 63.496094 729.019531 42.59375 762.484375 15.039062 789.34375 C 8.417969 795.800781 1.421875 801.839844 -5.890625 807.496094 C -6.898438 808.277344 -5.496094 809.664062 -4.503906 808.894531 Z M -4.503906 808.894531 " fill-opacity="1" fill-rule="nonzero"/></g><g clip-path="url(#092bdea98f)"><path fill="#f3e9d7" d="M 832.734375 670.40625 C 821.230469 654.84375 808.761719 640.003906 795.375 626.035156 C 781.921875 612 767.5625 598.835938 752.402344 586.675781 C 737.398438 574.644531 721.496094 563.945312 705.5 553.300781 C 689.558594 542.691406 673.625 531.871094 659.578125 518.78125 C 646.296875 506.402344 635.101562 491.957031 628.046875 475.125 C 621.425781 459.328125 618.429688 441.539062 622.351562 424.664062 C 626.082031 408.597656 636.058594 394.921875 649.375 385.375 C 662.589844 375.902344 678.472656 370.285156 694.546875 368.257812 C 714.71875 365.71875 735.253906 368.859375 754.808594 373.855469 C 775.632812 379.175781 795.917969 386.550781 816.273438 393.40625 C 821.394531 395.128906 826.507812 396.859375 831.625 398.582031 C 832.832031 398.988281 833.347656 397.082031 832.148438 396.679688 C 811.246094 389.632812 790.429688 382.191406 769.296875 375.847656 C 748.9375 369.742188 727.847656 365.03125 706.472656 365.449219 C 689.882812 365.769531 673.285156 369.636719 658.566406 377.398438 C 644.511719 384.808594 632.253906 396.023438 625.289062 410.453125 C 617.785156 425.992188 617.089844 443.757812 621.109375 460.359375 C 625.238281 477.445312 633.964844 493.371094 645.28125 506.746094 C 657.691406 521.414062 673.039062 533.347656 688.722656 544.292969 C 704.683594 555.433594 721.25 565.691406 736.925781 577.234375 C 752.933594 589.027344 768.132812 601.925781 782.40625 615.769531 C 796.546875 629.492188 809.789062 644.140625 822.019531 659.59375 C 825.097656 663.476562 828.101562 667.414062 831.046875 671.398438 C 831.773438 672.410156 833.488281 671.429688 832.734375 670.40625 Z M 832.734375 670.40625 " fill-opacity="1" fill-rule="nonzero"/></g><g clip-path="url(#3abb30138a)"><path fill="#f3e9d7" d="M 325.644531 2.339844 C 336.851562 24.449219 335.792969 50.675781 332.769531 74.59375 C 329.578125 99.902344 324.410156 126.019531 330.046875 151.371094 C 332.746094 163.511719 338.367188 174.40625 344.898438 184.894531 C 351.175781 194.972656 358.164062 204.769531 362.941406 215.695312 C 370.898438 233.882812 372.191406 259.929688 352.839844 271.457031 C 343.671875 276.917969 332.589844 277.648438 322.191406 278.285156 C 311.753906 278.917969 301.039062 279.277344 291.121094 282.929688 C 272.695312 289.714844 259.867188 305.511719 246.621094 319.1875 C 239.75 326.28125 232.527344 333.1875 224.082031 338.386719 C 213.703125 344.78125 201.828125 347.972656 189.839844 349.628906 C 177.359375 351.351562 164.734375 351.546875 152.179688 352.378906 C 140.890625 353.128906 129.667969 354.589844 118.589844 356.894531 C 73.773438 366.21875 31.742188 388.445312 -1.429688 419.957031 C -5.457031 423.78125 -9.34375 427.746094 -13.101562 431.835938 C -13.957031 432.769531 -12.570312 434.167969 -11.707031 433.230469 C 4.070312 416.070312 22.265625 401.214844 42.214844 389.152344 C 62.253906 377.035156 83.980469 367.742188 106.621094 361.75 C 117.945312 358.753906 129.488281 356.570312 141.132812 355.300781 C 153.359375 353.96875 165.667969 353.789062 177.925781 352.839844 C 190.050781 351.90625 202.308594 350.230469 213.6875 345.75 C 223.359375 341.9375 231.769531 336.027344 239.402344 329.039062 C 254.019531 315.648438 265.929688 298.554688 283.464844 288.652344 C 292.953125 283.289062 303.332031 281.515625 314.082031 280.757812 C 324.425781 280.03125 335.105469 280.058594 345.105469 276.96875 C 354.414062 274.097656 362.449219 268.054688 366.664062 259.132812 C 370.835938 250.304688 371.175781 240.160156 369.519531 230.671875 C 365.414062 207.148438 347.945312 189.539062 338.015625 168.535156 C 326.503906 144.183594 329.117188 116.941406 332.554688 91.070312 C 335.808594 66.613281 339.625 41.425781 333.292969 17.109375 C 331.871094 11.660156 329.898438 6.371094 327.355469 1.347656 C 326.773438 0.210938 325.074219 1.207031 325.644531 2.339844 Z M 325.644531 2.339844 " fill-opacity="1" fill-rule="nonzero"/></g><g clip-path="url(#735cedf9de)"><path fill="#f3e9d7" d="M -21.195312 388.804688 C 8.171875 364.503906 44.96875 352.65625 81.164062 342.714844 C 117.574219 332.714844 154.675781 324.070312 188.328125 306.378906 C 207.785156 296.144531 226.1875 283.9375 244.789062 272.25 C 254.5 266.148438 264.214844 260.046875 273.925781 253.941406 C 281.523438 249.167969 289.878906 244.636719 295.800781 237.730469 C 301.679688 230.863281 303.355469 222.40625 301.789062 213.621094 C 300.058594 203.925781 295.476562 195.03125 293.1875 185.484375 C 288.152344 164.503906 298.003906 144.046875 304.152344 124.449219 C 315.5625 88.058594 312.167969 47.929688 295.371094 13.726562 C 293.289062 9.492188 291 5.363281 288.527344 1.34375 C 287.863281 0.265625 286.15625 1.253906 286.824219 2.339844 C 306.941406 35.015625 314.007812 75.585938 305.257812 113.035156 C 300.679688 132.625 290.519531 151.171875 289.84375 171.578125 C 289.511719 181.53125 292.433594 190.582031 295.710938 199.84375 C 298.820312 208.636719 302.273438 218.347656 299.34375 227.671875 C 296.574219 236.480469 288.691406 242.214844 281.269531 246.996094 C 272.078125 252.910156 262.765625 258.636719 253.515625 264.449219 C 234.867188 276.167969 216.410156 288.320312 197.265625 299.234375 C 180.09375 309.023438 162.113281 316.8125 143.355469 323.011719 C 125.71875 328.839844 107.734375 333.507812 89.804688 338.335938 C 54.929688 347.722656 19.222656 357.835938 -10.871094 378.5625 C -14.90625 381.339844 -18.808594 384.300781 -22.578125 387.421875 C -23.566406 388.222656 -22.164062 389.609375 -21.195312 388.804688 Z M -21.195312 388.804688 " fill-opacity="1" fill-rule="nonzero"/></g><g clip-path="url(#9dd5fad53b)"><path fill="#f3e9d7" d="M 249.664062 2.339844 C 268.597656 30.121094 277.578125 64.417969 274.640625 97.917969 C 273.914062 106.183594 272.445312 114.375 270.238281 122.375 C 267.816406 131.140625 264.277344 139.519531 261.332031 148.113281 C 258.371094 156.746094 256.207031 165.613281 256.417969 174.792969 C 256.640625 184.273438 258.628906 193.703125 257.496094 203.191406 C 255.601562 218.972656 246.378906 232.878906 234.964844 243.519531 C 222.734375 254.917969 207.601562 262.855469 192.023438 268.648438 C 159.378906 280.792969 124.34375 283.859375 90.703125 292.191406 C 56.699219 300.613281 24.644531 315.746094 -3.214844 337.03125 C -6.574219 339.597656 -9.871094 342.246094 -13.101562 344.972656 C -14.074219 345.792969 -12.671875 347.179688 -11.707031 346.367188 C 15.777344 323.191406 48.152344 305.953125 82.796875 296.308594 C 116.46875 286.929688 151.6875 284.078125 184.976562 273.191406 C 214.554688 263.515625 246.75 245.429688 257.085938 213.996094 C 259.769531 205.835938 260.15625 197.507812 259.460938 188.992188 C 259.046875 183.933594 258.425781 178.886719 258.378906 173.808594 C 258.335938 169.101562 258.910156 164.445312 259.957031 159.859375 C 262.042969 150.699219 265.71875 142.015625 268.859375 133.1875 C 271.753906 125.042969 273.976562 116.703125 275.34375 108.160156 C 280.613281 75.289062 274.210938 40.753906 257.863281 11.777344 C 255.847656 8.210938 253.679688 4.734375 251.367188 1.34375 C 250.65625 0.300781 248.945312 1.285156 249.664062 2.339844 Z M 249.664062 2.339844 " fill-opacity="1" fill-rule="nonzero"/></g><g clip-path="url(#6df5227da2)"><path fill="#f3e9d7" d="M 184.425781 2.535156 C 193.324219 13.386719 201.664062 24.847656 207.800781 37.515625 C 214.15625 50.648438 217.511719 64.761719 217.167969 79.382812 C 216.789062 95.5625 212.796875 111.410156 209.289062 127.128906 C 205.6875 143.238281 202.085938 159.355469 198.488281 175.464844 C 195.429688 189.15625 193.148438 204.238281 184.300781 215.617188 C 176.660156 225.445312 165.070312 231.167969 153.207031 234.136719 C 139.351562 237.605469 125.0625 237.265625 110.894531 236.757812 C 95.410156 236.210938 79.855469 235.695312 64.664062 239.328125 C 36.898438 245.960938 13.054688 263.421875 -5.851562 284.3125 C -8.34375 287.0625 -10.757812 289.882812 -13.109375 292.753906 C -13.910156 293.726562 -12.523438 295.132812 -11.714844 294.148438 C 6.851562 271.527344 30.152344 251.808594 58.53125 243.050781 C 65.644531 240.855469 72.960938 239.429688 80.378906 238.800781 C 88.527344 238.113281 96.722656 238.253906 104.886719 238.523438 C 119.453125 239 134.148438 239.890625 148.5625 237.167969 C 160.523438 234.914062 172.472656 230.261719 181.394531 221.75 C 191.527344 212.078125 195.316406 198.5625 198.300781 185.316406 C 201.949219 169.132812 205.539062 152.933594 209.152344 136.746094 C 212.664062 121.03125 216.78125 105.28125 218.484375 89.238281 C 220.074219 74.207031 218.660156 59.339844 213.25 45.175781 C 208.253906 32.105469 200.644531 20.21875 192.171875 9.144531 C 190.101562 6.441406 187.976562 3.773438 185.816406 1.140625 C 185.019531 0.164062 183.628906 1.5625 184.425781 2.535156 Z M 184.425781 2.535156 " fill-opacity="1" fill-rule="nonzero"/></g><g clip-path="url(#cc4ef865a8)"><path fill="#f3e9d7" d="M 114.125 2.535156 C 128.964844 18.546875 140.738281 37.375 148.636719 57.726562 C 152.59375 67.921875 155.59375 78.492188 157.539062 89.253906 C 159.585938 100.574219 160.597656 112.207031 159.679688 123.699219 C 158.78125 134.933594 155.851562 146.167969 149.863281 155.804688 C 144.738281 164.050781 137.503906 171.121094 128.691406 175.3125 C 123.789062 177.644531 118.492188 178.882812 113.085938 179.253906 C 106.796875 179.683594 100.496094 179.109375 94.226562 178.636719 C 82.5625 177.757812 70.929688 177.957031 59.335938 179.558594 C 36.257812 182.742188 13.878906 191.101562 -5.527344 204.011719 C -8.035156 205.679688 -10.496094 207.425781 -12.90625 209.238281 C -13.90625 209.988281 -12.925781 211.703125 -11.910156 210.941406 C 7.273438 196.515625 29.714844 186.785156 53.328125 182.503906 C 64.921875 180.402344 76.757812 179.632812 88.523438 180.230469 C 100.640625 180.851562 113.132812 182.984375 124.914062 178.960938 C 134.207031 175.792969 142.148438 169.492188 148.113281 161.765625 C 154.761719 153.148438 158.746094 142.84375 160.589844 132.164062 C 162.625 120.378906 162.226562 108.308594 160.652344 96.496094 C 159.195312 85.5625 156.667969 74.785156 153.128906 64.34375 C 146.074219 43.503906 135.089844 24.03125 120.902344 7.214844 C 119.152344 5.152344 117.359375 3.125 115.523438 1.140625 C 114.660156 0.210938 113.265625 1.605469 114.125 2.535156 Z M 114.125 2.535156 " fill-opacity="1" fill-rule="nonzero"/></g><g clip-path="url(#e4b4124fa6)"><path fill="#f3e9d7" d="M 54.878906 2.339844 C 61.929688 13.078125 67.320312 24.882812 70.757812 37.261719 C 72.480469 43.472656 73.730469 49.816406 74.433594 56.222656 C 75.042969 61.78125 75.28125 67.398438 74.605469 72.960938 C 73.976562 78.15625 72.480469 83.363281 69.546875 87.742188 C 66.492188 92.300781 61.914062 95.359375 56.753906 97.089844 C 51.1875 98.957031 45.292969 99.527344 39.503906 100.304688 C 33.519531 101.105469 27.648438 102.332031 21.914062 104.246094 C 10.339844 108.113281 -0.390625 114.308594 -9.699219 122.179688 C -10.855469 123.15625 -11.992188 124.164062 -13.101562 125.191406 C -14.039062 126.054688 -12.636719 127.445312 -11.707031 126.585938 C -2.707031 118.265625 7.847656 111.570312 19.335938 107.25 C 25.117188 105.078125 31.109375 103.515625 37.21875 102.601562 C 43.046875 101.726562 48.960938 101.277344 54.671875 99.769531 C 60.21875 98.308594 65.492188 95.699219 69.289062 91.304688 C 72.785156 87.265625 74.859375 82.222656 75.925781 77.023438 C 77.046875 71.589844 77.183594 65.980469 76.789062 60.460938 C 76.332031 54.039062 75.332031 47.648438 73.847656 41.386719 C 70.859375 28.734375 65.855469 16.539062 59.132812 5.40625 C 58.308594 4.039062 57.453125 2.691406 56.578125 1.355469 C 55.886719 0.285156 54.179688 1.273438 54.878906 2.339844 Z M 54.878906 2.339844 " fill-opacity="1" fill-rule="nonzero"/></g><g clip-path="url(#7257316fef)"><path fill="#f3e9d7" d="M 555.933594 1.339844 C 547.632812 12.734375 540.042969 25.023438 536.085938 38.660156 C 534.191406 45.171875 533.195312 51.972656 533.398438 58.765625 C 533.625 66.1875 535.363281 73.445312 537.804688 80.433594 C 540.328125 87.671875 543.496094 94.664062 546.535156 101.691406 C 549.796875 109.25 553.0625 116.804688 556.328125 124.363281 C 559.339844 131.339844 562.234375 138.382812 565.40625 145.289062 C 567.84375 150.605469 570.71875 155.988281 575.015625 160.050781 C 579.328125 164.136719 584.949219 166.289062 590.910156 165.660156 C 598.027344 164.90625 604.382812 161.148438 610.628906 157.941406 C 623.226562 151.476562 637.023438 147.933594 651.121094 146.945312 C 680.164062 144.902344 708.71875 152.75 735.460938 163.386719 C 763.96875 174.726562 791.25 189.191406 820.519531 198.597656 C 824.1875 199.777344 827.890625 200.867188 831.617188 201.859375 C 832.84375 202.1875 833.367188 200.285156 832.140625 199.960938 C 802.679688 192.089844 775.398438 178.101562 747.453125 166.21875 C 721.277344 155.089844 693.996094 145.75 665.308594 144.742188 C 651.644531 144.261719 637.824219 145.722656 624.777344 149.917969 C 618.179688 152.042969 612.03125 155.007812 605.882812 158.183594 C 599.625 161.414062 592.445312 164.996094 585.195312 163.445312 C 572.757812 160.792969 567.808594 146.023438 563.386719 135.785156 C 557.117188 121.28125 550.804688 106.789062 544.589844 92.257812 C 541.59375 85.25 538.722656 78.132812 536.980469 70.691406 C 535.339844 63.675781 534.914062 56.472656 535.832031 49.320312 C 537.617188 35.402344 544.085938 22.523438 551.683594 10.910156 C 553.585938 7.996094 555.582031 5.148438 557.632812 2.335938 C 558.386719 1.308594 556.675781 0.328125 555.933594 1.339844 Z M 555.933594 1.339844 " fill-opacity="1" fill-rule="nonzero"/></g><g clip-path="url(#8d0159aa05)"><path fill="#f3e9d7" d="M 628.089844 1.144531 C 611.25 16.96875 587.601562 25.988281 575.160156 46.332031 C 569.761719 55.160156 567.679688 65.714844 570.433594 75.796875 C 573.195312 85.914062 580.117188 94.441406 588.367188 100.691406 C 609.324219 116.550781 637.066406 114.863281 661.921875 114.453125 C 689.289062 114 716.640625 116.214844 743.554688 121.230469 C 770.292969 126.214844 796.53125 133.855469 821.761719 144.019531 C 824.984375 145.316406 828.191406 146.660156 831.378906 148.042969 C 832.53125 148.542969 833.539062 146.84375 832.375 146.339844 C 807.777344 135.6875 782.171875 127.414062 755.980469 121.726562 C 729.792969 116.039062 703.042969 112.902344 676.25 112.460938 C 662.859375 112.238281 649.464844 113.066406 636.078125 112.609375 C 623.457031 112.179688 610.347656 110.542969 598.902344 104.875 C 589.402344 100.167969 580.871094 92.878906 575.710938 83.53125 C 570.601562 74.265625 569.773438 63.488281 573.679688 53.625 C 577.589844 43.757812 585.429688 35.921875 593.550781 29.367188 C 602.71875 21.96875 612.980469 16.09375 622.214844 8.785156 C 624.722656 6.800781 627.15625 4.726562 629.488281 2.53125 C 630.414062 1.664062 629.015625 0.273438 628.089844 1.144531 Z M 628.089844 1.144531 " fill-opacity="1" fill-rule="nonzero"/></g><g clip-path="url(#0bf6c3162f)"><path fill="#f3e9d7" d="M 686.378906 1.339844 C 682.453125 9.992188 674.988281 16.152344 667.667969 21.882812 C 660.5 27.5 653.167969 32.984375 647.925781 40.554688 C 643.042969 47.601562 640.101562 56.421875 642.652344 64.910156 C 644.722656 71.804688 650.03125 77.078125 656.21875 80.484375 C 672.011719 89.167969 690.933594 86.304688 707.683594 82.4375 C 717.535156 80.164062 727.261719 77.355469 737.199219 75.476562 C 746.992188 73.628906 756.9375 72.957031 766.890625 73.480469 C 786.898438 74.527344 806.539062 80.078125 824.8125 88.144531 C 827.015625 89.117188 829.21875 90.105469 831.375 91.179688 C 832.507812 91.742188 833.511719 90.042969 832.371094 89.476562 C 823.597656 85.113281 814.363281 81.507812 805.015625 78.585938 C 795.621094 75.648438 785.984375 73.496094 776.210938 72.316406 C 766.527344 71.144531 756.710938 70.976562 747.007812 72.023438 C 737.109375 73.09375 727.449219 75.5 717.816406 77.925781 C 708.113281 80.371094 698.347656 82.855469 688.359375 83.796875 C 680.066406 84.582031 671.726562 84.328125 663.777344 81.644531 C 657.136719 79.40625 650.609375 75.480469 646.832031 69.410156 C 642.390625 62.269531 643.050781 53.648438 646.753906 46.34375 C 655.15625 29.75 674.011719 23.042969 684.621094 8.339844 C 685.976562 6.464844 687.121094 4.449219 688.074219 2.339844 C 688.605469 1.191406 686.90625 0.1875 686.378906 1.339844 Z M 686.378906 1.339844 " fill-opacity="1" fill-rule="nonzero"/></g><g clip-path="url(#6bf9bd5bef)"><path fill="#f3e9d7" d="M 742.5625 1.339844 C 738.734375 7.273438 736.769531 14.703125 738.078125 21.722656 C 738.699219 25.050781 740.164062 28.195312 742.390625 30.75 C 744.820312 33.527344 748.105469 35.457031 751.59375 36.585938 C 758.953125 38.957031 766.941406 38.089844 774.519531 37.707031 C 783.648438 37.25 792.820312 37.730469 801.851562 39.164062 C 810.925781 40.601562 819.851562 42.957031 828.460938 46.160156 C 829.515625 46.554688 830.570312 46.960938 831.617188 47.382812 C 832.109375 47.582031 832.703125 47.167969 832.832031 46.695312 C 832.984375 46.132812 832.640625 45.679688 832.140625 45.480469 C 823.753906 42.125 815.046875 39.578125 806.164062 37.914062 C 797.265625 36.246094 788.195312 35.4375 779.140625 35.578125 C 775.128906 35.640625 771.128906 35.960938 767.117188 36.101562 C 763.410156 36.238281 759.648438 36.246094 755.984375 35.613281 C 752.457031 35.007812 748.996094 33.800781 746.144531 31.585938 C 743.601562 29.609375 741.695312 26.921875 740.667969 23.867188 C 738.53125 17.515625 739.863281 10.339844 742.960938 4.535156 C 743.363281 3.78125 743.796875 3.050781 744.265625 2.332031 C 744.957031 1.269531 743.25 0.28125 742.5625 1.339844 Z M 742.5625 1.339844 " fill-opacity="1" fill-rule="nonzero"/></g><g clip-path="url(#3c636ed060)"><path fill="#f3e9d7" d="M 832.378906 435.300781 C 819.523438 428.660156 805.933594 423.453125 791.921875 419.835938 C 777.921875 416.222656 763.496094 414.175781 749.039062 413.828125 C 736.628906 413.527344 724.09375 414.304688 712.046875 417.4375 C 701.503906 420.171875 691.117188 424.675781 682.894531 431.953125 C 674.554688 439.339844 669.226562 449.613281 668.691406 460.804688 C 668.105469 473.066406 672.988281 485.125 680.171875 494.875 C 688.023438 505.535156 698.8125 513.316406 710.410156 519.484375 C 722.738281 526.046875 735.878906 530.863281 748.671875 536.40625 C 761.863281 542.113281 774.6875 548.652344 787.0625 555.957031 C 799.484375 563.292969 811.453125 571.394531 822.882812 580.199219 C 825.683594 582.355469 828.453125 584.5625 831.183594 586.804688 C 832.15625 587.601562 833.5625 586.21875 832.578125 585.410156 C 821.589844 576.402344 810.078125 568.042969 798.09375 560.414062 C 786.097656 552.777344 773.636719 545.867188 760.796875 539.757812 C 748.3125 533.8125 735.355469 528.992188 722.757812 523.3125 C 710.667969 517.863281 698.570312 511.429688 689.019531 502.074219 C 680.359375 493.59375 673.617188 482.640625 671.363281 470.636719 C 669.265625 459.464844 671.835938 447.878906 678.957031 438.949219 C 685.5625 430.660156 695.066406 425.179688 704.941406 421.675781 C 715.816406 417.8125 727.265625 416.21875 738.757812 415.84375 C 753.042969 415.382812 767.371094 416.613281 781.378906 419.433594 C 795.339844 422.25 809.003906 426.621094 821.992188 432.464844 C 825.167969 433.890625 828.296875 435.410156 831.394531 437.003906 C 832.507812 437.585938 833.507812 435.882812 832.378906 435.300781 Z M 832.378906 435.300781 " fill-opacity="1" fill-rule="nonzero"/></g><g clip-path="url(#b9a4e62169)"><path fill="#f3e9d7" d="M 832.378906 483.253906 C 827.695312 480.8125 822.839844 478.6875 817.859375 476.917969 C 812.859375 475.136719 807.699219 473.609375 802.445312 472.8125 C 797.390625 472.046875 792.113281 471.984375 787.1875 473.527344 C 783.171875 474.78125 779.359375 477.042969 776.625 480.265625 C 773.863281 483.511719 772.351562 487.609375 772.460938 491.882812 C 772.570312 496.128906 774.132812 500.253906 776.453125 503.773438 C 778.917969 507.511719 782.199219 510.550781 785.984375 512.914062 C 790.125 515.5 794.699219 517.3125 799.304688 518.882812 C 804.003906 520.488281 808.785156 521.859375 813.445312 523.570312 C 818.398438 525.390625 823.246094 527.511719 827.949219 529.914062 C 829.105469 530.503906 830.25 531.109375 831.382812 531.730469 C 832.5 532.335938 833.492188 530.636719 832.378906 530.023438 C 827.808594 527.53125 823.101562 525.300781 818.277344 523.335938 C 813.691406 521.472656 808.996094 519.945312 804.285156 518.441406 C 795.738281 515.710938 786.59375 512.683594 780.457031 505.773438 C 775.300781 499.964844 772.242188 491.242188 776.367188 484.023438 C 778.351562 480.550781 781.609375 477.992188 785.214844 476.363281 C 789.410156 474.46875 794.101562 474.027344 798.65625 474.351562 C 803.839844 474.71875 808.929688 476.074219 813.863281 477.644531 C 818.707031 479.1875 823.4375 481.070312 828.023438 483.269531 C 829.15625 483.8125 830.277344 484.371094 831.386719 484.953125 C 832.507812 485.539062 833.507812 483.839844 832.378906 483.253906 Z M 832.378906 483.253906 " fill-opacity="1" fill-rule="nonzero"/></g><g clip-path="url(#50f6c3538c)"><path fill="#f3e9d7" d="M 94.601562 808.699219 C 129.121094 760.617188 145.5 702.558594 178.140625 653.394531 C 193.371094 630.453125 212.242188 610.125 236.222656 596.21875 C 258.398438 583.363281 284.6875 575.976562 310.347656 580.222656 C 335.433594 584.375 355.925781 599.976562 376.878906 613.242188 C 386.875 619.570312 397.238281 625.546875 408.484375 629.382812 C 420.644531 633.53125 433.273438 634.460938 445.945312 632.328125 C 474.472656 627.527344 500.734375 610.023438 530.503906 613.144531 C 543.515625 614.507812 555.132812 620.710938 563.128906 631.097656 C 570.199219 640.28125 574.222656 651.417969 577.597656 662.382812 C 581.132812 673.878906 583.949219 685.613281 588.335938 696.828125 C 593.121094 709.050781 599.496094 720.578125 606.789062 731.472656 C 621.792969 753.871094 640.382812 773.539062 658.125 793.730469 C 662.519531 798.730469 666.867188 803.773438 671.121094 808.894531 C 671.933594 809.871094 673.320312 808.46875 672.515625 807.5 C 654.667969 786 634.980469 766.039062 618.039062 743.785156 C 609.855469 733.035156 602.332031 721.734375 596.234375 709.660156 C 590.3125 697.929688 586.378906 685.597656 582.769531 673.003906 C 576.707031 651.832031 569.882812 627.160156 548.644531 616.332031 C 522.988281 603.257812 493.746094 615.804688 468.820312 624.167969 C 454.664062 628.921875 439.894531 632.835938 424.839844 631.125 C 412.289062 629.699219 400.511719 624.671875 389.574219 618.558594 C 368.105469 606.550781 348.890625 590.085938 325.371094 581.988281 C 274.703125 564.546875 221.359375 595.121094 189.992188 633.871094 C 152.570312 680.109375 135.941406 738.550781 105.328125 788.878906 C 101.421875 795.304688 97.289062 801.585938 92.902344 807.691406 C 92.15625 808.734375 93.867188 809.71875 94.601562 808.699219 Z M 94.601562 808.699219 " fill-opacity="1" fill-rule="nonzero"/></g><g clip-path="url(#edb34e24b7)"><path fill="#f3e9d7" d="M 195.574219 808.894531 C 209.238281 795.117188 221.871094 780.332031 233.316406 764.660156 C 239.082031 756.765625 244.539062 748.652344 249.675781 740.335938 C 253.894531 733.507812 257.949219 726.578125 262.304688 719.835938 C 270.640625 706.941406 280.363281 693.851562 294.074219 686.285156 C 307.734375 678.75 323.050781 679.210938 337.570312 683.835938 C 365.273438 692.660156 392.542969 715.390625 423.207031 707.554688 C 440.136719 703.230469 453.90625 691.179688 470.90625 687.074219 C 487.320312 683.109375 503.925781 688.59375 517.246094 698.328125 C 531.523438 708.765625 541.746094 723.375 549 739.332031 C 557.175781 757.3125 562.152344 776.507812 568.746094 795.078125 C 570.34375 799.585938 572.042969 804.054688 573.890625 808.464844 C 574.371094 809.617188 576.28125 809.113281 575.789062 807.941406 C 561.339844 773.398438 556.183594 733.007812 528.601562 705.507812 C 517.136719 694.082031 502.265625 685.117188 485.835938 683.894531 C 477.363281 683.265625 469.078125 684.992188 461.25 688.175781 C 453.269531 691.425781 445.847656 695.824219 438.136719 699.628906 C 430.277344 703.507812 422.019531 706.648438 413.1875 707.109375 C 405.585938 707.503906 398.042969 706.128906 390.800781 703.890625 C 375.832031 699.273438 362.160156 691.378906 347.714844 685.460938 C 334.007812 679.855469 319.0625 676.078125 304.371094 680.007812 C 289.515625 683.988281 278.089844 694.875 268.992188 706.800781 C 258.667969 720.339844 250.757812 735.519531 241.359375 749.679688 C 230.285156 766.371094 217.882812 782.167969 204.320312 796.90625 C 201.011719 800.503906 197.628906 804.035156 194.1875 807.503906 C 193.28125 808.402344 194.679688 809.796875 195.574219 808.894531 Z M 195.574219 808.894531 " fill-opacity="1" fill-rule="nonzero"/></g><g clip-path="url(#ebe1ebf232)"><path fill="#f3e9d7" d="M 280.671875 808.699219 C 290.453125 790.769531 297.222656 768.265625 316.871094 758.484375 C 321.050781 756.402344 325.636719 755.195312 330.3125 755.152344 C 334.539062 755.113281 338.6875 755.984375 342.675781 757.328125 C 351.007812 760.136719 358.53125 764.824219 366.425781 768.613281 C 373.941406 772.222656 382.140625 775.230469 390.613281 774.359375 C 399.109375 773.488281 406.4375 768.972656 413.183594 764.035156 C 420.121094 758.960938 426.832031 753.121094 434.894531 749.882812 C 444.429688 746.058594 454.796875 747.304688 463.890625 751.773438 C 473.503906 756.492188 481.039062 764.296875 487.574219 772.621094 C 494.832031 781.871094 501.410156 791.6875 508.222656 801.261719 C 509.984375 803.742188 511.753906 806.21875 513.515625 808.699219 C 514.242188 809.722656 515.957031 808.742188 515.21875 807.703125 C 508.078125 797.671875 501.019531 787.578125 493.78125 777.617188 C 487.441406 768.898438 480.558594 760.285156 471.640625 754.054688 C 463.222656 748.179688 452.730469 744.460938 442.382812 745.851562 C 433.457031 747.050781 425.859375 752.128906 418.796875 757.394531 C 411.859375 762.566406 404.933594 768.40625 396.574219 771.101562 C 388.144531 773.816406 379.605469 772.164062 371.628906 768.8125 C 355.855469 762.1875 340.160156 749.214844 322.003906 754.382812 C 312.703125 757.03125 304.945312 763.605469 299.070312 771.09375 C 292.195312 779.855469 287.765625 790.167969 282.890625 800.097656 C 281.632812 802.65625 280.34375 805.195312 278.980469 807.699219 C 278.359375 808.816406 280.0625 809.8125 280.671875 808.699219 Z M 280.671875 808.699219 " fill-opacity="1" fill-rule="nonzero"/></g><g clip-path="url(#4984327069)"><path fill="#f3e9d7" d="M 461.921875 1.339844 C 453.378906 21.425781 448.613281 43.027344 448.042969 64.855469 C 447.765625 75.636719 448.519531 86.445312 450.308594 97.078125 C 452.175781 108.195312 455.363281 119.007812 458.289062 129.875 C 461.257812 140.910156 463.96875 152.089844 464.597656 163.542969 C 465.230469 175.164062 463.925781 186.769531 463.632812 198.386719 C 463.367188 208.808594 464.035156 219.285156 467.320312 229.242188 C 470.054688 237.527344 474.296875 245.261719 479.691406 252.109375 C 490.84375 266.257812 506.964844 276.140625 524.804688 278.988281 C 543.382812 281.953125 563.132812 277.777344 578.671875 267.082031 C 593.40625 256.941406 603.257812 241.023438 618.574219 231.648438 C 627.539062 226.164062 637.660156 224.460938 648.027344 225.953125 C 659.222656 227.5625 669.792969 231.941406 680.40625 235.644531 C 723.710938 250.753906 768.957031 260.214844 814.667969 263.914062 C 820.398438 264.378906 826.140625 264.746094 831.882812 265.03125 C 833.152344 265.09375 833.148438 263.121094 831.882812 263.058594 C 786.246094 260.800781 740.925781 252.804688 697.308594 239.160156 C 686.628906 235.816406 676.175781 231.84375 665.554688 228.332031 C 655.570312 225.035156 644.960938 222.386719 634.378906 223.816406 C 616.253906 226.261719 604.101562 240.773438 591.945312 252.972656 C 585.511719 259.433594 578.699219 265.394531 570.582031 269.65625 C 561.996094 274.164062 552.453125 276.890625 542.792969 277.691406 C 524.230469 279.230469 505.757812 273.578125 491.515625 261.523438 C 477.453125 249.613281 468.101562 232.613281 466.113281 214.253906 C 464.886719 202.9375 465.9375 191.550781 466.464844 180.230469 C 466.996094 168.972656 466.5625 157.929688 464.386719 146.851562 C 462.230469 135.863281 458.9375 125.144531 456.121094 114.316406 C 453.347656 103.664062 451.261719 92.902344 450.429688 81.914062 C 448.789062 60.199219 451.414062 38.207031 458.007812 17.460938 C 459.636719 12.335938 461.511719 7.292969 463.617188 2.339844 C 464.113281 1.183594 462.417969 0.179688 461.921875 1.339844 Z M 461.921875 1.339844 " fill-opacity="1" fill-rule="nonzero"/></g><g clip-path="url(#b2570351cf)"><path fill="#f3e9d7" d="M 406.207031 1.839844 C 399.933594 49.476562 395.792969 98.195312 406.519531 145.53125 C 411.824219 168.917969 420.089844 191.492188 428.292969 213.984375 C 436.652344 236.902344 444.933594 259.851562 453.371094 282.738281 C 456.992188 292.554688 460.984375 302.4375 467.792969 310.527344 C 473.542969 317.371094 481.042969 322.632812 489.210938 326.207031 C 506.6875 333.84375 526.253906 334.070312 544.59375 329.683594 C 589.042969 319.054688 624.617188 285.085938 670.5 278.917969 C 694.539062 275.6875 718.839844 279.671875 742.285156 284.941406 C 766.238281 290.328125 790.035156 296.480469 813.882812 302.308594 C 819.792969 303.75 825.703125 305.199219 831.613281 306.640625 C 832.847656 306.941406 833.371094 305.039062 832.136719 304.742188 C 808.238281 298.902344 784.34375 293.046875 760.441406 287.214844 C 737.675781 281.660156 714.570312 276.199219 691.019531 275.816406 C 679.515625 275.628906 667.988281 276.742188 656.820312 279.554688 C 646.230469 282.21875 636.035156 286.25 626.144531 290.832031 C 605.636719 300.34375 586.351562 312.382812 565.347656 320.847656 C 546.222656 328.5625 525.425781 333.207031 504.886719 329.0625 C 496.019531 327.269531 487.421875 323.964844 479.9375 318.84375 C 471.464844 313.054688 465.296875 305.070312 460.867188 295.878906 C 455.871094 285.492188 452.382812 274.320312 448.4375 263.507812 C 444.285156 252.121094 440.136719 240.738281 435.984375 229.351562 C 427.800781 206.921875 419.195312 184.574219 412.667969 161.59375 C 406.144531 138.628906 402.566406 115.1875 401.914062 91.320312 C 401.261719 67.226562 403.183594 43.132812 405.988281 19.21875 C 406.667969 13.417969 407.402344 7.628906 408.164062 1.84375 C 408.34375 0.585938 406.367188 0.601562 406.207031 1.839844 Z M 406.207031 1.839844 " fill-opacity="1" fill-rule="nonzero"/></g><g clip-path="url(#f843caa322)"><path fill="#f3e9d7" d="M 832.734375 779.523438 C 812.507812 736.257812 791.453125 692.605469 760.542969 655.777344 C 728.765625 617.910156 687.058594 590.5625 651.433594 556.703125 C 617.25 524.214844 586.613281 481.910156 587.113281 432.675781 C 587.324219 412.027344 593.925781 391.449219 606.414062 374.921875 C 612.539062 366.820312 620.125 359.765625 628.855469 354.542969 C 638.757812 348.613281 649.976562 345.28125 661.398438 343.941406 C 685.960938 341.058594 711.058594 345.996094 735.183594 350.246094 C 761.257812 354.839844 787.164062 360.40625 812.824219 366.925781 C 819.101562 368.523438 825.367188 370.175781 831.617188 371.882812 C 832.84375 372.21875 833.363281 370.316406 832.140625 369.980469 C 806.054688 362.855469 779.707031 356.703125 753.160156 351.566406 C 739.9375 349.011719 726.667969 346.695312 713.355469 344.652344 C 701.445312 342.828125 689.449219 341.296875 677.386719 341.175781 C 665.566406 341.054688 653.605469 342.320312 642.371094 346.152344 C 632.617188 349.472656 623.675781 354.738281 615.992188 361.601562 C 600.996094 375.003906 591.109375 393.796875 587.144531 413.410156 C 577.644531 460.417969 602.066406 506.59375 632.75 540.457031 C 666.488281 577.695312 709.335938 605.027344 744.386719 640.890625 C 778.988281 676.296875 802.40625 720.152344 823.492188 764.484375 C 826.027344 769.816406 828.535156 775.164062 831.035156 780.511719 C 831.566406 781.667969 833.265625 780.667969 832.734375 779.523438 Z M 832.734375 779.523438 " fill-opacity="1" fill-rule="nonzero"/></g><g clip-path="url(#9f222214d6)"><path fill="#f3e9d7" d="M -11.707031 707.222656 C 16.320312 682.410156 30.007812 647.503906 42.792969 613.289062 C 49.699219 594.816406 56.625 576.253906 66.203125 558.960938 C 74.136719 544.632812 83.777344 531.261719 94.796875 519.148438 C 142.644531 466.550781 214.1875 440.839844 284.597656 451.246094 C 303.238281 454.003906 321.558594 459.167969 338.824219 466.726562 C 354.738281 473.695312 369.601562 482.765625 384.792969 491.132812 C 399.679688 499.328125 415.125 507.089844 431.757812 511.011719 C 448.542969 514.972656 465.25 513.746094 481.964844 510.085938 C 500.425781 506.039062 518.660156 499.777344 537.71875 499.292969 C 555.554688 498.839844 572.75 504.382812 587.917969 513.5625 C 620.21875 533.113281 640.089844 566.210938 658.667969 597.96875 C 697.652344 664.613281 741.671875 728.027344 791.421875 787.109375 C 797.59375 794.441406 803.847656 801.695312 810.175781 808.890625 C 811.015625 809.84375 812.402344 808.445312 811.570312 807.496094 C 759.179688 747.910156 712.164062 683.640625 671.355469 615.589844 C 652.234375 583.703125 634.9375 549.015625 606.210938 524.4375 C 593.804688 513.824219 579.449219 505.171875 563.679688 500.648438 C 546.761719 495.796875 529.566406 497.007812 512.542969 500.695312 C 493.828125 504.753906 475.351562 511.171875 456.042969 511.652344 C 437.765625 512.105469 420.234375 506.507812 403.875 498.777344 C 387.835938 491.195312 372.753906 481.785156 357.09375 473.464844 C 341.28125 465.0625 324.757812 458.300781 307.394531 453.835938 C 239.398438 436.335938 166.238281 453.144531 112.9375 498.800781 C 87.144531 520.890625 67.453125 548.53125 53.949219 579.609375 C 38.554688 615.035156 29.136719 653.707031 5.789062 685.152344 C 0.203125 692.671875 -6.089844 699.613281 -13.097656 705.820312 C -14.054688 706.671875 -12.652344 708.0625 -11.707031 707.222656 Z M -11.707031 707.222656 " fill-opacity="1" fill-rule="nonzero"/></g><g clip-path="url(#e2f0be0dbf)"><path fill="#f3e9d7" d="M -11.554688 612.394531 C 10.226562 581.742188 31.910156 551.015625 53.796875 520.4375 C 73.464844 492.957031 94.464844 465.546875 122.796875 446.433594 C 182.328125 406.273438 258.328125 406 325.496094 424.117188 C 359.890625 433.390625 392.753906 448.050781 427.796875 454.960938 C 445.308594 458.414062 463.046875 459.101562 480.816406 460.179688 C 490.363281 460.757812 499.933594 461.484375 509.375 463.089844 C 513.746094 463.828125 518.089844 464.753906 522.375 465.898438 C 525.269531 466.671875 528.070312 467.84375 531.097656 467.101562 C 535.6875 465.976562 538.824219 461.238281 538.027344 456.585938 C 537.445312 453.167969 535.15625 449.777344 533.902344 446.601562 C 532.351562 442.664062 531.066406 438.617188 530.109375 434.488281 C 526.699219 419.722656 527.9375 404.40625 533.167969 390.21875 C 543.511719 362.144531 567.472656 340 594.773438 328.644531 C 626.753906 315.335938 662.292969 314.464844 696.335938 317.433594 C 733.035156 320.632812 769.535156 327.449219 805.101562 336.992188 C 813.992188 339.375 822.828125 341.953125 831.617188 344.695312 C 832.832031 345.074219 833.351562 343.171875 832.140625 342.796875 C 796.460938 331.664062 759.902344 323.480469 722.859375 318.46875 C 689.304688 313.929688 654.621094 311.308594 621.226562 318.4375 C 591.699219 324.738281 564.46875 339.347656 545.867188 363.539062 C 528.582031 386.019531 521.210938 414.789062 530.222656 442.210938 C 532.300781 448.53125 541.683594 462.496094 530.566406 465.207031 C 526.539062 466.1875 520.800781 463.398438 516.804688 462.527344 C 512.417969 461.570312 507.992188 460.828125 503.542969 460.242188 C 485.261719 457.824219 466.777344 457.910156 448.445312 456.054688 C 411.785156 452.339844 377.707031 438.039062 342.835938 427.132812 C 277.066406 406.558594 203.210938 401.371094 140.25 433.820312 C 110.832031 448.980469 87.816406 472.164062 67.796875 498.152344 C 45.300781 527.355469 24.636719 558.058594 3.292969 588.105469 C -2.222656 595.871094 -7.742188 603.636719 -13.261719 611.402344 C -13.992188 612.433594 -12.28125 613.417969 -11.554688 612.394531 Z M -11.554688 612.394531 " fill-opacity="1" fill-rule="nonzero"/></g><path fill="#f3e9d7" d="M 418.527344 415.09375 C 425.289062 416.25 432.136719 414.917969 438.609375 412.90625 C 445.484375 410.769531 452.167969 407.96875 458.886719 405.394531 C 465.890625 402.714844 472.894531 400.03125 479.890625 397.355469 C 483.207031 396.085938 486.53125 394.839844 489.835938 393.546875 C 492.378906 392.546875 494.925781 391.460938 497.195312 389.914062 C 499.328125 388.464844 501.242188 386.585938 502.304688 384.195312 C 503.453125 381.605469 503.578125 378.742188 502.761719 376.035156 C 501.023438 370.257812 496.183594 365.84375 491.707031 362.101562 C 482.265625 354.214844 471.925781 345.894531 459.335938 344.179688 C 453.195312 343.34375 447.03125 344.246094 440.957031 345.160156 C 434.9375 346.066406 428.726562 347.09375 422.648438 346.144531 C 419.554688 345.660156 416.566406 344.671875 413.839844 343.128906 C 413.128906 342.726562 412.46875 342.269531 411.777344 341.835938 C 411.074219 341.394531 410.148438 341.449219 409.335938 341.402344 C 407.628906 341.304688 405.921875 341.304688 404.214844 341.398438 C 397.425781 341.78125 390.882812 343.703125 384.910156 346.9375 C 378.652344 350.328125 372.863281 354.628906 366.976562 358.609375 C 363.867188 360.714844 360.753906 362.820312 357.648438 364.925781 C 355.039062 366.691406 352.425781 368.453125 350 370.46875 C 345.355469 374.320312 341.578125 379.3125 341 385.484375 C 340.484375 390.988281 343.207031 396.210938 348.261719 398.566406 C 352.9375 400.742188 358.40625 400.628906 363.363281 399.644531 C 369.890625 398.355469 376.074219 395.328125 382.8125 395.167969 C 385.820312 395.09375 388.765625 395.695312 391.449219 397.054688 C 393.761719 398.222656 395.828125 399.796875 397.773438 401.492188 C 401.78125 404.976562 405.394531 408.992188 409.941406 411.808594 C 412.5625 413.441406 415.480469 414.542969 418.527344 415.09375 C 419.769531 415.320312 420.300781 413.417969 419.050781 413.195312 C 416.046875 412.644531 413.222656 411.570312 410.644531 409.929688 C 408.476562 408.546875 406.523438 406.863281 404.636719 405.132812 C 400.886719 401.699219 397.28125 397.890625 392.726562 395.5 C 390.210938 394.179688 387.488281 393.402344 384.648438 393.230469 C 381.347656 393.027344 378.039062 393.621094 374.855469 394.429688 C 369.175781 395.871094 363.675781 398.160156 357.746094 398.324219 C 353.132812 398.453125 347.9375 397.425781 344.996094 393.527344 C 341.539062 388.933594 342.742188 382.460938 345.707031 377.953125 C 349.066406 372.839844 354.445312 369.46875 359.414062 366.105469 C 365.347656 362.089844 371.273438 358.066406 377.210938 354.058594 C 382.765625 350.316406 388.445312 346.753906 394.949219 344.925781 C 398.105469 344.03125 401.359375 343.507812 404.636719 343.355469 C 406.25 343.28125 407.863281 343.292969 409.472656 343.386719 C 409.816406 343.40625 410.425781 343.34375 410.75 343.480469 C 410.953125 343.566406 411.296875 343.890625 411.503906 344.023438 C 412.214844 344.484375 412.945312 344.910156 413.691406 345.296875 C 424.804688 351.066406 437.046875 347.253906 448.730469 346.101562 C 451.691406 345.8125 454.679688 345.691406 457.644531 345.960938 C 460.625 346.230469 463.550781 346.9375 466.363281 347.949219 C 472.027344 349.976562 477.171875 353.253906 481.972656 356.832031 C 484.472656 358.691406 486.894531 360.660156 489.292969 362.65625 C 491.558594 364.539062 493.8125 366.441406 495.820312 368.601562 C 499.421875 372.484375 503.039062 378.109375 500.464844 383.507812 C 498.214844 388.21875 492.75 390.339844 488.179688 392.085938 C 481.421875 394.671875 474.667969 397.261719 467.910156 399.847656 C 461.203125 402.414062 454.492188 404.984375 447.785156 407.550781 C 441.515625 409.953125 435.125 412.367188 428.429688 413.257812 C 425.324219 413.671875 422.144531 413.730469 419.046875 413.203125 C 417.808594 412.984375 417.277344 414.882812 418.527344 415.09375 Z M 418.527344 415.09375 " fill-opacity="1" fill-rule="nonzero"/></g></g></g></svg>